<?xml version="1.0" encoding="UTF-8"?>
<!DOCTYPE svg PUBLIC "-//W3C//DTD SVG 1.1//EN" "http://www.w3.org/Graphics/SVG/1.1/DTD/svg11.dtd">
<svg xmlns="http://www.w3.org/2000/svg" version="1.1" width="500px" height="500px" style="shape-rendering:geometricPrecision; text-rendering:geometricPrecision; image-rendering:optimizeQuality; fill-rule:evenodd; clip-rule:evenodd" xmlns:xlink="http://www.w3.org/1999/xlink">
<g><path style="opacity:0.979" fill="#ff7e79" d="M 226.5,152.5 C 227.822,152.33 228.989,152.663 230,153.5C 230.495,155.473 230.662,157.473 230.5,159.5C 225.294,171.578 219.294,183.245 212.5,194.5C 211.957,194.56 211.624,194.893 211.5,195.5C 217.32,196.816 222.987,196.816 228.5,195.5C 233.244,194.742 237.911,193.909 242.5,193C 243.451,193.718 243.617,194.551 243,195.5C 241.421,197.041 239.587,198.208 237.5,199C 228.226,200.22 218.893,200.887 209.5,201C 203.207,211.752 197.04,222.585 191,233.5C 187.98,243.286 186.147,253.286 185.5,263.5C 184.194,266.687 184.194,270.02 185.5,273.5C 186.107,273.376 186.44,273.043 186.5,272.5C 188.264,259.371 191.764,246.704 197,234.5C 199.215,229.9 202.048,225.734 205.5,222C 206.784,221.316 207.951,221.483 209,222.5C 209.167,224 209.333,225.5 209.5,227C 207.922,234.44 207.422,241.94 208,249.5C 220.715,241.123 231.881,230.956 241.5,219C 244.377,217.873 247.377,217.206 250.5,217C 253.732,212.604 257.399,208.771 261.5,205.5C 262.442,205.608 263.275,205.941 264,206.5C 264.667,208.167 264.667,209.833 264,211.5C 254.374,226.324 249.54,242.657 249.5,260.5C 251.322,260.169 252.989,259.502 254.5,258.5C 257.167,257.833 258.833,256.167 259.5,253.5C 264.333,247.83 269,241.997 273.5,236C 270.514,235.681 268.847,234.014 268.5,231C 271.774,219.438 278.44,210.438 288.5,204C 292.75,203.959 294.583,206.125 294,210.5C 291.978,215.223 289.478,219.557 286.5,223.5C 285.224,224.386 285.224,225.386 286.5,226.5C 287.107,226.376 287.44,226.043 287.5,225.5C 293.956,220.342 301.123,217.342 309,216.5C 309.167,217.333 309.333,218.167 309.5,219C 304.062,228.027 298.229,236.86 292,245.5C 286.732,254.636 283.899,264.469 283.5,275C 283.637,277.898 284.137,280.731 285,283.5C 286.868,284.672 288.702,284.505 290.5,283C 292.35,280.982 294.35,279.149 296.5,277.5C 297.72,277.887 298.387,278.72 298.5,280C 295.917,286.292 291.25,288.959 284.5,288C 282.622,286.457 281.122,284.624 280,282.5C 278.501,271.775 279.835,261.442 284,251.5C 288.351,241.446 294.184,232.446 301.5,224.5C 302.885,223.698 302.718,223.031 301,222.5C 300.235,222.57 299.735,222.903 299.5,223.5C 293.059,227.559 286.393,231.392 279.5,235C 272.571,246.26 263.905,255.927 253.5,264C 250.975,264.896 248.808,264.396 247,262.5C 244.448,250.004 246.115,238.004 252,226.5C 252.667,225.167 252.667,223.833 252,222.5C 248.265,228.904 243.765,234.737 238.5,240C 236.527,240.495 234.527,240.662 232.5,240.5C 232.66,238.801 232.494,237.134 232,235.5C 226.049,242.458 219.215,248.291 211.5,253C 204.502,255.006 201.502,252.34 202.5,245C 203.169,241.501 203.336,238.001 203,234.5C 193.792,252.331 188.792,271.331 188,291.5C 186.887,292.711 185.72,292.711 184.5,291.5C 182.24,283.845 181.24,276.012 181.5,268C 182.189,244.422 187.189,221.922 196.5,200.5C 197.404,199.791 197.737,198.791 197.5,197.5C 194.941,197.198 192.607,197.532 190.5,198.5C 184.104,210.96 177.937,223.627 172,236.5C 166.579,258.165 166.412,279.832 171.5,301.5C 173.003,302.052 174.669,302.052 176.5,301.5C 177.179,307.235 174.845,308.902 169.5,306.5C 167.091,302.882 165.591,298.882 165,294.5C 163.374,275.421 163.708,256.421 166,237.5C 155.057,249.23 142.224,258.396 127.5,265C 119.356,267.58 111.022,269.08 102.5,269.5C 102.645,277.928 104.978,285.595 109.5,292.5C 109.5,293.5 109.5,294.5 109.5,295.5C 108.5,295.5 107.5,295.5 106.5,295.5C 105.504,295.586 104.671,295.252 104,294.5C 100.127,286.213 97.4602,277.547 96,268.5C 89.9101,266.07 86.4101,261.57 85.5,255C 87.4607,246.441 90.9607,238.607 96,231.5C 99.2976,206.711 104.631,182.378 112,158.5C 112.583,156.998 113.416,155.665 114.5,154.5C 115.881,155 116.547,156 116.5,157.5C 111.203,176.283 106.87,195.283 103.5,214.5C 102.366,216.966 102.199,219.633 103,222.5C 104.417,221.922 105.25,220.922 105.5,219.5C 109.789,214.039 114.289,208.706 119,203.5C 118.217,201.655 117.884,199.655 118,197.5C 121.237,195.42 124.737,193.92 128.5,193C 138.599,182.779 148.932,172.779 159.5,163C 160.448,162.517 161.448,162.351 162.5,162.5C 162.159,165.516 160.993,168.182 159,170.5C 152.022,176.643 145.189,182.977 138.5,189.5C 137.711,189.783 137.044,190.283 136.5,191C 137.749,191.74 138.749,191.573 139.5,190.5C 152.236,189.164 164.902,189.33 177.5,191C 181.614,182.008 186.114,173.174 191,164.5C 200.543,153.796 204.543,155.462 203,169.5C 200.118,177.322 196.951,184.988 193.5,192.5C 194.736,193.357 196.069,194.023 197.5,194.5C 203.732,183.039 210.232,171.706 217,160.5C 219.766,157.223 222.933,154.557 226.5,152.5 Z M 204.5,195.5 C 203.89,194.609 203.557,193.609 203.5,192.5C 209.236,181.361 215.736,170.695 223,160.5C 224.362,159.075 225.862,158.242 227.5,158C 220.843,170.15 214.343,182.317 208,194.5C 206.989,195.337 205.822,195.67 204.5,195.5 Z M 199.5,162.5 C 197.98,172.535 194.48,182.202 189,191.5C 187.301,192.406 185.467,192.739 183.5,192.5C 183.838,190.146 184.338,187.813 185,185.5C 188.346,176.789 193.179,169.122 199.5,162.5 Z M 141.5,194.5 C 150.839,194.334 160.173,194.5 169.5,195C 172.119,195.151 174.453,195.985 176.5,197.5C 172.682,207.951 169.682,218.618 167.5,229.5C 152.808,245.516 135.141,257.016 114.5,264C 110.179,264.499 105.846,264.666 101.5,264.5C 101.334,254.494 101.5,244.494 102,234.5C 102.471,232.754 103.138,231.087 104,229.5C 112.573,218.203 121.74,207.369 131.5,197C 134.952,196.115 138.286,195.282 141.5,194.5 Z M 184.5,196.5 C 185.11,197.391 185.443,198.391 185.5,199.5C 182.072,206.692 178.405,213.692 174.5,220.5C 175.83,212.344 178.163,204.511 181.5,197C 182.448,196.517 183.448,196.351 184.5,196.5 Z M 197.5,213.5 C 196.833,213.5 196.5,213.167 196.5,212.5C 197.833,208.167 199.167,203.833 200.5,199.5C 201.873,199.343 203.207,199.51 204.5,200C 202.028,204.444 199.695,208.944 197.5,213.5 Z M 288.5,209.5 C 289.043,209.56 289.376,209.893 289.5,210.5C 285.768,216.39 282.268,222.39 279,228.5C 277.263,230.625 275.096,231.458 272.5,231C 276.22,222.473 281.553,215.306 288.5,209.5 Z M 245.5,222.5 C 243.251,226.754 240.585,230.754 237.5,234.5C 236.833,234.5 236.5,234.167 236.5,233.5C 238.337,228.795 241.337,225.128 245.5,222.5 Z M 94.5,244.5 C 95.1667,249.833 95.8333,255.167 96.5,260.5C 96.5,261.5 96.5,262.5 96.5,263.5C 92.3706,263.035 90.3706,260.701 90.5,256.5C 90.8405,252.145 92.1738,248.145 94.5,244.5 Z"/></g>
<g><path style="opacity:0.388" fill="#ffc8c7" d="M 226.5,152.5 C 227.884,151.199 229.384,151.199 231,152.5C 231.796,155.039 231.629,157.372 230.5,159.5C 230.662,157.473 230.495,155.473 230,153.5C 228.989,152.663 227.822,152.33 226.5,152.5 Z"/></g>
<g><path style="opacity:0.984" fill="#ff7d78" d="M 352.5,273.5 C 351.378,275.288 351.211,277.288 352,279.5C 353.009,277.975 353.509,276.308 353.5,274.5C 355.696,267.279 358.029,260.112 360.5,253C 359.833,252 359.167,251 358.5,250C 363.81,243.884 367.976,237.051 371,229.5C 373.888,224.224 377.388,219.391 381.5,215C 386.571,212.99 388.404,214.824 387,220.5C 381.644,229.876 375.311,238.543 368,246.5C 366.013,248.679 366.18,250.512 368.5,252C 375.443,251.781 381.276,248.947 386,243.5C 389.807,238.059 393.973,232.892 398.5,228C 400.217,226.441 402.217,225.608 404.5,225.5C 404.657,226.873 404.49,228.207 404,229.5C 399.914,235.672 396.914,242.339 395,249.5C 394.333,251.5 394.333,253.5 395,255.5C 395.414,255.957 395.914,256.291 396.5,256.5C 399.5,254.667 402.5,252.833 405.5,251C 412.58,242.916 420.08,235.083 428,227.5C 429.867,229.756 429.867,232.09 428,234.5C 419.803,243.031 411.303,251.198 402.5,259C 393.453,262.257 389.453,259.091 390.5,249.5C 392.088,247.473 392.588,245.139 392,242.5C 391.283,243.044 390.783,243.711 390.5,244.5C 390.5,244.833 390.5,245.167 390.5,245.5C 386.886,249.608 382.553,252.775 377.5,255C 373.299,255.922 369.299,255.422 365.5,253.5C 360.649,265.888 356.482,278.554 353,291.5C 350.978,292.991 349.312,292.658 348,290.5C 347.199,275.272 348.699,260.272 352.5,245.5C 353.568,243.328 354.068,240.995 354,238.5C 352.905,239.693 352.072,241.027 351.5,242.5C 346.454,250.054 340.454,256.888 333.5,263C 326.122,265.486 322.455,262.653 322.5,254.5C 323.956,243.808 326.623,233.475 330.5,223.5C 331.401,222.71 332.068,221.71 332.5,220.5C 333.267,219.828 333.934,218.995 334.5,218C 333.002,217.415 332.002,217.915 331.5,219.5C 331.5,219.833 331.5,220.167 331.5,220.5C 330.833,220.5 330.5,220.833 330.5,221.5C 326.081,227.766 321.414,233.933 316.5,240C 314.5,240.667 312.5,240.667 310.5,240C 308.855,234.095 310.189,228.928 314.5,224.5C 315.906,224.027 316.573,223.027 316.5,221.5C 317.899,220.11 319.566,219.11 321.5,218.5C 323.857,218.663 326.19,218.497 328.5,218C 329.252,217.329 329.586,216.496 329.5,215.5C 331.95,211.251 335.283,207.918 339.5,205.5C 341.167,205.833 342.167,206.833 342.5,208.5C 333.878,223.2 328.544,239.034 326.5,256C 326.493,257.812 327.16,259.312 328.5,260.5C 329.7,259.469 331.034,258.635 332.5,258C 340.75,249.754 348.25,240.921 355,231.5C 360.551,211.964 368.217,193.297 378,175.5C 381.232,170.212 385.065,165.378 389.5,161C 391.134,160.506 392.801,160.34 394.5,160.5C 394.519,162.06 394.852,163.56 395.5,165C 393.667,170.5 391.833,176 390,181.5C 380.521,199.79 370.521,217.79 360,235.5C 355.894,247.863 353.394,260.53 352.5,273.5 Z M 389.5,168.5 C 387.908,174.356 385.742,180.023 383,185.5C 377.742,195.688 372.242,205.688 366.5,215.5C 365.833,215.5 365.5,215.167 365.5,214.5C 369.553,202.389 374.72,190.722 381,179.5C 383.37,175.403 386.203,171.736 389.5,168.5 Z M 314.5,234.5 C 315.631,228.326 318.964,224.159 324.5,222C 321.683,226.643 318.349,230.81 314.5,234.5 Z"/></g>
<g><path style="opacity:0.983" fill="#ff7e79" d="M 49.5,224.5 C 48.8761,224.917 48.5427,225.584 48.5,226.5C 48.7472,227.713 49.4138,228.38 50.5,228.5C 59.0139,228.445 67.5139,228.779 76,229.5C 80.4549,229.581 84.7882,228.915 89,227.5C 92.1366,228.945 92.3033,230.778 89.5,233C 75.5791,233.322 61.7458,233.489 48,233.5C 45.6057,250.746 44.9391,268.079 46,285.5C 46.3765,294.175 48.5432,302.341 52.5,310C 49.9034,312.033 47.7367,311.533 46,308.5C 40.812,289.503 39.1453,270.169 41,250.5C 41.3994,244.89 42.2327,239.39 43.5,234C 39.1421,231.98 34.8088,232.147 30.5,234.5C 24.5608,254.041 18.0608,273.374 11,292.5C 8.15983,295.371 5.8265,295.037 4,291.5C 3.54227,288.442 3.8756,285.442 5,282.5C 5.70956,281.027 6.87623,280.36 8.5,280.5C 8.5,281.833 8.5,283.167 8.5,284.5C 8.83333,285.833 9.16667,285.833 9.5,284.5C 10.3382,284.158 10.6716,283.492 10.5,282.5C 15.2861,266.807 20.2861,251.14 25.5,235.5C 15.6463,236.273 7.97965,240.939 2.5,249.5C 3.94478,251.063 5.61145,252.396 7.5,253.5C 4.56475,254.898 1.89808,254.565 -0.5,252.5C -0.5,249.833 -0.5,247.167 -0.5,244.5C 2.00145,241.229 5.00145,238.396 8.5,236C 15.0627,233.152 21.5627,230.318 28,227.5C 34.9426,209.016 43.6093,191.35 54,174.5C 55.7155,171.603 58.2155,170.269 61.5,170.5C 61.6646,173.518 61.498,176.518 61,179.5C 56.6457,194.391 52.8123,209.391 49.5,224.5 Z M 56.5,179.5 C 52.1878,195.416 48.1878,211.416 44.5,227.5C 40.8936,227.211 37.3936,227.544 34,228.5C 33.8333,227.833 33.6667,227.167 33.5,226.5C 39.3541,209.794 47.0208,194.128 56.5,179.5 Z"/></g>
<g><path style="opacity:0.08" fill="#ffe4e4" d="M 138.5,189.5 C 138.5,190.167 138.833,190.5 139.5,190.5C 138.749,191.573 137.749,191.74 136.5,191C 137.044,190.283 137.711,189.783 138.5,189.5 Z"/></g>
<g><path style="opacity:0.035" fill="#ffe1e1" d="M 203.5,192.5 C 203.557,193.609 203.89,194.609 204.5,195.5C 202.448,194.947 202.115,193.947 203.5,192.5 Z"/></g>
<g><path style="opacity:0.072" fill="#ffd6d6" d="M 212.5,194.5 C 217.64,195.488 222.974,195.821 228.5,195.5C 222.987,196.816 217.32,196.816 211.5,195.5C 211.624,194.893 211.957,194.56 212.5,194.5 Z"/></g>
<g><path style="opacity:0.376" fill="#ffd1d1" d="M 184.5,196.5 C 186.552,197.053 186.885,198.053 185.5,199.5C 185.443,198.391 185.11,197.391 184.5,196.5 Z"/></g>
<g><path style="opacity:0.463" fill="#ffc0bf" d="M 190.5,198.5 C 192.607,197.532 194.941,197.198 197.5,197.5C 197.737,198.791 197.404,199.791 196.5,200.5C 195.082,198.692 193.082,198.025 190.5,198.5 Z"/></g>
<g><path style="opacity:0.964" fill="#ff8c87" d="M 412.5,205.5 C 414.874,207.401 415.041,209.735 413,212.5C 411.303,214.699 409.803,217.032 408.5,219.5C 407.311,220.429 405.978,220.762 404.5,220.5C 404.491,218.692 404.991,217.025 406,215.5C 407.965,212.035 410.132,208.702 412.5,205.5 Z"/></g>
<g><path style="opacity:0.318" fill="#ffc5c5" d="M 365.5,214.5 C 365.5,215.167 365.833,215.5 366.5,215.5C 366.539,216.756 366.039,217.756 365,218.5C 364.235,216.934 364.402,215.601 365.5,214.5 Z"/></g>
<g><path style="opacity:0.353" fill="#ffc4c4" d="M 196.5,212.5 C 196.5,213.167 196.833,213.5 197.5,213.5C 196.954,215.303 196.12,216.97 195,218.5C 194.595,216.225 195.095,214.225 196.5,212.5 Z"/></g>
<g><path style="opacity:0.547" fill="#ffb1b1" d="M 329.5,215.5 C 329.586,216.496 329.252,217.329 328.5,218C 326.19,218.497 323.857,218.663 321.5,218.5C 324.272,217.918 326.939,216.918 329.5,215.5 Z"/></g>
<g><path style="opacity:0.012" fill="#ffe1e0" d="M 254.5,220.5 C 254.5,219.833 254.167,219.5 253.5,219.5C 254.002,217.915 255.002,217.415 256.5,218C 255.934,218.995 255.267,219.828 254.5,220.5 Z"/></g>
<g><path style="opacity:0.051" fill="#ffd5d5" d="M 332.5,220.5 C 332.5,219.833 332.167,219.5 331.5,219.5C 332.002,217.915 333.002,217.415 334.5,218C 333.934,218.995 333.267,219.828 332.5,220.5 Z"/></g>
<g><path style="opacity:0.125" fill="#ffcece" d="M 103.5,214.5 C 103.338,216.527 103.505,218.527 104,220.5C 104.383,219.944 104.883,219.611 105.5,219.5C 105.25,220.922 104.417,221.922 103,222.5C 102.199,219.633 102.366,216.966 103.5,214.5 Z"/></g>
<g><path style="opacity:0.012" fill="#ffeae9" d="M 331.5,220.5 C 331.833,220.5 332.167,220.5 332.5,220.5C 332.068,221.71 331.401,222.71 330.5,223.5C 330.5,222.833 330.5,222.167 330.5,221.5C 330.5,220.833 330.833,220.5 331.5,220.5 Z"/></g>
<g><path style="opacity:0.024" fill="#ffcecd" d="M 299.5,223.5 C 299.735,222.903 300.235,222.57 301,222.5C 302.718,223.031 302.885,223.698 301.5,224.5C 301.158,223.662 300.492,223.328 299.5,223.5 Z"/></g>
<g><path style="opacity:0.314" fill="#ffc8c6" d="M 316.5,221.5 C 316.573,223.027 315.906,224.027 314.5,224.5C 314.427,222.973 315.094,221.973 316.5,221.5 Z"/></g>
<g><path style="opacity:0.022" fill="#ffdcdc" d="M 286.5,223.5 C 286.328,224.492 286.662,225.158 287.5,225.5C 287.44,226.043 287.107,226.376 286.5,226.5C 285.224,225.386 285.224,224.386 286.5,223.5 Z"/></g>
<g><path style="opacity:0.208" fill="#ffd7d7" d="M 49.5,224.5 C 49.4326,225.959 49.7659,227.292 50.5,228.5C 49.4138,228.38 48.7472,227.713 48.5,226.5C 48.5427,225.584 48.8761,224.917 49.5,224.5 Z"/></g>
<g><path style="opacity:0.027" fill="#ffe3e3" d="M 236.5,233.5 C 236.5,234.167 236.833,234.5 237.5,234.5C 237.217,235.289 236.717,235.956 236,236.5C 235.26,235.251 235.427,234.251 236.5,233.5 Z"/></g>
<g><path style="opacity:0.024" fill="#ffd6d6" d="M 352.5,245.5 C 352.737,244.209 352.404,243.209 351.5,242.5C 352.072,241.027 352.905,239.693 354,238.5C 354.068,240.995 353.568,243.328 352.5,245.5 Z"/></g>
<g><path style="opacity:0.514" fill="#ffb4b1" d="M 390.5,249.5 C 390.5,248.167 390.5,246.833 390.5,245.5C 391.833,245.167 391.833,244.833 390.5,244.5C 390.783,243.711 391.283,243.044 392,242.5C 392.588,245.139 392.088,247.473 390.5,249.5 Z"/></g>
<g><path style="opacity:0.15" fill="#ffecec" d="M 96.5,260.5 C 95.8333,255.167 95.1667,249.833 94.5,244.5C 94.4614,243.244 94.9614,242.244 96,241.5C 96.4995,247.825 96.6662,254.158 96.5,260.5 Z"/></g>
<g><path style="opacity:0.592" fill="#ffb1ae" d="M 259.5,253.5 C 258.833,256.167 257.167,257.833 254.5,258.5C 255.833,256.5 257.5,254.833 259.5,253.5 Z"/></g>
<g><path style="opacity:0.992" fill="#ffb484" d="M 436.5,258.5 C 437.756,258.461 438.756,258.961 439.5,260C 438.95,261.845 437.95,263.345 436.5,264.5C 434.001,262.604 434.001,260.604 436.5,258.5 Z"/></g>
<g><path style="opacity:0.355" fill="#ffaeae" d="M 185.5,263.5 C 185.19,266.713 185.523,269.713 186.5,272.5C 186.44,273.043 186.107,273.376 185.5,273.5C 184.194,270.02 184.194,266.687 185.5,263.5 Z"/></g>
<g><path style="opacity:0.224" fill="#ffcaca" d="M 352.5,273.5 C 352.5,274.167 352.833,274.5 353.5,274.5C 353.509,276.308 353.009,277.975 352,279.5C 351.211,277.288 351.378,275.288 352.5,273.5 Z"/></g>
<g><path style="opacity:0.31" fill="#ffd1d0" d="M 8.5,280.5 C 9.16667,281.167 9.83333,281.833 10.5,282.5C 10.6716,283.492 10.3382,284.158 9.5,284.5C 9.16667,284.5 8.83333,284.5 8.5,284.5C 8.5,283.167 8.5,281.833 8.5,280.5 Z"/></g>
<g><path style="opacity:0.247" fill="#ffd5d5" d="M 109.5,292.5 C 110.434,293.568 110.768,294.901 110.5,296.5C 108.901,296.768 107.568,296.434 106.5,295.5C 107.5,295.5 108.5,295.5 109.5,295.5C 109.5,294.5 109.5,293.5 109.5,292.5 Z"/></g>
</svg>
