<?xml version="1.0" encoding="UTF-8"?>
<!DOCTYPE svg PUBLIC "-//W3C//DTD SVG 1.1//EN" "http://www.w3.org/Graphics/SVG/1.1/DTD/svg11.dtd">
<svg xmlns="http://www.w3.org/2000/svg" version="1.1" width="1080px" height="1080px" style="shape-rendering:geometricPrecision; text-rendering:geometricPrecision; image-rendering:optimizeQuality; fill-rule:evenodd; clip-rule:evenodd" xmlns:xlink="http://www.w3.org/1999/xlink">
<g><path style="opacity:0.877" fill="#090909" d="M 457.5,421.5 C 456.957,421.56 456.624,421.893 456.5,422.5C 459.086,423.48 461.753,423.813 464.5,423.5C 479.948,425.072 495.281,424.238 510.5,421C 514.63,419.466 518.63,417.633 522.5,415.5C 525.368,418.995 525.035,422.162 521.5,425C 514.174,428.415 506.508,430.749 498.5,432C 484.151,432.765 469.818,432.598 455.5,431.5C 453.077,431.55 451.244,432.55 450,434.5C 436.667,459.167 423.333,483.833 410,508.5C 402.98,535.403 400.147,562.736 401.5,590.5C 402.799,589.91 403.632,588.91 404,587.5C 409.267,551.027 421.267,517.027 440,485.5C 441.833,483.667 443.667,481.833 445.5,480C 449.471,480.129 451.805,482.296 452.5,486.5C 449.786,500.567 447.786,514.734 446.5,529C 446.667,532.167 446.833,535.333 447,538.5C 448.726,539.576 450.559,539.743 452.5,539C 460.188,534.156 467.521,528.823 474.5,523C 485.201,512.631 496.201,502.631 507.5,493C 512.001,484.323 518.334,477.323 526.5,472C 531.882,470.845 537.216,470.178 542.5,470C 549.024,461.296 556.024,452.963 563.5,445C 568.08,443.585 570.414,445.251 570.5,450C 570.369,452.253 569.869,454.419 569,456.5C 552.715,483.354 542.382,512.354 538,543.5C 537.333,549.167 537.333,554.833 538,560.5C 539.305,563.306 541.472,564.14 544.5,563C 552.933,556.571 560.766,549.404 568,541.5C 576.862,530.939 585.362,520.106 593.5,509C 583.986,507.55 580.486,502.05 583,492.5C 591.083,473.82 602.917,457.987 618.5,445C 630.63,438.15 635.797,441.65 634,455.5C 629.068,465.421 623.735,475.087 618,484.5C 617.333,486.167 617.333,487.833 618,489.5C 631.336,481.387 645.169,474.22 659.5,468C 667.566,466.608 670.066,469.775 667,477.5C 646.111,501.259 629.778,527.925 618,557.5C 610.867,575.888 609.867,594.555 615,613.5C 616.525,616.087 618.692,616.92 621.5,616C 629.212,612.28 635.712,607.113 641,600.5C 643.164,600.666 644.331,601.833 644.5,604C 640.444,614.789 632.61,620.623 621,621.5C 612.531,620.702 607.531,616.035 606,607.5C 602.772,585.635 605.772,564.635 615,544.5C 625.702,522.244 638.535,501.411 653.5,482C 652.407,480.635 651.074,480.301 649.5,481C 635.008,488.412 620.674,496.079 606.5,504C 591.041,525.803 573.708,546.137 554.5,565C 540.678,573.506 533.178,569.672 532,553.5C 532.691,530.394 537.358,508.06 546,486.5C 548.055,480.723 550.888,475.389 554.5,470.5C 552.157,469.275 550.323,469.941 549,472.5C 538.652,488.518 527.152,503.685 514.5,518C 509.339,520.789 505.506,519.623 503,514.5C 502.667,512.167 502.333,509.833 502,507.5C 491.535,516.297 481.368,525.463 471.5,535C 465.834,539.169 459.834,542.835 453.5,546C 446.657,547.839 442.157,545.339 440,538.5C 439.468,525.854 440.634,513.354 443.5,501C 443.37,499.941 442.87,499.108 442,498.5C 436.316,506.529 431.649,515.196 428,524.5C 415.045,557.942 407.711,592.608 406,628.5C 403.936,629.591 401.769,629.758 399.5,629C 396.556,617.731 394.723,606.231 394,594.5C 392.757,573.719 393.757,553.052 397,532.5C 399.697,517.383 402.863,502.383 406.5,487.5C 412.278,467.84 419.278,448.507 427.5,429.5C 423.125,427.27 418.459,426.437 413.5,427C 412.333,428.167 411.167,429.333 410,430.5C 397.728,454.71 385.728,479.044 374,503.5C 371.102,509.964 368.769,516.63 367,523.5C 361.132,563.528 361.132,603.528 367,643.5C 368,646.833 369,650.167 370,653.5C 370.368,654.91 371.201,655.91 372.5,656.5C 374.361,655.472 375.695,653.972 376.5,652C 378.367,651.289 379.867,651.789 381,653.5C 381.55,661.601 377.717,664.768 369.5,663C 366.469,660.441 364.302,657.274 363,653.5C 360.58,644.245 358.58,634.911 357,625.5C 353.883,587.966 355.383,550.633 361.5,513.5C 361.167,512.5 360.833,511.5 360.5,510.5C 335.631,535.269 307.297,555.103 275.5,570C 257.755,576.281 239.589,580.115 221,581.5C 221.565,597.539 225.232,612.872 232,627.5C 233.333,630.167 235.333,632.167 238,633.5C 238.72,635.112 238.554,636.612 237.5,638C 232.048,639.023 227.881,637.19 225,632.5C 217.35,615.566 212.35,597.9 210,579.5C 206.528,575.893 202.361,573.393 197.5,572C 189.055,564.747 185.888,555.58 188,544.5C 189.268,539.363 190.934,534.363 193,529.5C 198.7,519.147 204.366,508.813 210,498.5C 216.746,443.029 228.746,388.695 246,335.5C 247.587,334.273 248.921,334.606 250,336.5C 250.667,339.5 250.667,342.5 250,345.5C 238.429,384.263 229.429,423.596 223,463.5C 222.17,469.196 222.337,474.863 223.5,480.5C 235.764,465.563 248.43,450.897 261.5,436.5C 256.653,434.675 255.32,431.341 257.5,426.5C 264.264,422.077 271.597,418.91 279.5,417C 296.865,399.967 314.531,383.301 332.5,367C 337.534,362.301 342.2,357.301 346.5,352C 347.793,351.51 349.127,351.343 350.5,351.5C 350.702,353.989 350.202,356.323 349,358.5C 345.667,362.5 342.333,366.5 339,370.5C 324.322,384.346 309.822,398.346 295.5,412.5C 296.333,412.833 297.167,413.167 298,413.5C 325.882,409.36 353.716,409.693 381.5,414.5C 383.693,414.674 385.527,414.007 387,412.5C 394.553,392.062 404.219,372.728 416,354.5C 419.336,350.332 422.836,346.332 426.5,342.5C 436.1,338.907 440.433,342.407 439.5,353C 438.576,361.78 436.409,370.28 433,378.5C 428.248,391.171 423.081,403.671 417.5,416C 417.759,417.261 418.426,418.261 419.5,419C 422.682,419.407 425.849,419.907 429,420.5C 429.833,420.167 430.667,419.833 431.5,419.5C 441.845,393.799 455.012,369.799 471,347.5C 476.5,340.667 482.667,334.5 489.5,329C 493.986,326.417 497.152,327.584 499,332.5C 500.098,338.847 499.098,344.847 496,350.5C 483.663,374.513 470.829,398.18 457.5,421.5 Z M 426.5,355.5 C 427.5,355.5 428.5,355.5 429.5,355.5C 429.813,358.247 429.48,360.914 428.5,363.5C 427.408,367.064 425.908,370.397 424,373.5C 423.502,376.482 423.335,379.482 423.5,382.5C 422.178,382.33 421.011,382.663 420,383.5C 417.817,388.222 416.484,393.222 416,398.5C 412.864,400.164 411.697,402.831 412.5,406.5C 411.5,406.5 410.5,406.5 409.5,406.5C 409.739,408.467 409.406,410.301 408.5,412C 405.574,412.218 402.74,412.718 400,413.5C 398.957,410.014 399.624,407.014 402,404.5C 402.497,401.854 402.664,399.187 402.5,396.5C 403.822,396.67 404.989,396.337 406,395.5C 406.495,393.527 406.662,391.527 406.5,389.5C 407.5,389.5 408.5,389.5 409.5,389.5C 409.5,387.167 409.5,384.833 409.5,382.5C 410.5,382.5 411.5,382.5 412.5,382.5C 412.5,380.167 412.5,377.833 412.5,375.5C 413.833,375.5 415.167,375.5 416.5,375.5C 416.461,373.641 417.294,372.308 419,371.5C 419.495,369.527 419.662,367.527 419.5,365.5C 420.833,365.5 422.167,365.5 423.5,365.5C 423.461,363.641 424.294,362.308 426,361.5C 426.495,359.527 426.662,357.527 426.5,355.5 Z M 392.5,426.5 C 398.5,425.167 400.833,427.5 399.5,433.5C 398.5,433.5 397.5,433.5 396.5,433.5C 396.5,435.5 396.5,437.5 396.5,439.5C 395.178,439.33 394.011,439.663 393,440.5C 392.505,442.473 392.338,444.473 392.5,446.5C 391.5,446.5 390.5,446.5 389.5,446.5C 389.5,448.833 389.5,451.167 389.5,453.5C 388.178,453.33 387.011,453.663 386,454.5C 385.505,456.473 385.338,458.473 385.5,460.5C 384.5,460.5 383.5,460.5 382.5,460.5C 384.71,454.567 385.877,448.234 386,441.5C 388.907,439.267 390.074,436.267 389.5,432.5C 390.5,432.5 391.5,432.5 392.5,432.5C 392.5,430.5 392.5,428.5 392.5,426.5 Z M 435.5,433.5 C 436.873,433.343 438.207,433.51 439.5,434C 437.777,436.627 435.944,439.127 434,441.5C 433.109,438.502 433.609,435.836 435.5,433.5 Z M 480.5,355.5 C 480.5,357.833 480.5,360.167 480.5,362.5C 479.5,362.5 478.5,362.5 477.5,362.5C 477.5,364.833 477.5,367.167 477.5,369.5C 476.167,369.5 474.833,369.5 473.5,369.5C 473.657,370.873 473.49,372.207 473,373.5C 471.249,376.67 469.249,379.67 467,382.5C 466.51,383.793 466.343,385.127 466.5,386.5C 465.5,386.5 464.5,386.5 463.5,386.5C 463.5,388.5 463.5,390.5 463.5,392.5C 462.5,392.5 461.5,392.5 460.5,392.5C 460.5,394.833 460.5,397.167 460.5,399.5C 459.167,399.5 457.833,399.5 456.5,399.5C 456.598,404.374 454.765,408.374 451,411.5C 450.506,413.134 450.34,414.801 450.5,416.5C 448.005,417.199 445.672,418.199 443.5,419.5C 443.5,417.167 443.5,414.833 443.5,412.5C 444.5,412.5 445.5,412.5 446.5,412.5C 446.5,410.167 446.5,407.833 446.5,405.5C 447.5,405.5 448.5,405.5 449.5,405.5C 449.435,402.514 450.602,400.18 453,398.5C 453.495,396.527 453.662,394.527 453.5,392.5C 454.5,392.5 455.5,392.5 456.5,392.5C 456.5,390.167 456.5,387.833 456.5,385.5C 457.833,385.5 459.167,385.5 460.5,385.5C 460.614,381.789 461.614,378.455 463.5,375.5C 464.5,375.5 465.5,375.5 466.5,375.5C 466.5,373.5 466.5,371.5 466.5,369.5C 469.5,369.833 470.833,368.5 470.5,365.5C 471.5,365.5 472.5,365.5 473.5,365.5C 473.338,363.473 473.505,361.473 474,359.5C 475.011,358.663 476.178,358.33 477.5,358.5C 477.5,357.5 477.5,356.5 477.5,355.5C 478.5,355.5 479.5,355.5 480.5,355.5 Z M 480.5,355.5 C 480.461,353.641 481.294,352.308 483,351.5C 483.49,352.793 483.657,354.127 483.5,355.5C 482.5,355.5 481.5,355.5 480.5,355.5 Z M 486.5,345.5 C 487.776,346.386 487.776,347.386 486.5,348.5C 485.913,347.767 485.913,346.767 486.5,345.5 Z M 431.5,443.5 C 433.048,443.821 433.715,444.821 433.5,446.5C 431.876,446.36 430.71,447.027 430,448.5C 429.818,446.67 430.318,445.003 431.5,443.5 Z M 618.5,460.5 C 619.066,458.922 620.066,457.588 621.5,456.5C 622.429,457.689 622.762,459.022 622.5,460.5C 621.167,460.5 619.833,460.5 618.5,460.5 Z M 618.5,460.5 C 618.5,462.5 618.5,464.5 618.5,466.5C 617.5,466.5 616.5,466.5 615.5,466.5C 613.738,469.81 612.738,473.476 612.5,477.5C 608.932,477.759 607.599,479.759 608.5,483.5C 607.5,483.5 606.5,483.5 605.5,483.5C 603.812,486.579 602.479,489.912 601.5,493.5C 600.5,493.5 599.5,493.5 598.5,493.5C 598.5,494.833 598.5,496.167 598.5,497.5C 596.801,497.66 595.134,497.494 593.5,497C 595.342,492.497 597.009,487.997 598.5,483.5C 599.5,483.5 600.5,483.5 601.5,483.5C 600.789,480.136 601.956,477.803 605,476.5C 605.483,475.552 605.649,474.552 605.5,473.5C 606.5,473.5 607.5,473.5 608.5,473.5C 609.107,470.924 610.274,468.591 612,466.5C 613.98,464.101 616.147,462.101 618.5,460.5 Z M 355.5,419.5 C 355.577,420.75 356.244,421.583 357.5,422C 364.779,423.247 372.112,423.747 379.5,423.5C 379.808,425.924 379.474,428.257 378.5,430.5C 377.201,431.09 376.368,432.09 376,433.5C 375.502,436.817 375.335,440.15 375.5,443.5C 374.5,443.5 373.5,443.5 372.5,443.5C 371.151,451.406 369.984,459.406 369,467.5C 368,468.5 367,469.5 366,470.5C 365.516,478.721 364.35,486.721 362.5,494.5C 361.5,494.5 360.5,494.5 359.5,494.5C 359.5,495.5 359.5,496.5 359.5,497.5C 358.167,497.5 356.833,497.5 355.5,497.5C 355.5,498.5 355.5,499.5 355.5,500.5C 354.5,500.5 353.5,500.5 352.5,500.5C 352.5,501.833 352.5,503.167 352.5,504.5C 351.167,504.5 349.833,504.5 348.5,504.5C 348.5,505.5 348.5,506.5 348.5,507.5C 347.5,507.5 346.5,507.5 345.5,507.5C 345.5,508.5 345.5,509.5 345.5,510.5C 344.5,510.5 343.5,510.5 342.5,510.5C 342.5,511.833 342.5,513.167 342.5,514.5C 341.167,514.5 339.833,514.5 338.5,514.5C 338.5,515.5 338.5,516.5 338.5,517.5C 333.703,517.993 330.37,520.326 328.5,524.5C 327.5,524.5 326.5,524.5 325.5,524.5C 325.5,525.5 325.5,526.5 325.5,527.5C 324.167,527.5 322.833,527.5 321.5,527.5C 321.5,528.833 321.5,530.167 321.5,531.5C 317.789,531.614 314.455,532.614 311.5,534.5C 311.5,535.5 311.5,536.5 311.5,537.5C 310.5,537.5 309.5,537.5 308.5,537.5C 308.67,538.822 308.337,539.989 307.5,541C 305.527,541.495 303.527,541.662 301.5,541.5C 301.5,542.5 301.5,543.5 301.5,544.5C 300.5,544.5 299.5,544.5 298.5,544.5C 298.5,545.5 298.5,546.5 298.5,547.5C 296.473,547.338 294.473,547.505 292.5,548C 291.663,549.011 291.33,550.178 291.5,551.5C 289.167,551.5 286.833,551.5 284.5,551.5C 284.5,552.5 284.5,553.5 284.5,554.5C 282.5,554.5 280.5,554.5 278.5,554.5C 278.5,555.833 278.5,557.167 278.5,558.5C 276.167,558.5 273.833,558.5 271.5,558.5C 271.5,559.5 271.5,560.5 271.5,561.5C 265.617,562.814 259.617,563.98 253.5,565C 252.167,565.667 251.167,566.667 250.5,568C 241.15,568.044 232.15,569.211 223.5,571.5C 223.5,570.5 223.5,569.5 223.5,568.5C 222.5,568.5 221.5,568.5 220.5,568.5C 220.5,548.167 220.5,527.833 220.5,507.5C 221.5,507.5 222.5,507.5 223.5,507.5C 222.772,503.781 223.772,500.781 226.5,498.5C 227.309,496.929 227.643,495.262 227.5,493.5C 228.5,493.5 229.5,493.5 230.5,493.5C 230.5,492.5 230.5,491.5 230.5,490.5C 231.5,490.5 232.5,490.5 233.5,490.5C 234.303,486.902 235.637,483.569 237.5,480.5C 238.5,480.5 239.5,480.5 240.5,480.5C 242.294,477.954 244.127,475.287 246,472.5C 247.128,470.655 247.628,468.655 247.5,466.5C 248.5,466.5 249.5,466.5 250.5,466.5C 250.5,465.5 250.5,464.5 250.5,463.5C 251.833,463.5 253.167,463.5 254.5,463.5C 254.5,462.5 254.5,461.5 254.5,460.5C 255.5,460.5 256.5,460.5 257.5,460.5C 257.5,459.167 257.5,457.833 257.5,456.5C 258.552,456.649 259.552,456.483 260.5,456C 261.333,454.5 262.5,453.333 264,452.5C 267.378,446.981 270.878,441.647 274.5,436.5C 275.5,436.5 276.5,436.5 277.5,436.5C 277.5,435.5 277.5,434.5 277.5,433.5C 278.833,433.5 280.167,433.5 281.5,433.5C 281.5,432.167 281.5,430.833 281.5,429.5C 282.5,429.5 283.5,429.5 284.5,429.5C 284.5,428.5 284.5,427.5 284.5,426.5C 287.022,426.872 289.022,426.039 290.5,424C 299.876,423.816 309.209,423.15 318.5,422C 319.167,421.333 319.833,420.667 320.5,420C 332.162,419.5 343.829,419.333 355.5,419.5 Z M 524.5,487.5 C 525.172,486.733 526.005,486.066 527,485.5C 527.188,487.061 526.355,487.728 524.5,487.5 Z M 524.5,487.5 C 522.571,490.392 520.904,493.558 519.5,497C 519.167,497.167 518.833,497.333 518.5,497.5C 517.571,496.311 517.238,494.978 517.5,493.5C 518.5,493.5 519.5,493.5 520.5,493.5C 520.71,490.735 522.043,488.735 524.5,487.5 Z M 537.5,497.5 C 537.132,494.376 538.298,492.043 541,490.5C 541.667,492.5 541.667,494.5 541,496.5C 539.989,497.337 538.822,497.67 537.5,497.5 Z M 436.5,517.5 C 436.341,514.813 437.175,512.48 439,510.5C 439.833,513.478 439,515.811 436.5,517.5 Z M 206.5,530.5 C 207.825,542.34 207.825,554.34 206.5,566.5C 203.945,569.251 202.945,568.584 203.5,564.5C 202.5,564.5 201.5,564.5 200.5,564.5C 200.167,562.5 199.833,560.5 199.5,558.5C 198.5,558.5 197.5,558.5 196.5,558.5C 196.338,556.473 196.505,554.473 197,552.5C 200.122,548.026 201.289,543.026 200.5,537.5C 201.5,537.5 202.5,537.5 203.5,537.5C 203.15,534.547 204.15,532.213 206.5,530.5 Z"/></g>
<g><path style="opacity:0.874" fill="#0b0b0b" d="M -0.5,541.5 C -0.5,538.5 -0.5,535.5 -0.5,532.5C 9.00654,518.055 22.0065,507.889 38.5,502C 45.0636,499.692 51.7302,497.692 58.5,496C 60,494.5 61.5,493 63,491.5C 77.3129,449.875 96.6462,410.875 121,374.5C 122.833,372.667 124.667,370.833 126.5,369C 131.122,368.449 133.456,370.616 133.5,375.5C 126.976,401.906 120.143,428.24 113,454.5C 111.209,462.876 109.209,471.209 107,479.5C 105.908,483.797 105.575,488.131 106,492.5C 108.069,493.264 110.236,493.764 112.5,494C 134.815,495.546 157.148,496.213 179.5,496C 184.391,495.069 189.224,493.902 194,492.5C 197.452,494.073 198.286,496.573 196.5,500C 192.389,501.891 188.056,502.891 183.5,503C 160.644,503.662 137.811,503.162 115,501.5C 110.74,501.539 106.74,502.206 103,503.5C 95.3951,548.456 95.0617,593.456 102,638.5C 104.554,649.391 107.721,660.058 111.5,670.5C 109.473,670.662 107.473,670.495 105.5,670C 102.591,666.626 100.424,662.793 99,658.5C 91.8884,632.334 88.3884,605.667 88.5,578.5C 89.2946,552.709 91.1279,527.043 94,501.5C 85.5395,500.289 77.0395,500.456 68.5,502C 67.6667,502.833 66.8333,503.667 66,504.5C 53.0657,542.303 40.7324,580.303 29,618.5C 27.0697,624.196 24.2364,629.363 20.5,634C 16.8201,635.027 13.6534,634.194 11,631.5C 9.72563,622.862 10.7256,614.528 14,606.5C 16.8249,604.916 18.9916,605.582 20.5,608.5C 17.7772,612.562 17.1106,616.895 18.5,621.5C 19.4776,621.023 20.3109,620.357 21,619.5C 32.6278,582.283 44.4611,545.116 56.5,508C 56.2664,506.268 55.2664,505.434 53.5,505.5C 36.0411,509.309 21.2078,517.642 9,530.5C 2.52421,539.546 4.69087,544.546 15.5,545.5C 15.67,546.822 15.3366,547.989 14.5,549C 7.55345,550.188 2.55345,547.688 -0.5,541.5 Z M 117.5,396.5 C 118.497,396.47 119.164,396.97 119.5,398C 117.983,399.541 116.816,401.375 116,403.5C 115.502,406.817 115.335,410.15 115.5,413.5C 114.5,413.5 113.5,413.5 112.5,413.5C 112.665,416.85 112.498,420.183 112,423.5C 111.333,424.167 110.667,424.833 110,425.5C 110.21,430.75 108.877,435.417 106,439.5C 103.868,447.241 102.368,455.241 101.5,463.5C 100.914,463.709 100.414,464.043 100,464.5C 99.501,468.821 99.3343,473.154 99.5,477.5C 98.5,477.5 97.5,477.5 96.5,477.5C 96.3077,481.749 95.3077,485.749 93.5,489.5C 87.5368,490.496 81.5368,490.829 75.5,490.5C 76.0209,484.691 77.0209,479.025 78.5,473.5C 79.8221,473.67 80.9887,473.337 82,472.5C 82.1388,469.175 83.1388,466.175 85,463.5C 85.4966,461.19 85.6633,458.857 85.5,456.5C 86.5,456.5 87.5,456.5 88.5,456.5C 87.9711,453.396 88.9711,451.063 91.5,449.5C 93.5202,445.315 95.1869,440.981 96.5,436.5C 98.2321,433.52 100.065,430.52 102,427.5C 102.494,425.866 102.66,424.199 102.5,422.5C 103.5,422.5 104.5,422.5 105.5,422.5C 105.5,420.5 105.5,418.5 105.5,416.5C 106.822,416.67 107.989,416.337 109,415.5C 109.495,413.527 109.662,411.527 109.5,409.5C 110.5,409.5 111.5,409.5 112.5,409.5C 112.5,407.167 112.5,404.833 112.5,402.5C 113.5,402.5 114.5,402.5 115.5,402.5C 115.614,400.282 116.28,398.282 117.5,396.5 Z"/></g>
<g><path style="opacity:0.12" fill="#f2f2f2" d="M 426.5,342.5 C 422.836,346.332 419.336,350.332 416,354.5C 404.219,372.728 394.553,392.062 387,412.5C 385.527,414.007 383.693,414.674 381.5,414.5C 353.716,409.693 325.882,409.36 298,413.5C 297.167,413.167 296.333,412.833 295.5,412.5C 309.822,398.346 324.322,384.346 339,370.5C 342.333,366.5 345.667,362.5 349,358.5C 350.202,356.323 350.702,353.989 350.5,351.5C 349.127,351.343 347.793,351.51 346.5,352C 342.2,357.301 337.534,362.301 332.5,367C 314.531,383.301 296.865,399.967 279.5,417C 271.597,418.91 264.264,422.077 257.5,426.5C 255.32,431.341 256.653,434.675 261.5,436.5C 248.43,450.897 235.764,465.563 223.5,480.5C 222.337,474.863 222.17,469.196 223,463.5C 229.429,423.596 238.429,384.263 250,345.5C 250.667,342.5 250.667,339.5 250,336.5C 248.921,334.606 247.587,334.273 246,335.5C 228.746,388.695 216.746,443.029 210,498.5C 204.366,508.813 198.7,519.147 193,529.5C 190.934,534.363 189.268,539.363 188,544.5C 185.888,555.58 189.055,564.747 197.5,572C 202.361,573.393 206.528,575.893 210,579.5C 212.35,597.9 217.35,615.566 225,632.5C 227.881,637.19 232.048,639.023 237.5,638C 238.554,636.612 238.72,635.112 238,633.5C 235.333,632.167 233.333,630.167 232,627.5C 225.232,612.872 221.565,597.539 221,581.5C 239.589,580.115 257.755,576.281 275.5,570C 307.297,555.103 335.631,535.269 360.5,510.5C 360.833,511.5 361.167,512.5 361.5,513.5C 355.383,550.633 353.883,587.966 357,625.5C 358.58,634.911 360.58,644.245 363,653.5C 364.302,657.274 366.469,660.441 369.5,663C 377.717,664.768 381.55,661.601 381,653.5C 379.867,651.789 378.367,651.289 376.5,652C 375.695,653.972 374.361,655.472 372.5,656.5C 371.201,655.91 370.368,654.91 370,653.5C 369,650.167 368,646.833 367,643.5C 361.132,603.528 361.132,563.528 367,523.5C 368.769,516.63 371.102,509.964 374,503.5C 385.728,479.044 397.728,454.71 410,430.5C 411.167,429.333 412.333,428.167 413.5,427C 418.459,426.437 423.125,427.27 427.5,429.5C 419.278,448.507 412.278,467.84 406.5,487.5C 406.334,483.486 406.501,479.486 407,475.5C 407.414,475.043 407.914,474.709 408.5,474.5C 409.82,467.375 411.486,460.375 413.5,453.5C 414.5,453.5 415.5,453.5 416.5,453.5C 416.335,450.482 416.502,447.482 417,444.5C 419.012,442.318 420.012,439.651 420,436.5C 421.167,435.333 422.333,434.167 423.5,433C 421.102,431.982 418.769,430.815 416.5,429.5C 413.013,430.522 411.68,432.855 412.5,436.5C 411.5,436.5 410.5,436.5 409.5,436.5C 409.662,438.527 409.495,440.527 409,442.5C 407.076,444.009 405.909,446.009 405.5,448.5C 404.675,449.386 403.675,449.719 402.5,449.5C 402.5,451.833 402.5,454.167 402.5,456.5C 401.5,456.5 400.5,456.5 399.5,456.5C 399.662,458.527 399.495,460.527 399,462.5C 396.893,465.007 395.06,467.674 393.5,470.5C 392.534,472.396 392.201,474.396 392.5,476.5C 391.5,476.5 390.5,476.5 389.5,476.5C 389.5,478.833 389.5,481.167 389.5,483.5C 388.167,483.5 386.833,483.5 385.5,483.5C 385.5,485.833 385.5,488.167 385.5,490.5C 384.5,490.5 383.5,490.5 382.5,490.5C 382.5,492.833 382.5,495.167 382.5,497.5C 381.5,497.5 380.5,497.5 379.5,497.5C 379.662,499.527 379.495,501.527 379,503.5C 377.989,504.337 376.822,504.67 375.5,504.5C 375.936,507.364 375.103,509.697 373,511.5C 372.502,514.482 372.335,517.482 372.5,520.5C 371.5,520.5 370.5,520.5 369.5,520.5C 369.666,526.509 369.499,532.509 369,538.5C 368.867,541.525 367.867,544.192 366,546.5C 365.167,573.173 365.333,599.84 366.5,626.5C 368.391,634.288 370.391,641.955 372.5,649.5C 375.833,649.5 379.167,649.5 382.5,649.5C 382.781,651.963 383.781,654.13 385.5,656C 383.309,658.715 381.643,661.715 380.5,665C 376.289,666.534 371.956,666.867 367.5,666C 366.027,665.29 365.36,664.124 365.5,662.5C 364.5,662.5 363.5,662.5 362.5,662.5C 362.5,660.167 362.5,657.833 362.5,655.5C 360.876,655.64 359.71,654.973 359,653.5C 356.516,644.197 355.183,634.53 355,624.5C 354.085,623.672 353.419,622.672 353,621.5C 352.333,598.5 352.333,575.5 353,552.5C 353.471,550.754 354.138,549.087 355,547.5C 355.333,539.833 355.667,532.167 356,524.5C 358.071,522.545 358.738,520.212 358,517.5C 356.736,519.607 354.903,520.607 352.5,520.5C 352.5,521.833 352.5,523.167 352.5,524.5C 351.167,524.5 349.833,524.5 348.5,524.5C 348.5,525.5 348.5,526.5 348.5,527.5C 347.5,527.5 346.5,527.5 345.5,527.5C 345.5,528.5 345.5,529.5 345.5,530.5C 342.393,532.242 339.059,533.575 335.5,534.5C 335.5,535.5 335.5,536.5 335.5,537.5C 334.167,537.5 332.833,537.5 331.5,537.5C 331.5,538.833 331.5,540.167 331.5,541.5C 330.5,541.5 329.5,541.5 328.5,541.5C 328.5,542.5 328.5,543.5 328.5,544.5C 324.818,544.555 321.485,545.555 318.5,547.5C 318.5,548.833 318.5,550.167 318.5,551.5C 314.995,552.024 311.661,553.024 308.5,554.5C 308.67,555.822 308.337,556.989 307.5,558C 305.527,558.495 303.527,558.662 301.5,558.5C 301.5,559.5 301.5,560.5 301.5,561.5C 300.167,561.5 298.833,561.5 297.5,561.5C 297.5,562.5 297.5,563.5 297.5,564.5C 295.5,564.5 293.5,564.5 291.5,564.5C 291.719,565.675 291.386,566.675 290.5,567.5C 282.455,570.256 274.455,572.922 266.5,575.5C 266.023,576.478 265.357,577.311 264.5,578C 259.497,577.868 254.83,578.868 250.5,581C 241.506,581.5 232.506,581.666 223.5,581.5C 223.5,587.167 223.5,592.833 223.5,598.5C 224.822,598.33 225.989,598.663 227,599.5C 227.499,603.821 227.666,608.154 227.5,612.5C 228.5,612.5 229.5,612.5 230.5,612.5C 230.5,615.833 230.5,619.167 230.5,622.5C 231.552,622.351 232.552,622.517 233.5,623C 234.799,626.473 237.133,628.64 240.5,629.5C 240.665,632.85 240.498,636.183 240,639.5C 237.833,642.287 234.999,643.12 231.5,642C 230.003,640.129 228.003,639.129 225.5,639C 223.771,637.211 223.104,635.044 223.5,632.5C 222.5,632.5 221.5,632.5 220.5,632.5C 220.5,630.167 220.5,627.833 220.5,625.5C 219.5,625.5 218.5,625.5 217.5,625.5C 218.285,621.404 217.118,618.07 214,615.5C 213.502,612.183 213.335,608.85 213.5,605.5C 212.5,605.5 211.5,605.5 210.5,605.5C 210.666,600.156 210.499,594.823 210,589.5C 209.333,588.833 208.667,588.167 208,587.5C 207.818,584.774 207.318,582.107 206.5,579.5C 201.929,578.213 197.596,576.547 193.5,574.5C 193.5,573.5 193.5,572.5 193.5,571.5C 192.5,571.5 191.5,571.5 190.5,571.5C 190.394,568.892 189.228,566.892 187,565.5C 186.419,560.509 185.253,555.843 183.5,551.5C 183.168,548.679 184.001,546.346 186,544.5C 186.333,541.167 186.667,537.833 187,534.5C 189.988,531.919 191.154,528.586 190.5,524.5C 191.5,524.5 192.5,524.5 193.5,524.5C 193.916,519.452 196.083,515.119 200,511.5C 200.49,510.207 200.657,508.873 200.5,507.5C 201.5,507.5 202.5,507.5 203.5,507.5C 202.907,504.404 203.907,502.071 206.5,500.5C 207.318,497.893 207.818,495.226 208,492.5C 208.667,491.833 209.333,491.167 210,490.5C 210.333,481.833 210.667,473.167 211,464.5C 211.667,463.833 212.333,463.167 213,462.5C 213.333,456.833 213.667,451.167 214,445.5C 217.075,439.645 218.409,433.312 218,426.5C 220.064,422.136 221.064,417.47 221,412.5C 223.146,407.465 224.313,402.132 224.5,396.5C 225.5,396.5 226.5,396.5 227.5,396.5C 227.998,388.382 228.998,380.382 230.5,372.5C 231.822,372.67 232.989,372.337 234,371.5C 234.499,367.514 234.666,363.514 234.5,359.5C 235.5,359.5 236.5,359.5 237.5,359.5C 237.335,356.15 237.502,352.817 238,349.5C 238.414,349.043 238.914,348.709 239.5,348.5C 240.324,345.215 240.824,341.882 241,338.5C 243.226,336.715 244.392,334.382 244.5,331.5C 253.265,332.128 256.432,336.794 254,345.5C 251.015,349.22 249.848,353.553 250.5,358.5C 249.5,358.5 248.5,358.5 247.5,358.5C 247.317,366.816 246.317,374.816 244.5,382.5C 243.178,382.33 242.011,382.663 241,383.5C 240.667,387.833 240.333,392.167 240,396.5C 238.182,401.431 236.682,406.431 235.5,411.5C 234.672,416.132 234.172,420.798 234,425.5C 233.585,427.291 232.585,428.624 231,429.5C 228.959,440.862 227.626,452.528 227,464.5C 226.29,465.973 225.124,466.64 223.5,466.5C 223.336,469.187 223.503,471.854 224,474.5C 225.011,473.663 226.178,473.33 227.5,473.5C 227.5,472.5 227.5,471.5 227.5,470.5C 228.5,470.5 229.5,470.5 230.5,470.5C 230.373,467.755 231.54,465.755 234,464.5C 234.49,463.207 234.657,461.873 234.5,460.5C 235.5,460.5 236.5,460.5 237.5,460.5C 237.5,459.167 237.5,457.833 237.5,456.5C 238.5,456.5 239.5,456.5 240.5,456.5C 240.5,455.5 240.5,454.5 240.5,453.5C 241.833,453.5 243.167,453.5 244.5,453.5C 244.5,452.5 244.5,451.5 244.5,450.5C 245.5,450.5 246.5,450.5 247.5,450.5C 247.5,449.167 247.5,447.833 247.5,446.5C 248.5,446.5 249.5,446.5 250.5,446.5C 250.447,443.939 251.447,441.939 253.5,440.5C 254.495,434.872 254.829,429.206 254.5,423.5C 257.382,423.392 259.715,422.226 261.5,420C 263.473,419.505 265.473,419.338 267.5,419.5C 267.5,418.5 267.5,417.5 267.5,416.5C 270.833,416.5 274.167,416.5 277.5,416.5C 277.167,413.5 278.5,412.167 281.5,412.5C 281.5,411.5 281.5,410.5 281.5,409.5C 282.5,409.5 283.5,409.5 284.5,409.5C 284.5,408.5 284.5,407.5 284.5,406.5C 285.833,406.5 287.167,406.5 288.5,406.5C 288.5,405.167 288.5,403.833 288.5,402.5C 289.5,402.5 290.5,402.5 291.5,402.5C 291.5,401.5 291.5,400.5 291.5,399.5C 292.5,399.5 293.5,399.5 294.5,399.5C 294.5,398.5 294.5,397.5 294.5,396.5C 295.833,396.5 297.167,396.5 298.5,396.5C 298.5,395.167 298.5,393.833 298.5,392.5C 299.5,392.5 300.5,392.5 301.5,392.5C 301.5,391.5 301.5,390.5 301.5,389.5C 302.5,389.5 303.5,389.5 304.5,389.5C 304.167,386.5 305.5,385.167 308.5,385.5C 308.5,384.5 308.5,383.5 308.5,382.5C 309.5,382.5 310.5,382.5 311.5,382.5C 311.5,381.5 311.5,380.5 311.5,379.5C 312.833,379.5 314.167,379.5 315.5,379.5C 315.351,378.448 315.517,377.448 316,376.5C 317.5,375.667 318.667,374.5 319.5,373C 320.448,372.517 321.448,372.351 322.5,372.5C 322.5,371.5 322.5,370.5 322.5,369.5C 325.5,368.167 328.5,366.833 331.5,365.5C 331.5,364.5 331.5,363.5 331.5,362.5C 332.833,362.5 334.167,362.5 335.5,362.5C 335.5,361.167 335.5,359.833 335.5,358.5C 336.5,358.5 337.5,358.5 338.5,358.5C 338.5,357.5 338.5,356.5 338.5,355.5C 339.552,355.649 340.552,355.483 341.5,355C 343.026,349.321 346.692,347.154 352.5,348.5C 352.666,352.846 352.499,357.179 352,361.5C 350.989,362.337 349.822,362.67 348.5,362.5C 348.5,363.5 348.5,364.5 348.5,365.5C 347.5,365.5 346.5,365.5 345.5,365.5C 345.5,366.833 345.5,368.167 345.5,369.5C 344.5,369.5 343.5,369.5 342.5,369.5C 342.5,370.5 342.5,371.5 342.5,372.5C 341.167,372.5 339.833,372.5 338.5,372.5C 338.5,373.5 338.5,374.5 338.5,375.5C 337.5,375.5 336.5,375.5 335.5,375.5C 335.5,376.833 335.5,378.167 335.5,379.5C 334.167,379.5 332.833,379.5 331.5,379.5C 331.5,380.5 331.5,381.5 331.5,382.5C 330.5,382.5 329.5,382.5 328.5,382.5C 328.5,383.5 328.5,384.5 328.5,385.5C 327.5,385.5 326.5,385.5 325.5,385.5C 325.5,386.833 325.5,388.167 325.5,389.5C 324.167,389.5 322.833,389.5 321.5,389.5C 321.5,390.5 321.5,391.5 321.5,392.5C 320.5,392.5 319.5,392.5 318.5,392.5C 318.649,393.552 318.483,394.552 318,395.5C 316.5,396.333 315.333,397.5 314.5,399C 313.552,399.483 312.552,399.649 311.5,399.5C 311.5,400.5 311.5,401.5 311.5,402.5C 310.5,402.5 309.5,402.5 308.5,402.5C 308.5,403.833 308.5,405.167 308.5,406.5C 307.167,406.5 305.833,406.5 304.5,406.5C 304.5,407.5 304.5,408.5 304.5,409.5C 312.507,409.666 320.507,409.5 328.5,409C 336.474,405.708 344.474,405.708 352.5,409C 361.167,409.333 369.833,409.667 378.5,410C 379.931,410.465 381.097,411.299 382,412.5C 382.483,411.552 382.649,410.552 382.5,409.5C 383.5,409.5 384.5,409.5 385.5,409.5C 388.42,402.729 390.92,395.729 393,388.5C 393.71,387.027 394.876,386.36 396.5,386.5C 396.5,384.167 396.5,381.833 396.5,379.5C 397.5,379.5 398.5,379.5 399.5,379.5C 398.876,375.995 399.876,373.162 402.5,371C 403.148,369.56 403.481,368.06 403.5,366.5C 404.5,366.5 405.5,366.5 406.5,366.5C 406.5,365.167 406.5,363.833 406.5,362.5C 407.5,362.5 408.5,362.5 409.5,362.5C 409.5,360.167 409.5,357.833 409.5,355.5C 410.5,355.5 411.5,355.5 412.5,355.5C 412.5,354.5 412.5,353.5 412.5,352.5C 413.833,352.5 415.167,352.5 416.5,352.5C 416.079,349.343 417.245,347.01 420,345.5C 420.483,344.552 420.649,343.552 420.5,342.5C 422.5,342.5 424.5,342.5 426.5,342.5 Z M 392.5,426.5 C 392.5,428.5 392.5,430.5 392.5,432.5C 391.5,432.5 390.5,432.5 389.5,432.5C 390.074,436.267 388.907,439.267 386,441.5C 385.877,448.234 384.71,454.567 382.5,460.5C 383.5,460.5 384.5,460.5 385.5,460.5C 385.338,458.473 385.505,456.473 386,454.5C 387.011,453.663 388.178,453.33 389.5,453.5C 389.5,451.167 389.5,448.833 389.5,446.5C 390.5,446.5 391.5,446.5 392.5,446.5C 392.338,444.473 392.505,442.473 393,440.5C 394.011,439.663 395.178,439.33 396.5,439.5C 396.5,437.5 396.5,435.5 396.5,433.5C 397.5,433.5 398.5,433.5 399.5,433.5C 400.833,427.5 398.5,425.167 392.5,426.5 Z M 206.5,530.5 C 204.15,532.213 203.15,534.547 203.5,537.5C 202.5,537.5 201.5,537.5 200.5,537.5C 201.289,543.026 200.122,548.026 197,552.5C 196.505,554.473 196.338,556.473 196.5,558.5C 197.5,558.5 198.5,558.5 199.5,558.5C 199.833,560.5 200.167,562.5 200.5,564.5C 201.5,564.5 202.5,564.5 203.5,564.5C 202.945,568.584 203.945,569.251 206.5,566.5C 207.825,554.34 207.825,542.34 206.5,530.5 Z"/></g>
<g><path style="opacity:0.131" fill="#f5f5f5" d="M 430.5,349.5 C 431.5,349.5 432.5,349.5 433.5,349.5C 429.304,371.919 421.804,393.252 411,413.5C 408.521,415.917 405.521,416.917 402,416.5C 395.863,417.204 393.863,414.537 396,408.5C 403.953,386.57 415.453,366.904 430.5,349.5 Z M 426.5,355.5 C 426.662,357.527 426.495,359.527 426,361.5C 424.294,362.308 423.461,363.641 423.5,365.5C 422.167,365.5 420.833,365.5 419.5,365.5C 419.662,367.527 419.495,369.527 419,371.5C 417.294,372.308 416.461,373.641 416.5,375.5C 415.167,375.5 413.833,375.5 412.5,375.5C 412.5,377.833 412.5,380.167 412.5,382.5C 411.5,382.5 410.5,382.5 409.5,382.5C 409.5,384.833 409.5,387.167 409.5,389.5C 408.5,389.5 407.5,389.5 406.5,389.5C 406.662,391.527 406.495,393.527 406,395.5C 404.989,396.337 403.822,396.67 402.5,396.5C 402.664,399.187 402.497,401.854 402,404.5C 399.624,407.014 398.957,410.014 400,413.5C 402.74,412.718 405.574,412.218 408.5,412C 409.406,410.301 409.739,408.467 409.5,406.5C 410.5,406.5 411.5,406.5 412.5,406.5C 411.697,402.831 412.864,400.164 416,398.5C 416.484,393.222 417.817,388.222 420,383.5C 421.011,382.663 422.178,382.33 423.5,382.5C 423.335,379.482 423.502,376.482 424,373.5C 425.908,370.397 427.408,367.064 428.5,363.5C 429.48,360.914 429.813,358.247 429.5,355.5C 428.5,355.5 427.5,355.5 426.5,355.5 Z"/></g>
<g><path style="opacity:0.125" fill="#f3f3f3" d="M 477.5,369.5 C 468.827,387.012 459.493,404.179 449.5,421C 445.459,421.827 441.459,421.66 437.5,420.5C 450.314,390.56 467.314,363.393 488.5,339C 489.793,338.51 491.127,338.343 492.5,338.5C 489.353,349.793 484.353,360.127 477.5,369.5 Z M 480.5,355.5 C 480.5,357.833 480.5,360.167 480.5,362.5C 479.5,362.5 478.5,362.5 477.5,362.5C 477.5,364.833 477.5,367.167 477.5,369.5C 476.167,369.5 474.833,369.5 473.5,369.5C 473.657,370.873 473.49,372.207 473,373.5C 471.249,376.67 469.249,379.67 467,382.5C 466.51,383.793 466.343,385.127 466.5,386.5C 465.5,386.5 464.5,386.5 463.5,386.5C 463.5,388.5 463.5,390.5 463.5,392.5C 462.5,392.5 461.5,392.5 460.5,392.5C 460.5,394.833 460.5,397.167 460.5,399.5C 459.167,399.5 457.833,399.5 456.5,399.5C 456.598,404.374 454.765,408.374 451,411.5C 450.506,413.134 450.34,414.801 450.5,416.5C 448.005,417.199 445.672,418.199 443.5,419.5C 443.5,417.167 443.5,414.833 443.5,412.5C 444.5,412.5 445.5,412.5 446.5,412.5C 446.5,410.167 446.5,407.833 446.5,405.5C 447.5,405.5 448.5,405.5 449.5,405.5C 449.435,402.514 450.602,400.18 453,398.5C 453.495,396.527 453.662,394.527 453.5,392.5C 454.5,392.5 455.5,392.5 456.5,392.5C 456.5,390.167 456.5,387.833 456.5,385.5C 457.833,385.5 459.167,385.5 460.5,385.5C 460.614,381.789 461.614,378.455 463.5,375.5C 464.5,375.5 465.5,375.5 466.5,375.5C 466.5,373.5 466.5,371.5 466.5,369.5C 469.5,369.833 470.833,368.5 470.5,365.5C 471.5,365.5 472.5,365.5 473.5,365.5C 473.338,363.473 473.505,361.473 474,359.5C 475.011,358.663 476.178,358.33 477.5,358.5C 477.5,357.5 477.5,356.5 477.5,355.5C 478.5,355.5 479.5,355.5 480.5,355.5 Z M 480.5,355.5 C 481.5,355.5 482.5,355.5 483.5,355.5C 483.657,354.127 483.49,352.793 483,351.5C 481.294,352.308 480.461,353.641 480.5,355.5 Z M 486.5,345.5 C 485.913,346.767 485.913,347.767 486.5,348.5C 487.776,347.386 487.776,346.386 486.5,345.5 Z"/></g>
<g><path style="opacity:0.204" fill="#8a8a8a" d="M 457.5,421.5 C 459.833,422.167 462.167,422.833 464.5,423.5C 461.753,423.813 459.086,423.48 456.5,422.5C 456.624,421.893 456.957,421.56 457.5,421.5 Z"/></g>
<g><path style="opacity:0.14" fill="#efefef" d="M 390.5,424.5 C 394.182,424.335 397.848,424.501 401.5,425C 402.574,425.739 403.241,426.739 403.5,428C 394.964,446.24 385.797,464.074 376,481.5C 375.056,480.737 374.556,479.737 374.5,478.5C 378.292,459.991 383.625,441.991 390.5,424.5 Z M 392.5,426.5 C 392.5,428.5 392.5,430.5 392.5,432.5C 391.5,432.5 390.5,432.5 389.5,432.5C 390.074,436.267 388.907,439.267 386,441.5C 385.877,448.234 384.71,454.567 382.5,460.5C 383.5,460.5 384.5,460.5 385.5,460.5C 385.338,458.473 385.505,456.473 386,454.5C 387.011,453.663 388.178,453.33 389.5,453.5C 389.5,451.167 389.5,448.833 389.5,446.5C 390.5,446.5 391.5,446.5 392.5,446.5C 392.338,444.473 392.505,442.473 393,440.5C 394.011,439.663 395.178,439.33 396.5,439.5C 396.5,437.5 396.5,435.5 396.5,433.5C 397.5,433.5 398.5,433.5 399.5,433.5C 400.833,427.5 398.5,425.167 392.5,426.5 Z"/></g>
<g><path style="opacity:0.139" fill="#f0f0f0" d="M 433.5,429.5 C 437.22,429.564 440.886,430.064 444.5,431C 437.04,444.086 429.707,457.253 422.5,470.5C 421.651,467.19 421.818,463.856 423,460.5C 426.01,449.969 429.51,439.635 433.5,429.5 Z M 435.5,433.5 C 433.609,435.836 433.109,438.502 434,441.5C 435.944,439.127 437.777,436.627 439.5,434C 438.207,433.51 436.873,433.343 435.5,433.5 Z M 431.5,443.5 C 430.318,445.003 429.818,446.67 430,448.5C 430.71,447.027 431.876,446.36 433.5,446.5C 433.715,444.821 433.048,443.821 431.5,443.5 Z"/></g>
<g><path style="opacity:0.117" fill="#f2f2f2" d="M 537.5,497.5 C 536.5,497.5 535.5,497.5 534.5,497.5C 534.5,498.5 534.5,499.5 534.5,500.5C 533.5,500.5 532.5,500.5 531.5,500.5C 531.833,503.5 530.5,504.833 527.5,504.5C 527.5,506.5 527.5,508.5 527.5,510.5C 526.5,510.5 525.5,510.5 524.5,510.5C 524.5,511.833 524.5,513.167 524.5,514.5C 523.167,514.5 521.833,514.5 520.5,514.5C 520.5,515.5 520.5,516.5 520.5,517.5C 519.5,517.5 518.5,517.5 517.5,517.5C 517.5,518.5 517.5,519.5 517.5,520.5C 511.918,521.111 506.252,521.111 500.5,520.5C 500.5,518.5 500.5,516.5 500.5,514.5C 499.5,514.5 498.5,514.5 497.5,514.5C 497.5,515.5 497.5,516.5 497.5,517.5C 496.167,517.5 494.833,517.5 493.5,517.5C 493.5,518.5 493.5,519.5 493.5,520.5C 492.5,520.5 491.5,520.5 490.5,520.5C 490.5,521.833 490.5,523.167 490.5,524.5C 489.5,524.5 488.5,524.5 487.5,524.5C 487.5,525.5 487.5,526.5 487.5,527.5C 486.167,527.5 484.833,527.5 483.5,527.5C 483.5,528.5 483.5,529.5 483.5,530.5C 481.176,530.662 479.509,531.828 478.5,534C 476.866,534.494 475.199,534.66 473.5,534.5C 473.5,535.5 473.5,536.5 473.5,537.5C 472.5,537.5 471.5,537.5 470.5,537.5C 470.5,538.833 470.5,540.167 470.5,541.5C 467.167,542.5 463.833,543.5 460.5,544.5C 460.5,545.5 460.5,546.5 460.5,547.5C 456.725,547.072 453.225,547.739 450,549.5C 447.114,547.775 443.948,547.108 440.5,547.5C 440.167,545.5 439.833,543.5 439.5,541.5C 438.5,541.5 437.5,541.5 436.5,541.5C 436.5,533.5 436.5,525.5 436.5,517.5C 435.5,517.5 434.5,517.5 433.5,517.5C 433.5,519.833 433.5,522.167 433.5,524.5C 432.167,524.5 430.833,524.5 429.5,524.5C 429.665,527.518 429.498,530.518 429,533.5C 427.242,536.772 425.576,540.106 424,543.5C 423.452,547.17 422.952,550.837 422.5,554.5C 421.5,554.5 420.5,554.5 419.5,554.5C 418.26,563.428 417.093,572.428 416,581.5C 415.316,583.359 414.316,585.026 413,586.5C 412.667,594.5 412.333,602.5 412,610.5C 411.333,611.167 410.667,611.833 410,612.5C 409.667,618.833 409.333,625.167 409,631.5C 404.934,632.464 400.767,632.797 396.5,632.5C 397.313,627.539 396.147,623.206 393,619.5C 392.667,612.5 392.333,605.5 392,598.5C 390.956,597.377 390.29,596.044 390,594.5C 389.333,584.833 389.333,575.167 390,565.5C 390.216,563.616 390.883,561.949 392,560.5C 392.333,551.833 392.667,543.167 393,534.5C 393.415,532.709 394.415,531.376 396,530.5C 396.171,525.136 396.671,519.802 397.5,514.5C 398.192,513.975 398.692,513.308 399,512.5C 399.173,508.459 399.673,504.459 400.5,500.5C 401.086,500.291 401.586,499.957 402,499.5C 402.333,495.833 402.667,492.167 403,488.5C 404.011,487.663 405.178,487.33 406.5,487.5C 402.863,502.383 399.697,517.383 397,532.5C 393.757,553.052 392.757,573.719 394,594.5C 394.723,606.231 396.556,617.731 399.5,629C 401.769,629.758 403.936,629.591 406,628.5C 407.711,592.608 415.045,557.942 428,524.5C 431.649,515.196 436.316,506.529 442,498.5C 442.87,499.108 443.37,499.941 443.5,501C 440.634,513.354 439.468,525.854 440,538.5C 442.157,545.339 446.657,547.839 453.5,546C 459.834,542.835 465.834,539.169 471.5,535C 481.368,525.463 491.535,516.297 502,507.5C 502.333,509.833 502.667,512.167 503,514.5C 505.506,519.623 509.339,520.789 514.5,518C 527.152,503.685 538.652,488.518 549,472.5C 550.323,469.941 552.157,469.275 554.5,470.5C 550.888,475.389 548.055,480.723 546,486.5C 537.358,508.06 532.691,530.394 532,553.5C 533.178,569.672 540.678,573.506 554.5,565C 573.708,546.137 591.041,525.803 606.5,504C 620.674,496.079 635.008,488.412 649.5,481C 651.074,480.301 652.407,480.635 653.5,482C 638.535,501.411 625.702,522.244 615,544.5C 605.772,564.635 602.772,585.635 606,607.5C 607.531,616.035 612.531,620.702 621,621.5C 632.61,620.623 640.444,614.789 644.5,604C 644.331,601.833 643.164,600.666 641,600.5C 635.712,607.113 629.212,612.28 621.5,616C 618.692,616.92 616.525,616.087 615,613.5C 609.867,594.555 610.867,575.888 618,557.5C 629.778,527.925 646.111,501.259 667,477.5C 670.066,469.775 667.566,466.608 659.5,468C 645.169,474.22 631.336,481.387 618,489.5C 617.333,487.833 617.333,486.167 618,484.5C 623.735,475.087 629.068,465.421 634,455.5C 635.797,441.65 630.63,438.15 618.5,445C 602.917,457.987 591.083,473.82 583,492.5C 580.486,502.05 583.986,507.55 593.5,509C 585.362,520.106 576.862,530.939 568,541.5C 560.766,549.404 552.933,556.571 544.5,563C 541.472,564.14 539.305,563.306 538,560.5C 537.333,554.833 537.333,549.167 538,543.5C 542.382,512.354 552.715,483.354 569,456.5C 569.869,454.419 570.369,452.253 570.5,450C 570.414,445.251 568.08,443.585 563.5,445C 556.024,452.963 549.024,461.296 542.5,470C 537.216,470.178 531.882,470.845 526.5,472C 518.334,477.323 512.001,484.323 507.5,493C 496.201,502.631 485.201,512.631 474.5,523C 467.521,528.823 460.188,534.156 452.5,539C 450.559,539.743 448.726,539.576 447,538.5C 446.833,535.333 446.667,532.167 446.5,529C 447.786,514.734 449.786,500.567 452.5,486.5C 451.805,482.296 449.471,480.129 445.5,480C 443.667,481.833 441.833,483.667 440,485.5C 421.267,517.027 409.267,551.027 404,587.5C 403.632,588.91 402.799,589.91 401.5,590.5C 400.147,562.736 402.98,535.403 410,508.5C 423.333,483.833 436.667,459.167 450,434.5C 451.244,432.55 453.077,431.55 455.5,431.5C 469.818,432.598 484.151,432.765 498.5,432C 506.508,430.749 514.174,428.415 521.5,425C 525.035,422.162 525.368,418.995 522.5,415.5C 518.63,417.633 514.63,419.466 510.5,421C 495.281,424.238 479.948,425.072 464.5,423.5C 462.167,422.833 459.833,422.167 457.5,421.5C 470.829,398.18 483.663,374.513 496,350.5C 499.098,344.847 500.098,338.847 499,332.5C 497.152,327.584 493.986,326.417 489.5,329C 482.667,334.5 476.5,340.667 471,347.5C 455.012,369.799 441.845,393.799 431.5,419.5C 430.667,419.833 429.833,420.167 429,420.5C 425.849,419.907 422.682,419.407 419.5,419C 418.426,418.261 417.759,417.261 417.5,416C 423.081,403.671 428.248,391.171 433,378.5C 436.409,370.28 438.576,361.78 439.5,353C 440.433,342.407 436.1,338.907 426.5,342.5C 426.5,341.167 426.5,339.833 426.5,338.5C 430.833,338.5 435.167,338.5 439.5,338.5C 439.608,341.382 440.774,343.715 443,345.5C 443.667,350.5 443.667,355.5 443,360.5C 439.899,363.779 438.732,367.779 439.5,372.5C 438.5,372.5 437.5,372.5 436.5,372.5C 436.5,375.833 436.5,379.167 436.5,382.5C 435.5,382.5 434.5,382.5 433.5,382.5C 434.285,386.64 433.119,389.973 430,392.5C 429.503,394.81 429.337,397.143 429.5,399.5C 428.5,399.5 427.5,399.5 426.5,399.5C 427.057,403.634 426.057,407.301 423.5,410.5C 422.844,412.453 422.511,414.453 422.5,416.5C 424.833,416.5 427.167,416.5 429.5,416.5C 429.447,413.939 430.447,411.939 432.5,410.5C 433.474,408.257 433.808,405.924 433.5,403.5C 434.5,403.5 435.5,403.5 436.5,403.5C 436.5,401.167 436.5,398.833 436.5,396.5C 437.5,396.5 438.5,396.5 439.5,396.5C 439.674,394.139 440.007,391.806 440.5,389.5C 441.5,389.5 442.5,389.5 443.5,389.5C 443.5,387.167 443.5,384.833 443.5,382.5C 444.5,382.5 445.5,382.5 446.5,382.5C 445.907,379.404 446.907,377.071 449.5,375.5C 450.506,371.898 451.839,368.565 453.5,365.5C 454.5,365.5 455.5,365.5 456.5,365.5C 455.599,361.759 456.932,359.759 460.5,359.5C 460.5,358.167 460.5,356.833 460.5,355.5C 461.5,355.5 462.5,355.5 463.5,355.5C 463.34,353.801 463.506,352.134 464,350.5C 465.675,349.405 466.842,347.905 467.5,346C 468.448,345.517 469.448,345.351 470.5,345.5C 470.5,344.5 470.5,343.5 470.5,342.5C 471.5,342.5 472.5,342.5 473.5,342.5C 473.5,341.167 473.5,339.833 473.5,338.5C 474.833,338.5 476.167,338.5 477.5,338.5C 478.801,336.328 479.801,333.995 480.5,331.5C 481.5,331.5 482.5,331.5 483.5,331.5C 483.5,330.5 483.5,329.5 483.5,328.5C 484.833,328.5 486.167,328.5 487.5,328.5C 487.5,327.5 487.5,326.5 487.5,325.5C 491.833,325.5 496.167,325.5 500.5,325.5C 500.249,328.909 500.583,332.242 501.5,335.5C 500.932,343.483 499.598,351.149 497.5,358.5C 496.167,358.5 494.833,358.5 493.5,358.5C 493.5,360.833 493.5,363.167 493.5,365.5C 492.5,365.5 491.5,365.5 490.5,365.5C 489.341,369.808 488.008,374.141 486.5,378.5C 485.5,378.5 484.5,378.5 483.5,378.5C 482.495,382.169 481.495,385.836 480.5,389.5C 479.5,389.5 478.5,389.5 477.5,389.5C 477.662,391.527 477.495,393.527 477,395.5C 475.989,396.337 474.822,396.67 473.5,396.5C 473.5,398.5 473.5,400.5 473.5,402.5C 472.5,402.5 471.5,402.5 470.5,402.5C 470.643,404.262 470.309,405.929 469.5,407.5C 465.717,410.614 463.717,414.614 463.5,419.5C 468.896,419.886 473.896,421.219 478.5,423.5C 480.167,423.333 481.833,423.167 483.5,423C 484.716,421.26 486.382,420.26 488.5,420C 498.503,419.766 508.169,418.6 517.5,416.5C 517.33,415.178 517.663,414.011 518.5,413C 521.531,412.505 524.531,412.671 527.5,413.5C 527.5,417.833 527.5,422.167 527.5,426.5C 525.167,426.5 522.833,426.5 520.5,426.5C 520.5,427.5 520.5,428.5 520.5,429.5C 518.167,429.5 515.833,429.5 513.5,429.5C 513.5,430.5 513.5,431.5 513.5,432.5C 502.176,432.712 491.009,434.046 480,436.5C 471.708,433.742 463.208,432.908 454.5,434C 452.537,437.952 450.203,441.785 447.5,445.5C 446.548,447.045 446.215,448.712 446.5,450.5C 445.5,450.5 444.5,450.5 443.5,450.5C 443.5,452.5 443.5,454.5 443.5,456.5C 442.167,456.5 440.833,456.5 439.5,456.5C 439.5,458.833 439.5,461.167 439.5,463.5C 438.5,463.5 437.5,463.5 436.5,463.5C 437.124,467.005 436.124,469.838 433.5,472C 432.852,473.44 432.519,474.94 432.5,476.5C 431.5,476.5 430.5,476.5 429.5,476.5C 428.025,480 427.025,483.667 426.5,487.5C 425.5,487.5 424.5,487.5 423.5,487.5C 423.5,489.5 423.5,491.5 423.5,493.5C 422.167,493.5 420.833,493.5 419.5,493.5C 419.5,495.833 419.5,498.167 419.5,500.5C 418.5,500.5 417.5,500.5 416.5,500.5C 416.662,502.527 416.495,504.527 416,506.5C 414.989,507.337 413.822,507.67 412.5,507.5C 412.998,510.681 412.165,513.347 410,515.5C 409.667,520.833 409.333,526.167 409,531.5C 408.581,532.672 407.915,533.672 407,534.5C 407.382,545.317 405.882,555.817 402.5,566C 402.667,566.5 402.833,567 403,567.5C 403.71,566.027 404.876,565.36 406.5,565.5C 406.335,561.818 406.501,558.152 407,554.5C 407.419,553.328 408.085,552.328 409,551.5C 410.319,545.84 411.652,540.173 413,534.5C 413.368,533.09 414.201,532.09 415.5,531.5C 416.746,526.033 418.246,520.699 420,515.5C 421.011,514.663 422.178,514.33 423.5,514.5C 422.916,511.017 423.749,508.017 426,505.5C 426.333,503.833 426.667,502.167 427,500.5C 428.887,498.974 429.887,496.974 430,494.5C 431.011,493.663 432.178,493.33 433.5,493.5C 433.5,491.5 433.5,489.5 433.5,487.5C 434.5,487.5 435.5,487.5 436.5,487.5C 436.441,484.951 437.441,482.951 439.5,481.5C 441.149,480.852 442.482,479.852 443.5,478.5C 446.446,477.345 449.446,477.179 452.5,478C 452.908,480.908 454.075,483.408 456,485.5C 456.738,488.212 456.071,490.545 454,492.5C 453.667,497.5 453.333,502.5 453,507.5C 452.581,508.672 451.915,509.672 451,510.5C 450.5,518.493 450.334,526.493 450.5,534.5C 452.5,534.5 454.5,534.5 456.5,534.5C 456.5,533.5 456.5,532.5 456.5,531.5C 457.833,531.5 459.167,531.5 460.5,531.5C 460.5,530.167 460.5,528.833 460.5,527.5C 463.833,526.5 467.167,525.5 470.5,524.5C 470.5,523.167 470.5,521.833 470.5,520.5C 471.5,520.5 472.5,520.5 473.5,520.5C 473.5,519.5 473.5,518.5 473.5,517.5C 474.833,517.5 476.167,517.5 477.5,517.5C 477.5,516.5 477.5,515.5 477.5,514.5C 478.5,514.5 479.5,514.5 480.5,514.5C 480.5,513.167 480.5,511.833 480.5,510.5C 481.5,510.5 482.5,510.5 483.5,510.5C 483.5,509.5 483.5,508.5 483.5,507.5C 484.833,507.5 486.167,507.5 487.5,507.5C 487.5,506.5 487.5,505.5 487.5,504.5C 488.5,504.5 489.5,504.5 490.5,504.5C 490.33,503.178 490.663,502.011 491.5,501C 493.851,498.663 496.684,497.163 500,496.5C 500.483,495.552 500.649,494.552 500.5,493.5C 501.833,493.5 503.167,493.5 504.5,493.5C 504.5,492.5 504.5,491.5 504.5,490.5C 505.5,490.5 506.5,490.5 507.5,490.5C 507.338,488.473 507.505,486.473 508,484.5C 509.706,483.692 510.539,482.359 510.5,480.5C 511.833,480.5 513.167,480.5 514.5,480.5C 514.5,479.5 514.5,478.5 514.5,477.5C 515.5,477.5 516.5,477.5 517.5,477.5C 517.5,476.167 517.5,474.833 517.5,473.5C 518.5,473.5 519.5,473.5 520.5,473.5C 520.5,472.5 520.5,471.5 520.5,470.5C 522.833,470.5 525.167,470.5 527.5,470.5C 527.36,468.876 528.027,467.71 529.5,467C 533.592,467.005 537.592,466.838 541.5,466.5C 541.5,465.5 541.5,464.5 541.5,463.5C 542.5,463.5 543.5,463.5 544.5,463.5C 544.5,462.5 544.5,461.5 544.5,460.5C 545.5,460.5 546.5,460.5 547.5,460.5C 547.167,457.5 548.5,456.167 551.5,456.5C 552.111,453.279 553.278,450.279 555,447.5C 556.011,446.663 557.178,446.33 558.5,446.5C 558.5,445.5 558.5,444.5 558.5,443.5C 562.14,442.322 565.807,441.488 569.5,441C 570.479,443.137 571.812,444.971 573.5,446.5C 574.474,448.743 574.808,451.076 574.5,453.5C 573.5,453.5 572.5,453.5 571.5,453.5C 571.252,458.174 570.252,462.507 568.5,466.5C 567.167,466.5 565.833,466.5 564.5,466.5C 564.5,468.833 564.5,471.167 564.5,473.5C 563.5,473.5 562.5,473.5 561.5,473.5C 561.5,475.833 561.5,478.167 561.5,480.5C 560.5,480.5 559.5,480.5 558.5,480.5C 559.211,484.281 558.045,487.281 555,489.5C 554.667,491.833 554.333,494.167 554,496.5C 552.3,500.237 550.467,503.904 548.5,507.5C 547.513,510.768 547.18,514.102 547.5,517.5C 546.5,517.5 545.5,517.5 544.5,517.5C 542.801,526.858 541.801,536.525 541.5,546.5C 541.833,551.5 542.167,556.5 542.5,561.5C 543.695,559.703 545.362,558.703 547.5,558.5C 547.167,555.5 548.5,554.167 551.5,554.5C 551.5,553.5 551.5,552.5 551.5,551.5C 552.5,551.5 553.5,551.5 554.5,551.5C 554.5,550.5 554.5,549.5 554.5,548.5C 557.5,548.833 558.833,547.5 558.5,544.5C 559.5,544.5 560.5,544.5 561.5,544.5C 561.5,543.5 561.5,542.5 561.5,541.5C 562.5,541.5 563.5,541.5 564.5,541.5C 564.167,538.5 565.5,537.167 568.5,537.5C 568.5,536.5 568.5,535.5 568.5,534.5C 569.5,534.5 570.5,534.5 571.5,534.5C 573.242,531.393 574.575,528.059 575.5,524.5C 576.5,524.5 577.5,524.5 578.5,524.5C 579.199,522.005 580.199,519.672 581.5,517.5C 582.822,517.67 583.989,517.337 585,516.5C 586.08,513.386 586.246,510.386 585.5,507.5C 584.167,507.5 582.833,507.5 581.5,507.5C 580.188,504.646 579.188,501.646 578.5,498.5C 580.501,491.282 582.834,484.282 585.5,477.5C 586.5,477.5 587.5,477.5 588.5,477.5C 588.5,476.167 588.5,474.833 588.5,473.5C 589.5,473.5 590.5,473.5 591.5,473.5C 591.5,471.5 591.5,469.5 591.5,467.5C 594.5,467.833 595.833,466.5 595.5,463.5C 596.5,463.5 597.5,463.5 598.5,463.5C 598.079,460.343 599.245,458.01 602,456.5C 602.483,455.552 602.649,454.552 602.5,453.5C 603.5,453.5 604.5,453.5 605.5,453.5C 605.5,452.5 605.5,451.5 605.5,450.5C 606.5,450.5 607.5,450.5 608.5,450.5C 608.351,449.448 608.517,448.448 609,447.5C 610.905,446.842 612.405,445.675 613.5,444C 615.134,443.506 616.801,443.34 618.5,443.5C 618.33,442.178 618.663,441.011 619.5,440C 624.823,439.501 630.156,439.334 635.5,439.5C 635.338,441.527 635.505,443.527 636,445.5C 639.333,448.5 639.333,451.5 636,454.5C 635.502,457.482 635.335,460.482 635.5,463.5C 634.5,463.5 633.5,463.5 632.5,463.5C 632.662,465.527 632.495,467.527 632,469.5C 630.989,470.337 629.822,470.67 628.5,470.5C 628.386,474.211 627.386,477.545 625.5,480.5C 626.833,480.5 628.167,480.5 629.5,480.5C 629.5,479.5 629.5,478.5 629.5,477.5C 631.5,477.5 633.5,477.5 635.5,477.5C 635.33,476.178 635.663,475.011 636.5,474C 638.473,473.505 640.473,473.338 642.5,473.5C 642.5,472.5 642.5,471.5 642.5,470.5C 644.833,470.5 647.167,470.5 649.5,470.5C 649.5,469.5 649.5,468.5 649.5,467.5C 654.747,467.167 659.58,465.834 664,463.5C 665.5,463.667 667,463.833 668.5,464C 674.243,470.447 673.743,476.281 667,481.5C 665.95,484.876 664.45,487.876 662.5,490.5C 661.5,490.5 660.5,490.5 659.5,490.5C 659.338,492.824 658.172,494.491 656,495.5C 655.506,497.134 655.34,498.801 655.5,500.5C 654.5,500.5 653.5,500.5 652.5,500.5C 651.801,502.995 650.801,505.328 649.5,507.5C 648.178,507.33 647.011,507.663 646,508.5C 645.505,510.473 645.338,512.473 645.5,514.5C 644.5,514.5 643.5,514.5 642.5,514.5C 640.298,516.944 639.131,519.944 639,523.5C 637.989,524.337 636.822,524.67 635.5,524.5C 634.341,528.808 633.008,533.141 631.5,537.5C 630.5,537.5 629.5,537.5 628.5,537.5C 628.5,539.833 628.5,542.167 628.5,544.5C 627.5,544.5 626.5,544.5 625.5,544.5C 625.5,546.833 625.5,549.167 625.5,551.5C 624.5,551.5 623.5,551.5 622.5,551.5C 622.663,553.857 622.497,556.19 622,558.5C 619.172,562.243 617.839,566.576 618,571.5C 617.333,572.167 616.667,572.833 616,573.5C 615.167,585.514 615.334,597.514 616.5,609.5C 618.927,611.959 621.927,612.959 625.5,612.5C 625.5,611.167 625.5,609.833 625.5,608.5C 626.833,608.5 628.167,608.5 629.5,608.5C 629.5,607.5 629.5,606.5 629.5,605.5C 630.5,605.5 631.5,605.5 632.5,605.5C 632.5,604.5 632.5,603.5 632.5,602.5C 633.5,602.5 634.5,602.5 635.5,602.5C 635.5,601.167 635.5,599.833 635.5,598.5C 639.637,598.146 643.637,598.646 647.5,600C 648.444,602.719 648.777,605.552 648.5,608.5C 647.5,608.5 646.5,608.5 645.5,608.5C 645.5,609.833 645.5,611.167 645.5,612.5C 644.5,612.5 643.5,612.5 642.5,612.5C 642.5,613.5 642.5,614.5 642.5,615.5C 641.5,615.5 640.5,615.5 639.5,615.5C 639.5,616.5 639.5,617.5 639.5,618.5C 638.167,618.5 636.833,618.5 635.5,618.5C 635.5,619.833 635.5,621.167 635.5,622.5C 630.311,622.081 625.478,623.081 621,625.5C 617.406,624.047 613.573,622.88 609.5,622C 606.75,618.323 605.25,614.157 605,609.5C 603.415,608.624 602.415,607.291 602,605.5C 601.333,595.833 601.333,586.167 602,576.5C 602.098,574.381 602.931,572.714 604.5,571.5C 604.902,563.762 606.402,556.429 609,549.5C 610.011,548.663 611.178,548.33 612.5,548.5C 612.337,546.143 612.503,543.81 613,541.5C 616.035,536.292 618.868,530.959 621.5,525.5C 622.452,523.955 622.785,522.288 622.5,520.5C 623.5,520.5 624.5,520.5 625.5,520.5C 625.5,518.5 625.5,516.5 625.5,514.5C 626.5,514.5 627.5,514.5 628.5,514.5C 629.216,510.8 630.549,507.466 632.5,504.5C 633.5,504.5 634.5,504.5 635.5,504.5C 635.372,502.345 635.872,500.345 637,498.5C 639.904,495.28 642.737,491.947 645.5,488.5C 643.731,487.373 642.397,487.873 641.5,490C 639.527,490.495 637.527,490.662 635.5,490.5C 635.5,491.5 635.5,492.5 635.5,493.5C 633.167,493.5 630.833,493.5 628.5,493.5C 628.5,494.833 628.5,496.167 628.5,497.5C 626.5,497.5 624.5,497.5 622.5,497.5C 622.5,498.5 622.5,499.5 622.5,500.5C 620.167,500.5 617.833,500.5 615.5,500.5C 615.67,501.822 615.337,502.989 614.5,504C 611.374,504.99 608.374,506.156 605.5,507.5C 604.521,511.088 603.188,514.421 601.5,517.5C 600.5,517.5 599.5,517.5 598.5,517.5C 598.5,518.5 598.5,519.5 598.5,520.5C 597.5,520.5 596.5,520.5 595.5,520.5C 595.682,522.591 595.348,524.591 594.5,526.5C 593.675,527.386 592.675,527.719 591.5,527.5C 591.5,528.833 591.5,530.167 591.5,531.5C 590.5,531.5 589.5,531.5 588.5,531.5C 588.5,532.5 588.5,533.5 588.5,534.5C 587.5,534.5 586.5,534.5 585.5,534.5C 582.726,538.59 580.393,542.923 578.5,547.5C 577.167,547.5 575.833,547.5 574.5,547.5C 574.5,548.833 574.5,550.167 574.5,551.5C 573.5,551.5 572.5,551.5 571.5,551.5C 571.5,552.5 571.5,553.5 571.5,554.5C 570.5,554.5 569.5,554.5 568.5,554.5C 568.833,557.5 567.5,558.833 564.5,558.5C 564.5,559.5 564.5,560.5 564.5,561.5C 563.5,561.5 562.5,561.5 561.5,561.5C 561.5,562.5 561.5,563.5 561.5,564.5C 559.41,564.45 558.077,565.45 557.5,567.5C 555.604,568.466 553.604,568.799 551.5,568.5C 551.5,569.5 551.5,570.5 551.5,571.5C 545.833,571.5 540.167,571.5 534.5,571.5C 534.539,569.641 533.706,568.308 532,567.5C 531.667,564.5 531.333,561.5 531,558.5C 528.069,555.704 526.902,552.204 527.5,548C 527.053,543.346 528.22,539.179 531,535.5C 531.172,530.798 531.672,526.132 532.5,521.5C 533.086,521.291 533.586,520.957 534,520.5C 534.128,512.456 535.294,504.79 537.5,497.5 Z M 480.5,355.5 C 480.5,357.833 480.5,360.167 480.5,362.5C 479.5,362.5 478.5,362.5 477.5,362.5C 477.5,364.833 477.5,367.167 477.5,369.5C 476.167,369.5 474.833,369.5 473.5,369.5C 473.657,370.873 473.49,372.207 473,373.5C 471.249,376.67 469.249,379.67 467,382.5C 466.51,383.793 466.343,385.127 466.5,386.5C 465.5,386.5 464.5,386.5 463.5,386.5C 463.5,388.5 463.5,390.5 463.5,392.5C 462.5,392.5 461.5,392.5 460.5,392.5C 460.5,394.833 460.5,397.167 460.5,399.5C 459.167,399.5 457.833,399.5 456.5,399.5C 456.598,404.374 454.765,408.374 451,411.5C 450.506,413.134 450.34,414.801 450.5,416.5C 448.005,417.199 445.672,418.199 443.5,419.5C 443.5,417.167 443.5,414.833 443.5,412.5C 444.5,412.5 445.5,412.5 446.5,412.5C 446.5,410.167 446.5,407.833 446.5,405.5C 447.5,405.5 448.5,405.5 449.5,405.5C 449.435,402.514 450.602,400.18 453,398.5C 453.495,396.527 453.662,394.527 453.5,392.5C 454.5,392.5 455.5,392.5 456.5,392.5C 456.5,390.167 456.5,387.833 456.5,385.5C 457.833,385.5 459.167,385.5 460.5,385.5C 460.614,381.789 461.614,378.455 463.5,375.5C 464.5,375.5 465.5,375.5 466.5,375.5C 466.5,373.5 466.5,371.5 466.5,369.5C 469.5,369.833 470.833,368.5 470.5,365.5C 471.5,365.5 472.5,365.5 473.5,365.5C 473.338,363.473 473.505,361.473 474,359.5C 475.011,358.663 476.178,358.33 477.5,358.5C 477.5,357.5 477.5,356.5 477.5,355.5C 478.5,355.5 479.5,355.5 480.5,355.5 Z M 480.5,355.5 C 481.5,355.5 482.5,355.5 483.5,355.5C 483.657,354.127 483.49,352.793 483,351.5C 481.294,352.308 480.461,353.641 480.5,355.5 Z M 486.5,345.5 C 485.913,346.767 485.913,347.767 486.5,348.5C 487.776,347.386 487.776,346.386 486.5,345.5 Z M 618.5,460.5 C 619.833,460.5 621.167,460.5 622.5,460.5C 622.762,459.022 622.429,457.689 621.5,456.5C 620.066,457.588 619.066,458.922 618.5,460.5 Z M 618.5,460.5 C 616.147,462.101 613.98,464.101 612,466.5C 610.274,468.591 609.107,470.924 608.5,473.5C 607.5,473.5 606.5,473.5 605.5,473.5C 605.649,474.552 605.483,475.552 605,476.5C 601.956,477.803 600.789,480.136 601.5,483.5C 600.5,483.5 599.5,483.5 598.5,483.5C 597.009,487.997 595.342,492.497 593.5,497C 595.134,497.494 596.801,497.66 598.5,497.5C 598.5,496.167 598.5,494.833 598.5,493.5C 599.5,493.5 600.5,493.5 601.5,493.5C 602.479,489.912 603.812,486.579 605.5,483.5C 606.5,483.5 607.5,483.5 608.5,483.5C 607.599,479.759 608.932,477.759 612.5,477.5C 612.738,473.476 613.738,469.81 615.5,466.5C 616.5,466.5 617.5,466.5 618.5,466.5C 618.5,464.5 618.5,462.5 618.5,460.5 Z M 524.5,487.5 C 526.355,487.728 527.188,487.061 527,485.5C 526.005,486.066 525.172,486.733 524.5,487.5 Z M 524.5,487.5 C 522.043,488.735 520.71,490.735 520.5,493.5C 519.5,493.5 518.5,493.5 517.5,493.5C 517.238,494.978 517.571,496.311 518.5,497.5C 518.833,497.333 519.167,497.167 519.5,497C 520.904,493.558 522.571,490.392 524.5,487.5 Z M 537.5,497.5 C 538.822,497.67 539.989,497.337 541,496.5C 541.667,494.5 541.667,492.5 541,490.5C 538.298,492.043 537.132,494.376 537.5,497.5 Z M 436.5,517.5 C 439,515.811 439.833,513.478 439,510.5C 437.175,512.48 436.341,514.813 436.5,517.5 Z"/></g>
<g><path style="opacity:0.115" fill="#f6f6f6" d="M 888.5,443.5 C 891.833,443.5 895.167,443.5 898.5,443.5C 898.5,446.833 898.5,450.167 898.5,453.5C 897.5,453.5 896.5,453.5 895.5,453.5C 895.5,455.833 895.5,458.167 895.5,460.5C 894.5,460.5 893.5,460.5 892.5,460.5C 892.431,463.084 891.265,465.084 889,466.5C 888.51,467.793 888.343,469.127 888.5,470.5C 887.5,470.5 886.5,470.5 885.5,470.5C 884.587,472.835 883.253,475.001 881.5,477C 873.683,479.173 870.85,476.339 873,468.5C 874.892,467.383 875.725,465.716 875.5,463.5C 876.5,463.5 877.5,463.5 878.5,463.5C 878.34,461.801 878.506,460.134 879,458.5C 881.333,456.843 883.333,454.843 885,452.5C 885.495,450.527 885.662,448.527 885.5,446.5C 886.5,446.5 887.5,446.5 888.5,446.5C 888.5,445.5 888.5,444.5 888.5,443.5 Z"/></g>
<g><path style="opacity:0.808" fill="#0f0f0f" d="M 891.5,445.5 C 895.225,445.78 896.392,447.78 895,451.5C 890.443,460.21 884.943,468.21 878.5,475.5C 877.167,474.833 876.167,473.833 875.5,472.5C 880.861,463.483 886.194,454.483 891.5,445.5 Z"/></g>
<g><path style="opacity:0.128" fill="#f2f2f2" d="M 624.5,450.5 C 625.995,450.415 626.995,451.081 627.5,452.5C 620.441,466.953 612.608,480.953 604,494.5C 600.142,498.846 595.308,501.179 589.5,501.5C 589.48,496.866 590.646,492.533 593,488.5C 600.814,473.527 611.314,460.86 624.5,450.5 Z M 618.5,460.5 C 619.833,460.5 621.167,460.5 622.5,460.5C 622.762,459.022 622.429,457.689 621.5,456.5C 620.066,457.588 619.066,458.922 618.5,460.5 Z M 618.5,460.5 C 616.147,462.101 613.98,464.101 612,466.5C 610.274,468.591 609.107,470.924 608.5,473.5C 607.5,473.5 606.5,473.5 605.5,473.5C 605.649,474.552 605.483,475.552 605,476.5C 601.956,477.803 600.789,480.136 601.5,483.5C 600.5,483.5 599.5,483.5 598.5,483.5C 597.009,487.997 595.342,492.497 593.5,497C 595.134,497.494 596.801,497.66 598.5,497.5C 598.5,496.167 598.5,494.833 598.5,493.5C 599.5,493.5 600.5,493.5 601.5,493.5C 602.479,489.912 603.812,486.579 605.5,483.5C 606.5,483.5 607.5,483.5 608.5,483.5C 607.599,479.759 608.932,477.759 612.5,477.5C 612.738,473.476 613.738,469.81 615.5,466.5C 616.5,466.5 617.5,466.5 618.5,466.5C 618.5,464.5 618.5,462.5 618.5,460.5 Z"/></g>
<g><path style="opacity:0.123" fill="#f3f3f3" d="M 757.5,534.5 C 756.167,534.5 754.833,534.5 753.5,534.5C 753.5,535.5 753.5,536.5 753.5,537.5C 752.5,537.5 751.5,537.5 750.5,537.5C 750.5,538.833 750.5,540.167 750.5,541.5C 749.5,541.5 748.5,541.5 747.5,541.5C 744.512,547.435 740.845,552.768 736.5,557.5C 735.5,557.5 734.5,557.5 733.5,557.5C 733.649,558.552 733.483,559.552 733,560.5C 731.5,561.333 730.333,562.5 729.5,564C 726.182,566.312 722.848,568.646 719.5,571C 714.177,571.499 708.844,571.666 703.5,571.5C 703.5,570.5 703.5,569.5 703.5,568.5C 702.167,568.5 700.833,568.5 699.5,568.5C 699.736,565.774 698.903,563.441 697,561.5C 696.168,551.483 696.334,541.483 697.5,531.5C 698.192,530.975 698.692,530.308 699,529.5C 699.333,525.833 699.667,522.167 700,518.5C 703.186,514.448 704.353,509.782 703.5,504.5C 704.5,504.5 705.5,504.5 706.5,504.5C 706.18,501.102 706.513,497.768 707.5,494.5C 709.111,493.68 709.778,492.346 709.5,490.5C 708.5,490.5 707.5,490.5 706.5,490.5C 705.156,493.374 703.99,496.374 703,499.5C 701.989,500.337 700.822,500.67 699.5,500.5C 699.5,501.833 699.5,503.167 699.5,504.5C 698.5,504.5 697.5,504.5 696.5,504.5C 696.5,505.5 696.5,506.5 696.5,507.5C 695.5,507.5 694.5,507.5 693.5,507.5C 692.784,511.2 691.451,514.534 689.5,517.5C 688.5,517.5 687.5,517.5 686.5,517.5C 686.5,518.5 686.5,519.5 686.5,520.5C 682.857,520.478 679.524,521.478 676.5,523.5C 674.361,522.023 672.028,521.023 669.5,520.5C 668.035,517.005 667.035,513.338 666.5,509.5C 666.168,506.679 667.001,504.346 669,502.5C 669.497,499.854 669.664,497.187 669.5,494.5C 670.5,494.5 671.5,494.5 672.5,494.5C 672.318,492.409 672.652,490.409 673.5,488.5C 674.325,487.614 675.325,487.281 676.5,487.5C 676.5,486.167 676.5,484.833 676.5,483.5C 677.5,483.5 678.5,483.5 679.5,483.5C 678.887,480.031 680.221,478.031 683.5,477.5C 683.5,476.5 683.5,475.5 683.5,474.5C 685.308,474.509 686.975,474.009 688.5,473C 691.362,470.74 694.362,468.74 697.5,467C 701.655,466.878 705.655,466.711 709.5,466.5C 709.5,465.5 709.5,464.5 709.5,463.5C 710.833,463.5 712.167,463.5 713.5,463.5C 714.326,460.32 715.659,457.32 717.5,454.5C 718.325,453.614 719.325,453.281 720.5,453.5C 720.5,452.5 720.5,451.5 720.5,450.5C 721.5,450.5 722.5,450.5 723.5,450.5C 723.5,449.167 723.5,447.833 723.5,446.5C 724.5,446.5 725.5,446.5 726.5,446.5C 726.5,445.5 726.5,444.5 726.5,443.5C 727.833,443.5 729.167,443.5 730.5,443.5C 730.5,442.5 730.5,441.5 730.5,440.5C 734.256,440.533 737.589,441.533 740.5,443.5C 740.666,448.844 740.499,454.177 740,459.5C 738.989,460.337 737.822,460.67 736.5,460.5C 736.5,462.5 736.5,464.5 736.5,466.5C 735.5,466.5 734.5,466.5 733.5,466.5C 733.657,467.873 733.49,469.207 733,470.5C 731.29,474.026 729.29,477.359 727,480.5C 725.891,484.917 724.725,489.25 723.5,493.5C 722.5,493.5 721.5,493.5 720.5,493.5C 720.54,496.881 720.207,500.214 719.5,503.5C 718.5,503.5 717.5,503.5 716.5,503.5C 714.387,511.165 713.053,519.165 712.5,527.5C 711.5,527.5 710.5,527.5 709.5,527.5C 709.962,536.273 709.295,544.94 707.5,553.5C 708.232,556.197 709.066,558.864 710,561.5C 711.287,558.855 713.453,557.855 716.5,558.5C 716.5,557.167 716.5,555.833 716.5,554.5C 717.833,554.5 719.167,554.5 720.5,554.5C 720.5,553.5 720.5,552.5 720.5,551.5C 721.5,551.5 722.5,551.5 723.5,551.5C 723.5,550.167 723.5,548.833 723.5,547.5C 724.5,547.5 725.5,547.5 726.5,547.5C 726.5,546.5 726.5,545.5 726.5,544.5C 727.833,544.5 729.167,544.5 730.5,544.5C 730.5,543.5 730.5,542.5 730.5,541.5C 731.5,541.5 732.5,541.5 733.5,541.5C 735.188,538.421 736.521,535.088 737.5,531.5C 738.5,531.5 739.5,531.5 740.5,531.5C 740.5,530.167 740.5,528.833 740.5,527.5C 741.5,527.5 742.5,527.5 743.5,527.5C 743.5,526.5 743.5,525.5 743.5,524.5C 744.833,524.5 746.167,524.5 747.5,524.5C 748.5,521.167 749.5,517.833 750.5,514.5C 751.5,514.5 752.5,514.5 753.5,514.5C 753.167,511.5 754.5,510.167 757.5,510.5C 757.5,509.5 757.5,508.5 757.5,507.5C 758.5,507.5 759.5,507.5 760.5,507.5C 761.425,503.941 762.758,500.607 764.5,497.5C 765.5,497.5 766.5,497.5 767.5,497.5C 767.5,496.167 767.5,494.833 767.5,493.5C 768.5,493.5 769.5,493.5 770.5,493.5C 770.335,490.15 770.502,486.817 771,483.5C 771.667,482.167 772.667,481.167 774,480.5C 774.498,477.183 774.665,473.85 774.5,470.5C 775.5,470.5 776.5,470.5 777.5,470.5C 777.5,467.167 777.5,463.833 777.5,460.5C 778.5,460.5 779.5,460.5 780.5,460.5C 780.335,457.482 780.502,454.482 781,451.5C 782.011,450.663 783.178,450.33 784.5,450.5C 784.335,447.482 784.502,444.482 785,441.5C 787.165,439.347 787.998,436.681 787.5,433.5C 788.5,433.5 789.5,433.5 790.5,433.5C 790.337,431.143 790.503,428.81 791,426.5C 791.368,425.09 792.201,424.09 793.5,423.5C 794.474,421.257 794.808,418.924 794.5,416.5C 795.5,416.5 796.5,416.5 797.5,416.5C 797.5,414.167 797.5,411.833 797.5,409.5C 798.833,409.5 800.167,409.5 801.5,409.5C 801.5,407.167 801.5,404.833 801.5,402.5C 802.5,402.5 803.5,402.5 804.5,402.5C 804.5,400.5 804.5,398.5 804.5,396.5C 805.5,396.5 806.5,396.5 807.5,396.5C 807.5,394.167 807.5,391.833 807.5,389.5C 808.833,389.5 810.167,389.5 811.5,389.5C 811.5,387.167 811.5,384.833 811.5,382.5C 812.5,382.5 813.5,382.5 814.5,382.5C 815.111,379.279 816.278,376.279 818,373.5C 819.011,372.663 820.178,372.33 821.5,372.5C 821.614,368.789 822.614,365.455 824.5,362.5C 825.833,362.5 827.167,362.5 828.5,362.5C 828.5,361.167 828.5,359.833 828.5,358.5C 829.5,358.5 830.5,358.5 831.5,358.5C 831.421,357.07 831.754,355.736 832.5,354.5C 834.984,351.516 837.65,348.682 840.5,346C 845.155,345.501 849.821,345.334 854.5,345.5C 855.539,351.797 855.706,358.13 855,364.5C 854,365.167 853,365.833 852,366.5C 851.879,373.14 850.712,379.474 848.5,385.5C 847.167,385.5 845.833,385.5 844.5,385.5C 845.12,389.302 844.286,392.635 842,395.5C 840.46,400.078 838.96,404.744 837.5,409.5C 836.5,409.5 835.5,409.5 834.5,409.5C 834.66,411.199 834.494,412.866 834,414.5C 830.978,417.654 828.978,421.32 828,425.5C 826.989,426.337 825.822,426.67 824.5,426.5C 824.5,428.833 824.5,431.167 824.5,433.5C 823.5,433.5 822.5,433.5 821.5,433.5C 821.5,435.5 821.5,437.5 821.5,439.5C 820.167,439.5 818.833,439.5 817.5,439.5C 816.975,443.333 815.975,447 814.5,450.5C 813.5,450.5 812.5,450.5 811.5,450.5C 811.5,452.5 811.5,454.5 811.5,456.5C 810.167,456.5 808.833,456.5 807.5,456.5C 807.5,458.833 807.5,461.167 807.5,463.5C 806.5,463.5 805.5,463.5 804.5,463.5C 803.439,466.864 802.439,470.197 801.5,473.5C 800.167,473.5 798.833,473.5 797.5,473.5C 797.5,475.833 797.5,478.167 797.5,480.5C 796.5,480.5 795.5,480.5 794.5,480.5C 795.113,483.969 793.779,485.969 790.5,486.5C 790.5,487.833 790.5,489.167 790.5,490.5C 789.5,490.5 788.5,490.5 787.5,490.5C 787.5,492.833 787.5,495.167 787.5,497.5C 786.5,497.5 785.5,497.5 784.5,497.5C 784.662,499.527 784.495,501.527 784,503.5C 782.989,504.337 781.822,504.67 780.5,504.5C 780.663,506.857 780.497,509.19 780,511.5C 776.542,518.795 774.376,526.462 773.5,534.5C 772.5,534.5 771.5,534.5 770.5,534.5C 770.455,546.072 769.455,557.405 767.5,568.5C 768.5,568.5 769.5,568.5 770.5,568.5C 770.335,565.482 770.502,562.482 771,559.5C 772.011,558.663 773.178,558.33 774.5,558.5C 774.18,555.102 774.513,551.768 775.5,548.5C 777.111,547.68 777.778,546.346 777.5,544.5C 776.5,544.5 775.5,544.5 774.5,544.5C 774.183,541.428 774.516,538.428 775.5,535.5C 777.761,533.204 779.761,530.704 781.5,528C 782.448,527.517 783.448,527.351 784.5,527.5C 784.461,525.641 785.294,524.308 787,523.5C 787.495,521.527 787.662,519.527 787.5,517.5C 788.5,517.5 789.5,517.5 790.5,517.5C 790.338,515.473 790.505,513.473 791,511.5C 792.011,510.663 793.178,510.33 794.5,510.5C 794.5,508.5 794.5,506.5 794.5,504.5C 795.5,504.5 796.5,504.5 797.5,504.5C 797.5,502.167 797.5,499.833 797.5,497.5C 798.833,497.5 800.167,497.5 801.5,497.5C 801.614,493.789 802.614,490.455 804.5,487.5C 805.5,487.5 806.5,487.5 807.5,487.5C 807.338,485.473 807.505,483.473 808,481.5C 809.011,480.663 810.178,480.33 811.5,480.5C 812.561,477.136 813.561,473.803 814.5,470.5C 815.5,470.5 816.5,470.5 817.5,470.5C 817.167,467.5 818.5,466.167 821.5,466.5C 821.5,465.5 821.5,464.5 821.5,463.5C 822.5,463.5 823.5,463.5 824.5,463.5C 824.5,462.5 824.5,461.5 824.5,460.5C 829.167,460.5 833.833,460.5 838.5,460.5C 838.666,463.168 839.666,465.502 841.5,467.5C 839.657,473.237 837.324,478.571 834.5,483.5C 833.5,483.5 832.5,483.5 831.5,483.5C 831.5,485.833 831.5,488.167 831.5,490.5C 830.5,490.5 829.5,490.5 828.5,490.5C 828.5,491.5 828.5,492.5 828.5,493.5C 827.178,493.33 826.011,493.663 825,494.5C 824.505,496.473 824.338,498.473 824.5,500.5C 823.5,500.5 822.5,500.5 821.5,500.5C 821.833,503.5 820.5,504.833 817.5,504.5C 816.771,507.98 815.771,511.314 814.5,514.5C 813.5,514.5 812.5,514.5 811.5,514.5C 811.5,515.5 811.5,516.5 811.5,517.5C 810.167,517.5 808.833,517.5 807.5,517.5C 806.024,520.661 805.024,523.995 804.5,527.5C 803.5,527.5 802.5,527.5 801.5,527.5C 801.833,530.5 800.5,531.833 797.5,531.5C 797.539,533.359 796.706,534.692 795,535.5C 794.505,537.473 794.338,539.473 794.5,541.5C 800.505,542.672 806.505,542.506 812.5,541C 816.672,536.415 821.672,533.082 827.5,531C 828.337,529.989 828.67,528.822 828.5,527.5C 829.5,527.5 830.5,527.5 831.5,527.5C 833.585,522.995 835.918,518.662 838.5,514.5C 839.5,514.5 840.5,514.5 841.5,514.5C 841.5,513.167 841.5,511.833 841.5,510.5C 842.5,510.5 843.5,510.5 844.5,510.5C 844.5,509.5 844.5,508.5 844.5,507.5C 845.833,507.5 847.167,507.5 848.5,507.5C 848.5,506.5 848.5,505.5 848.5,504.5C 849.5,504.5 850.5,504.5 851.5,504.5C 851.5,503.167 851.5,501.833 851.5,500.5C 852.833,500.5 854.167,500.5 855.5,500.5C 856.541,495.106 859.541,491.106 864.5,488.5C 865.429,487.311 865.762,485.978 865.5,484.5C 868.469,483.671 871.469,483.505 874.5,484C 875.127,486.343 876.127,488.51 877.5,490.5C 876.004,495.481 874.004,500.148 871.5,504.5C 870.5,504.5 869.5,504.5 868.5,504.5C 868.5,506.5 868.5,508.5 868.5,510.5C 867.5,510.5 866.5,510.5 865.5,510.5C 863.409,514.91 862.076,519.577 861.5,524.5C 860.5,524.5 859.5,524.5 858.5,524.5C 858.5,527.833 858.5,531.167 858.5,534.5C 857.5,534.5 856.5,534.5 855.5,534.5C 855.5,540.167 855.5,545.833 855.5,551.5C 857.5,551.5 859.5,551.5 861.5,551.5C 861.167,548.5 862.5,547.167 865.5,547.5C 865.5,546.5 865.5,545.5 865.5,544.5C 867.5,544.5 869.5,544.5 871.5,544.5C 871.5,543.5 871.5,542.5 871.5,541.5C 872.833,541.5 874.167,541.5 875.5,541.5C 875.5,540.167 875.5,538.833 875.5,537.5C 876.5,537.5 877.5,537.5 878.5,537.5C 878.5,536.5 878.5,535.5 878.5,534.5C 879.833,534.5 881.167,534.5 882.5,534.5C 882.5,533.5 882.5,532.5 882.5,531.5C 883.5,531.5 884.5,531.5 885.5,531.5C 885.5,530.167 885.5,528.833 885.5,527.5C 886.5,527.5 887.5,527.5 888.5,527.5C 888.5,526.5 888.5,525.5 888.5,524.5C 889.833,524.5 891.167,524.5 892.5,524.5C 892.5,523.167 892.5,521.833 892.5,520.5C 893.5,520.5 894.5,520.5 895.5,520.5C 895.5,519.5 895.5,518.5 895.5,517.5C 896.5,517.5 897.5,517.5 898.5,517.5C 898.5,516.5 898.5,515.5 898.5,514.5C 899.833,514.5 901.167,514.5 902.5,514.5C 902.5,513.167 902.5,511.833 902.5,510.5C 903.5,510.5 904.5,510.5 905.5,510.5C 905.5,509.5 905.5,508.5 905.5,507.5C 906.833,507.5 908.167,507.5 909.5,507.5C 909.5,506.5 909.5,505.5 909.5,504.5C 910.5,504.5 911.5,504.5 912.5,504.5C 914.188,501.421 915.521,498.088 916.5,494.5C 917.5,494.5 918.5,494.5 919.5,494.5C 919.33,493.178 919.663,492.011 920.5,491C 923.482,490.502 926.482,490.335 929.5,490.5C 929.707,493.239 930.707,495.573 932.5,497.5C 930.748,500.672 928.748,503.672 926.5,506.5C 925.571,507.689 925.238,509.022 925.5,510.5C 924.5,510.5 923.5,510.5 922.5,510.5C 922.5,511.833 922.5,513.167 922.5,514.5C 921.5,514.5 920.5,514.5 919.5,514.5C 919.5,515.5 919.5,516.5 919.5,517.5C 918.167,517.5 916.833,517.5 915.5,517.5C 915.5,518.5 915.5,519.5 915.5,520.5C 914.5,520.5 913.5,520.5 912.5,520.5C 912.5,521.833 912.5,523.167 912.5,524.5C 911.5,524.5 910.5,524.5 909.5,524.5C 909.5,525.5 909.5,526.5 909.5,527.5C 908.167,527.5 906.833,527.5 905.5,527.5C 905.5,528.833 905.5,530.167 905.5,531.5C 904.5,531.5 903.5,531.5 902.5,531.5C 902.5,532.5 902.5,533.5 902.5,534.5C 901.167,534.5 899.833,534.5 898.5,534.5C 898.5,535.5 898.5,536.5 898.5,537.5C 897.5,537.5 896.5,537.5 895.5,537.5C 895.5,538.833 895.5,540.167 895.5,541.5C 894.5,541.5 893.5,541.5 892.5,541.5C 892.5,542.5 892.5,543.5 892.5,544.5C 891.167,544.5 889.833,544.5 888.5,544.5C 888.5,545.5 888.5,546.5 888.5,547.5C 887.5,547.5 886.5,547.5 885.5,547.5C 885.67,548.822 885.337,549.989 884.5,551C 881.765,552.915 878.765,554.082 875.5,554.5C 875.833,557.5 874.5,558.833 871.5,558.5C 871.5,559.5 871.5,560.5 871.5,561.5C 869.5,561.5 867.5,561.5 865.5,561.5C 865.5,562.5 865.5,563.5 865.5,564.5C 861.154,564.666 856.821,564.499 852.5,564C 848.389,560.701 844.889,556.868 842,552.5C 841.667,546.833 841.333,541.167 841,535.5C 837.37,539.384 833.203,542.384 828.5,544.5C 828.5,545.5 828.5,546.5 828.5,547.5C 825.404,546.907 823.071,547.907 821.5,550.5C 818.816,550.976 816.483,551.976 814.5,553.5C 808.193,554.664 801.859,554.831 795.5,554C 793.347,551.835 790.681,551.002 787.5,551.5C 786.186,557.383 785.02,563.383 784,569.5C 783.29,570.973 782.124,571.64 780.5,571.5C 780.5,574.833 780.5,578.167 780.5,581.5C 779.5,581.5 778.5,581.5 777.5,581.5C 776.879,588.332 775.713,594.999 774,601.5C 773.804,603.286 772.971,604.619 771.5,605.5C 770.676,608.785 770.176,612.118 770,615.5C 767.729,619.472 766.896,623.806 767.5,628.5C 766.167,628.5 764.833,628.5 763.5,628.5C 763.5,629.833 763.5,631.167 763.5,632.5C 759.167,632.5 754.833,632.5 750.5,632.5C 750.735,623.309 750.402,614.142 749.5,605C 750.239,595.517 750.739,586.017 751,576.5C 751.419,575.328 752.085,574.328 753,573.5C 753.333,567.5 753.667,561.5 754,555.5C 754.26,553.382 755.26,551.716 757,550.5C 757.499,545.177 757.666,539.844 757.5,534.5 Z M 837.5,371.5 C 838.434,372.568 838.768,373.901 838.5,375.5C 837.178,375.33 836.011,375.663 835,376.5C 832.664,383.398 830.331,390.398 828,397.5C 825.347,399.43 824.014,402.096 824,405.5C 822.31,408.385 820.31,411.051 818,413.5C 816.541,416.77 815.374,420.103 814.5,423.5C 813.5,423.5 812.5,423.5 811.5,423.5C 811.5,425.5 811.5,427.5 811.5,429.5C 810.178,429.33 809.011,429.663 808,430.5C 807.505,432.473 807.338,434.473 807.5,436.5C 806.5,436.5 805.5,436.5 804.5,436.5C 803.651,441.197 801.484,445.197 798,448.5C 797.506,446.866 797.34,445.199 797.5,443.5C 798.822,443.67 799.989,443.337 801,442.5C 801.048,439.671 802.048,437.337 804,435.5C 804.498,432.518 804.665,429.518 804.5,426.5C 805.5,426.5 806.5,426.5 807.5,426.5C 807.5,424.167 807.5,421.833 807.5,419.5C 808.833,419.5 810.167,419.5 811.5,419.5C 811.5,417.167 811.5,414.833 811.5,412.5C 812.5,412.5 813.5,412.5 814.5,412.5C 814.5,410.5 814.5,408.5 814.5,406.5C 815.5,406.5 816.5,406.5 817.5,406.5C 817.5,404.167 817.5,401.833 817.5,399.5C 818.833,399.5 820.167,399.5 821.5,399.5C 821.5,397.167 821.5,394.833 821.5,392.5C 822.5,392.5 823.5,392.5 824.5,392.5C 824.34,390.801 824.506,389.134 825,387.5C 827.172,386.491 828.338,384.824 828.5,382.5C 829.5,382.5 830.5,382.5 831.5,382.5C 831.5,380.167 831.5,377.833 831.5,375.5C 832.5,375.5 833.5,375.5 834.5,375.5C 834.5,374.5 834.5,373.5 834.5,372.5C 835.791,372.737 836.791,372.404 837.5,371.5 Z M 689.5,490.5 C 689.5,489.5 689.5,488.5 689.5,487.5C 690.822,487.67 691.989,487.337 693,486.5C 693.49,487.793 693.657,489.127 693.5,490.5C 692.167,490.5 690.833,490.5 689.5,490.5 Z M 689.5,490.5 C 689.934,493.166 688.934,494.333 686.5,494C 687.636,492.855 688.636,491.688 689.5,490.5 Z M 757.5,534.5 C 757.275,532.284 758.108,530.617 760,529.5C 760.494,531.134 760.66,532.801 760.5,534.5C 759.5,534.5 758.5,534.5 757.5,534.5 Z M 766.5,571.5 C 767.797,573.693 767.797,576.027 766.5,578.5C 765.637,576.229 765.637,573.895 766.5,571.5 Z"/></g>
<g><path style="opacity:0.881" fill="#090909" d="M 845.5,346.5 C 850.734,346.753 853.067,349.586 852.5,355C 847.209,377.751 838.709,399.251 827,419.5C 811.667,446.167 796.333,472.833 781,499.5C 772.872,517.341 767.539,536.008 765,555.5C 762.999,570.839 761.332,586.172 760,601.5C 760.333,601.833 760.667,602.167 761,602.5C 766.991,584.527 772.991,566.527 779,548.5C 779.135,545.039 778.801,541.706 778,538.5C 781.038,535.797 783.705,532.797 786,529.5C 795.16,511.844 804.826,494.511 815,477.5C 819.133,472.366 823.633,467.532 828.5,463C 833.132,461.815 836.132,463.481 837.5,468C 831.754,480.991 824.587,493.158 816,504.5C 808.333,514.167 800.667,523.833 793,533.5C 789.647,537.304 789.813,540.804 793.5,544C 802.791,546.836 811.457,545.502 819.5,540C 834.158,527.153 847.325,512.987 859,497.5C 862.864,494.018 866.697,490.685 870.5,487.5C 873.492,487.98 874.659,489.647 874,492.5C 863.211,506.846 855.878,522.846 852,540.5C 851.333,544.5 851.333,548.5 852,552.5C 854.153,554.444 856.653,554.944 859.5,554C 865.5,550 871.5,546 877.5,542C 892.833,526 908.167,510 923.5,494C 926.548,493.365 928.215,494.699 928.5,498C 919.78,509.732 910.113,520.732 899.5,531C 890.833,539 882.167,547 873.5,555C 868.264,559.412 862.264,561.412 855.5,561C 849.833,559.178 846.333,555.344 845,549.5C 844.333,545.5 844.333,541.5 845,537.5C 846.497,531.356 848.164,525.356 850,519.5C 840.896,532.945 829.062,543.111 814.5,550C 806.215,552.787 798.549,551.787 791.5,547C 790.167,546.333 788.833,546.333 787.5,547C 778.267,572.368 770.434,598.202 764,624.5C 761.574,632.984 757.907,633.651 753,626.5C 752.243,620.856 751.743,615.189 751.5,609.5C 753.681,577.333 758.515,545.666 766,514.5C 753.706,531.877 739.873,548.043 724.5,563C 719.412,567.807 713.412,569.807 706.5,569C 704.291,567.127 702.458,564.96 701,562.5C 699.595,554.208 699.262,545.875 700,537.5C 703.64,517.246 709.307,497.579 717,478.5C 718.709,475.582 720.542,472.748 722.5,470C 719.72,469.731 717.554,470.898 716,473.5C 705.632,489.861 693.799,505.027 680.5,519C 677.412,519.847 674.579,519.347 672,517.5C 670.455,512.953 670.121,508.287 671,503.5C 674.774,492.403 680.94,482.903 689.5,475C 695.24,470.8 701.574,469.466 708.5,471C 715.311,463.702 721.644,456.035 727.5,448C 736.949,442.105 740.116,444.605 737,455.5C 721.622,481.598 711.289,509.598 706,539.5C 705.333,546.833 705.333,554.167 706,561.5C 707.808,563.396 709.975,563.896 712.5,563C 722.631,555.203 731.797,546.37 740,536.5C 749.951,522.881 760.284,509.548 771,496.5C 783.041,449.676 802.041,406.01 828,365.5C 832.992,358.344 838.825,352.01 845.5,346.5 Z M 837.5,371.5 C 836.791,372.404 835.791,372.737 834.5,372.5C 834.5,373.5 834.5,374.5 834.5,375.5C 833.5,375.5 832.5,375.5 831.5,375.5C 831.5,377.833 831.5,380.167 831.5,382.5C 830.5,382.5 829.5,382.5 828.5,382.5C 828.338,384.824 827.172,386.491 825,387.5C 824.506,389.134 824.34,390.801 824.5,392.5C 823.5,392.5 822.5,392.5 821.5,392.5C 821.5,394.833 821.5,397.167 821.5,399.5C 820.167,399.5 818.833,399.5 817.5,399.5C 817.5,401.833 817.5,404.167 817.5,406.5C 816.5,406.5 815.5,406.5 814.5,406.5C 814.5,408.5 814.5,410.5 814.5,412.5C 813.5,412.5 812.5,412.5 811.5,412.5C 811.5,414.833 811.5,417.167 811.5,419.5C 810.167,419.5 808.833,419.5 807.5,419.5C 807.5,421.833 807.5,424.167 807.5,426.5C 806.5,426.5 805.5,426.5 804.5,426.5C 804.665,429.518 804.498,432.518 804,435.5C 802.048,437.337 801.048,439.671 801,442.5C 799.989,443.337 798.822,443.67 797.5,443.5C 797.34,445.199 797.506,446.866 798,448.5C 801.484,445.197 803.651,441.197 804.5,436.5C 805.5,436.5 806.5,436.5 807.5,436.5C 807.338,434.473 807.505,432.473 808,430.5C 809.011,429.663 810.178,429.33 811.5,429.5C 811.5,427.5 811.5,425.5 811.5,423.5C 812.5,423.5 813.5,423.5 814.5,423.5C 815.374,420.103 816.541,416.77 818,413.5C 820.31,411.051 822.31,408.385 824,405.5C 824.014,402.096 825.347,399.43 828,397.5C 830.331,390.398 832.664,383.398 835,376.5C 836.011,375.663 837.178,375.33 838.5,375.5C 838.768,373.901 838.434,372.568 837.5,371.5 Z M 689.5,490.5 C 690.833,490.5 692.167,490.5 693.5,490.5C 693.657,489.127 693.49,487.793 693,486.5C 691.989,487.337 690.822,487.67 689.5,487.5C 689.5,488.5 689.5,489.5 689.5,490.5 Z M 689.5,490.5 C 688.636,491.688 687.636,492.855 686.5,494C 688.934,494.333 689.934,493.166 689.5,490.5 Z M 757.5,534.5 C 758.5,534.5 759.5,534.5 760.5,534.5C 760.66,532.801 760.494,531.134 760,529.5C 758.108,530.617 757.275,532.284 757.5,534.5 Z M 766.5,571.5 C 765.637,573.895 765.637,576.229 766.5,578.5C 767.797,576.027 767.797,573.693 766.5,571.5 Z"/></g>
<g><path style="opacity:0.13" fill="#f1f1f1" d="M 843.5,359.5 C 845.344,360.204 845.844,361.537 845,363.5C 829.9,402.04 810.9,438.374 788,472.5C 788.74,464.261 790.74,456.261 794,448.5C 804.498,418.165 819.165,390.165 838,364.5C 839.73,362.598 841.563,360.931 843.5,359.5 Z M 837.5,371.5 C 836.791,372.404 835.791,372.737 834.5,372.5C 834.5,373.5 834.5,374.5 834.5,375.5C 833.5,375.5 832.5,375.5 831.5,375.5C 831.5,377.833 831.5,380.167 831.5,382.5C 830.5,382.5 829.5,382.5 828.5,382.5C 828.338,384.824 827.172,386.491 825,387.5C 824.506,389.134 824.34,390.801 824.5,392.5C 823.5,392.5 822.5,392.5 821.5,392.5C 821.5,394.833 821.5,397.167 821.5,399.5C 820.167,399.5 818.833,399.5 817.5,399.5C 817.5,401.833 817.5,404.167 817.5,406.5C 816.5,406.5 815.5,406.5 814.5,406.5C 814.5,408.5 814.5,410.5 814.5,412.5C 813.5,412.5 812.5,412.5 811.5,412.5C 811.5,414.833 811.5,417.167 811.5,419.5C 810.167,419.5 808.833,419.5 807.5,419.5C 807.5,421.833 807.5,424.167 807.5,426.5C 806.5,426.5 805.5,426.5 804.5,426.5C 804.665,429.518 804.498,432.518 804,435.5C 802.048,437.337 801.048,439.671 801,442.5C 799.989,443.337 798.822,443.67 797.5,443.5C 797.34,445.199 797.506,446.866 798,448.5C 801.484,445.197 803.651,441.197 804.5,436.5C 805.5,436.5 806.5,436.5 807.5,436.5C 807.338,434.473 807.505,432.473 808,430.5C 809.011,429.663 810.178,429.33 811.5,429.5C 811.5,427.5 811.5,425.5 811.5,423.5C 812.5,423.5 813.5,423.5 814.5,423.5C 815.374,420.103 816.541,416.77 818,413.5C 820.31,411.051 822.31,408.385 824,405.5C 824.014,402.096 825.347,399.43 828,397.5C 830.331,390.398 832.664,383.398 835,376.5C 836.011,375.663 837.178,375.33 838.5,375.5C 838.768,373.901 838.434,372.568 837.5,371.5 Z"/></g>
<g><path style="opacity:0.152" fill="#f3f3f3" d="M 355.5,419.5 C 364.34,419.463 373.007,420.63 381.5,423C 382.059,423.725 382.392,424.558 382.5,425.5C 375.178,448.076 369.345,471.076 365,494.5C 338.158,522.668 307.325,545.502 272.5,563C 256.092,569.689 239.092,573.022 221.5,573C 220.299,572.097 219.465,570.931 219,569.5C 218.044,547.449 218.377,525.449 220,503.5C 221.228,499.941 222.894,496.608 225,493.5C 243.67,468.822 263.836,445.322 285.5,423C 308.826,418.8 332.16,417.633 355.5,419.5 Z M 355.5,419.5 C 343.829,419.333 332.162,419.5 320.5,420C 319.833,420.667 319.167,421.333 318.5,422C 309.209,423.15 299.876,423.816 290.5,424C 289.022,426.039 287.022,426.872 284.5,426.5C 284.5,427.5 284.5,428.5 284.5,429.5C 283.5,429.5 282.5,429.5 281.5,429.5C 281.5,430.833 281.5,432.167 281.5,433.5C 280.167,433.5 278.833,433.5 277.5,433.5C 277.5,434.5 277.5,435.5 277.5,436.5C 276.5,436.5 275.5,436.5 274.5,436.5C 270.878,441.647 267.378,446.981 264,452.5C 262.5,453.333 261.333,454.5 260.5,456C 259.552,456.483 258.552,456.649 257.5,456.5C 257.5,457.833 257.5,459.167 257.5,460.5C 256.5,460.5 255.5,460.5 254.5,460.5C 254.5,461.5 254.5,462.5 254.5,463.5C 253.167,463.5 251.833,463.5 250.5,463.5C 250.5,464.5 250.5,465.5 250.5,466.5C 249.5,466.5 248.5,466.5 247.5,466.5C 247.628,468.655 247.128,470.655 246,472.5C 244.127,475.287 242.294,477.954 240.5,480.5C 239.5,480.5 238.5,480.5 237.5,480.5C 235.637,483.569 234.303,486.902 233.5,490.5C 232.5,490.5 231.5,490.5 230.5,490.5C 230.5,491.5 230.5,492.5 230.5,493.5C 229.5,493.5 228.5,493.5 227.5,493.5C 227.643,495.262 227.309,496.929 226.5,498.5C 223.772,500.781 222.772,503.781 223.5,507.5C 222.5,507.5 221.5,507.5 220.5,507.5C 220.5,527.833 220.5,548.167 220.5,568.5C 221.5,568.5 222.5,568.5 223.5,568.5C 223.5,569.5 223.5,570.5 223.5,571.5C 232.15,569.211 241.15,568.044 250.5,568C 251.167,566.667 252.167,565.667 253.5,565C 259.617,563.98 265.617,562.814 271.5,561.5C 271.5,560.5 271.5,559.5 271.5,558.5C 273.833,558.5 276.167,558.5 278.5,558.5C 278.5,557.167 278.5,555.833 278.5,554.5C 280.5,554.5 282.5,554.5 284.5,554.5C 284.5,553.5 284.5,552.5 284.5,551.5C 286.833,551.5 289.167,551.5 291.5,551.5C 291.33,550.178 291.663,549.011 292.5,548C 294.473,547.505 296.473,547.338 298.5,547.5C 298.5,546.5 298.5,545.5 298.5,544.5C 299.5,544.5 300.5,544.5 301.5,544.5C 301.5,543.5 301.5,542.5 301.5,541.5C 303.527,541.662 305.527,541.495 307.5,541C 308.337,539.989 308.67,538.822 308.5,537.5C 309.5,537.5 310.5,537.5 311.5,537.5C 311.5,536.5 311.5,535.5 311.5,534.5C 314.455,532.614 317.789,531.614 321.5,531.5C 321.5,530.167 321.5,528.833 321.5,527.5C 322.833,527.5 324.167,527.5 325.5,527.5C 325.5,526.5 325.5,525.5 325.5,524.5C 326.5,524.5 327.5,524.5 328.5,524.5C 330.37,520.326 333.703,517.993 338.5,517.5C 338.5,516.5 338.5,515.5 338.5,514.5C 339.833,514.5 341.167,514.5 342.5,514.5C 342.5,513.167 342.5,511.833 342.5,510.5C 343.5,510.5 344.5,510.5 345.5,510.5C 345.5,509.5 345.5,508.5 345.5,507.5C 346.5,507.5 347.5,507.5 348.5,507.5C 348.5,506.5 348.5,505.5 348.5,504.5C 349.833,504.5 351.167,504.5 352.5,504.5C 352.5,503.167 352.5,501.833 352.5,500.5C 353.5,500.5 354.5,500.5 355.5,500.5C 355.5,499.5 355.5,498.5 355.5,497.5C 356.833,497.5 358.167,497.5 359.5,497.5C 359.5,496.5 359.5,495.5 359.5,494.5C 360.5,494.5 361.5,494.5 362.5,494.5C 364.35,486.721 365.516,478.721 366,470.5C 367,469.5 368,468.5 369,467.5C 369.984,459.406 371.151,451.406 372.5,443.5C 373.5,443.5 374.5,443.5 375.5,443.5C 375.335,440.15 375.502,436.817 376,433.5C 376.368,432.09 377.201,431.09 378.5,430.5C 379.474,428.257 379.808,425.924 379.5,423.5C 372.112,423.747 364.779,423.247 357.5,422C 356.244,421.583 355.577,420.75 355.5,419.5 Z"/></g>
<g><path style="opacity:0.119" fill="#eeeeee" d="M 532.5,476.5 C 535.838,477.193 536.338,478.86 534,481.5C 527.084,491.916 519.251,501.582 510.5,510.5C 509.359,508.579 509.192,506.579 510,504.5C 514.453,492.564 521.953,483.231 532.5,476.5 Z M 524.5,487.5 C 526.355,487.728 527.188,487.061 527,485.5C 526.005,486.066 525.172,486.733 524.5,487.5 Z M 524.5,487.5 C 522.043,488.735 520.71,490.735 520.5,493.5C 519.5,493.5 518.5,493.5 517.5,493.5C 517.238,494.978 517.571,496.311 518.5,497.5C 518.833,497.333 519.167,497.167 519.5,497C 520.904,493.558 522.571,490.392 524.5,487.5 Z"/></g>
<g><path style="opacity:0.142" fill="#f3f3f3" d="M 698.5,477.5 C 699.833,477.5 701.167,477.5 702.5,477.5C 700.216,482.727 697.383,487.727 694,492.5C 689.06,498.727 683.893,504.727 678.5,510.5C 677.359,508.579 677.192,506.579 678,504.5C 681.955,493.23 688.789,484.23 698.5,477.5 Z M 689.5,490.5 C 690.833,490.5 692.167,490.5 693.5,490.5C 693.657,489.127 693.49,487.793 693,486.5C 691.989,487.337 690.822,487.67 689.5,487.5C 689.5,488.5 689.5,489.5 689.5,490.5 Z M 689.5,490.5 C 688.636,491.688 687.636,492.855 686.5,494C 688.934,494.333 689.934,493.166 689.5,490.5 Z"/></g>
<g><path style="opacity:0.131" fill="#f3f3f3" d="M -0.5,554.5 C -0.5,550.167 -0.5,545.833 -0.5,541.5C 2.55345,547.688 7.55345,550.188 14.5,549C 15.3366,547.989 15.67,546.822 15.5,545.5C 4.69087,544.546 2.52421,539.546 9,530.5C 21.2078,517.642 36.0411,509.309 53.5,505.5C 55.2664,505.434 56.2664,506.268 56.5,508C 44.4611,545.116 32.6278,582.283 21,619.5C 20.3109,620.357 19.4776,621.023 18.5,621.5C 17.1106,616.895 17.7772,612.562 20.5,608.5C 18.9916,605.582 16.8249,604.916 14,606.5C 10.7256,614.528 9.72563,622.862 11,631.5C 13.6534,634.194 16.8201,635.027 20.5,634C 24.2364,629.363 27.0697,624.196 29,618.5C 40.7324,580.303 53.0657,542.303 66,504.5C 66.8333,503.667 67.6667,502.833 68.5,502C 77.0395,500.456 85.5395,500.289 94,501.5C 91.1279,527.043 89.2946,552.709 88.5,578.5C 88.3884,605.667 91.8884,632.334 99,658.5C 100.424,662.793 102.591,666.626 105.5,670C 107.473,670.495 109.473,670.662 111.5,670.5C 107.721,660.058 104.554,649.391 102,638.5C 95.0617,593.456 95.3951,548.456 103,503.5C 106.74,502.206 110.74,501.539 115,501.5C 137.811,503.162 160.644,503.662 183.5,503C 188.056,502.891 192.389,501.891 196.5,500C 198.286,496.573 197.452,494.073 194,492.5C 189.224,493.902 184.391,495.069 179.5,496C 157.148,496.213 134.815,495.546 112.5,494C 110.236,493.764 108.069,493.264 106,492.5C 105.575,488.131 105.908,483.797 107,479.5C 109.209,471.209 111.209,462.876 113,454.5C 120.143,428.24 126.976,401.906 133.5,375.5C 133.456,370.616 131.122,368.449 126.5,369C 124.667,370.833 122.833,372.667 121,374.5C 96.6462,410.875 77.3129,449.875 63,491.5C 61.5,493 60,494.5 58.5,496C 51.7302,497.692 45.0636,499.692 38.5,502C 22.0065,507.889 9.00654,518.055 -0.5,532.5C -0.5,527.833 -0.5,523.167 -0.5,518.5C 1.17028,518.751 2.67028,519.418 4,520.5C 4.48278,519.552 4.64945,518.552 4.5,517.5C 6.67187,516.199 9.00521,515.199 11.5,514.5C 11.5,513.5 11.5,512.5 11.5,511.5C 16.1506,511.158 19.8173,509.158 22.5,505.5C 26.0046,504.843 29.0046,503.343 31.5,501C 33.8098,500.503 36.1432,500.337 38.5,500.5C 38.5,499.5 38.5,498.5 38.5,497.5C 41.8333,497.5 45.1667,497.5 48.5,497.5C 48.5,496.5 48.5,495.5 48.5,494.5C 51.8067,493.949 55.1401,493.616 58.5,493.5C 61.073,489.717 62.4063,485.383 62.5,480.5C 63.5,480.5 64.5,480.5 65.5,480.5C 66.4871,474.84 67.4871,469.173 68.5,463.5C 69.8333,463.5 71.1667,463.5 72.5,463.5C 72.1826,460.428 72.5159,457.428 73.5,454.5C 74.9695,449.668 76.9695,445.001 79.5,440.5C 82.0289,438.937 83.0289,436.604 82.5,433.5C 83.5,433.5 84.5,433.5 85.5,433.5C 85.5,431.167 85.5,428.833 85.5,426.5C 86.5,426.5 87.5,426.5 88.5,426.5C 88.3379,424.473 88.5045,422.473 89,420.5C 90.0113,419.663 91.1779,419.33 92.5,419.5C 93.1419,415.045 94.1419,410.712 95.5,406.5C 96.8333,406.5 98.1667,406.5 99.5,406.5C 99.5,404.167 99.5,401.833 99.5,399.5C 100.5,399.5 101.5,399.5 102.5,399.5C 103.561,396.136 104.561,392.803 105.5,389.5C 106.833,389.5 108.167,389.5 109.5,389.5C 109.338,387.473 109.505,385.473 110,383.5C 111.706,382.692 112.539,381.359 112.5,379.5C 113.5,379.5 114.5,379.5 115.5,379.5C 115.886,375.651 117.22,372.318 119.5,369.5C 120.5,369.5 121.5,369.5 122.5,369.5C 122.33,368.178 122.663,367.011 123.5,366C 126.482,365.502 129.482,365.335 132.5,365.5C 132.167,368.5 133.5,369.833 136.5,369.5C 136.666,374.844 136.499,380.177 136,385.5C 132.965,389.563 131.798,394.229 132.5,399.5C 131.5,399.5 130.5,399.5 129.5,399.5C 129.665,402.85 129.498,406.183 129,409.5C 126.918,413.152 125.918,417.152 126,421.5C 125.29,422.973 124.124,423.64 122.5,423.5C 122.5,427.833 122.5,432.167 122.5,436.5C 121.5,436.5 120.5,436.5 119.5,436.5C 119.5,440.833 119.5,445.167 119.5,449.5C 118.178,449.33 117.011,449.663 116,450.5C 115.667,454.5 115.333,458.5 115,462.5C 114.586,462.957 114.086,463.291 113.5,463.5C 112.672,467.796 112.172,472.129 112,476.5C 111.586,476.957 111.086,477.291 110.5,477.5C 109.508,481.783 109.174,486.116 109.5,490.5C 126.653,491.664 143.819,492.664 161,493.5C 167.833,493.333 174.667,493.167 181.5,493C 182.672,492.581 183.672,491.915 184.5,491C 189.823,490.501 195.156,490.334 200.5,490.5C 200.665,493.85 200.498,497.183 200,500.5C 199.5,501 199,501.5 198.5,502C 192.897,503.787 187.231,505.454 181.5,507C 156.264,504.986 130.93,504.153 105.5,504.5C 103.348,515.271 102.014,526.271 101.5,537.5C 100.808,538.025 100.308,538.692 100,539.5C 99.3333,562.833 99.3333,586.167 100,609.5C 100.667,610.833 101.333,612.167 102,613.5C 102.355,625.4 103.688,637.067 106,648.5C 107,649.167 108,649.833 109,650.5C 109.498,653.482 109.665,656.482 109.5,659.5C 110.5,659.5 111.5,659.5 112.5,659.5C 112.736,663.853 113.57,667.853 115,671.5C 110.934,672.464 106.767,672.797 102.5,672.5C 102.5,671.5 102.5,670.5 102.5,669.5C 101.5,669.5 100.5,669.5 99.5,669.5C 99.5,667.167 99.5,664.833 99.5,662.5C 98.1779,662.67 97.0113,662.337 96,661.5C 96.0923,657.707 95.0923,654.373 93,651.5C 92.6667,646.5 92.3333,641.5 92,636.5C 90.2453,635.33 89.2453,633.663 89,631.5C 88.6667,624.833 88.3333,618.167 88,611.5C 87.1376,609.913 86.4709,608.246 86,606.5C 85.3333,589.167 85.3333,571.833 86,554.5C 88.1647,543.048 89.1647,531.381 89,519.5C 89.0976,517.381 89.9309,515.714 91.5,514.5C 92.487,511.232 92.8204,507.898 92.5,504.5C 84.5,504.5 76.5,504.5 68.5,504.5C 66.6315,509.149 65.4648,514.149 65,519.5C 63.9887,520.337 62.8221,520.67 61.5,520.5C 60.8838,527.6 59.8838,534.6 58.5,541.5C 57.5,541.5 56.5,541.5 55.5,541.5C 55.6646,544.518 55.498,547.518 55,550.5C 53.9887,551.337 52.8221,551.67 51.5,551.5C 51.5,554.833 51.5,558.167 51.5,561.5C 50.5,561.5 49.5,561.5 48.5,561.5C 48.5,564.833 48.5,568.167 48.5,571.5C 47.5,571.5 46.5,571.5 45.5,571.5C 45.6646,574.518 45.498,577.518 45,580.5C 43.9887,581.337 42.8221,581.67 41.5,581.5C 42.0002,585.835 41.1668,589.835 39,593.5C 38.6667,596.833 38.3333,600.167 38,603.5C 34.8985,606.779 33.7318,610.779 34.5,615.5C 33.5,615.5 32.5,615.5 31.5,615.5C 31.5,618.833 31.5,622.167 31.5,625.5C 30.5,625.5 29.5,625.5 28.5,625.5C 28.6621,627.527 28.4955,629.527 28,631.5C 26.9887,632.337 25.8221,632.67 24.5,632.5C 24.5,633.5 24.5,634.5 24.5,635.5C 23.5,635.5 22.5,635.5 21.5,635.5C 21.5,636.5 21.5,637.5 21.5,638.5C 16.3447,639.63 11.8447,638.297 8,634.5C 7.34167,632.2 6.84167,629.867 6.5,627.5C 7.22226,621.164 7.88893,614.831 8.5,608.5C 9.5,608.5 10.5,608.5 11.5,608.5C 11.3573,606.738 11.6906,605.071 12.5,603.5C 16.4454,602.509 20.4454,602.176 24.5,602.5C 24.3354,599.482 24.502,596.482 25,593.5C 25.6891,592.643 26.5224,591.977 27.5,591.5C 28.9353,584.688 30.6019,578.021 32.5,571.5C 33.086,571.291 33.586,570.957 34,570.5C 33.6524,566.113 34.9858,562.447 38,559.5C 39.3333,553.5 40.6667,547.5 42,541.5C 45.0142,538.553 46.3476,534.887 46,530.5C 46.6667,529.833 47.3333,529.167 48,528.5C 48.3333,525.833 48.6667,523.167 49,520.5C 51.2863,517.635 52.1197,514.302 51.5,510.5C 48.1667,510.5 44.8333,510.5 41.5,510.5C 41.67,511.822 41.3366,512.989 40.5,514C 36.4011,515.204 32.4011,516.371 28.5,517.5C 28.5,518.5 28.5,519.5 28.5,520.5C 26.4727,520.338 24.4727,520.505 22.5,521C 21.6634,522.011 21.33,523.178 21.5,524.5C 20.5,524.5 19.5,524.5 18.5,524.5C 18.5,525.5 18.5,526.5 18.5,527.5C 17.1667,527.5 15.8333,527.5 14.5,527.5C 14.5,528.833 14.5,530.167 14.5,531.5C 13.5,531.5 12.5,531.5 11.5,531.5C 11.3354,533.827 10.6687,535.993 9.5,538C 10.3366,539.011 10.67,540.178 10.5,541.5C 12.8333,541.5 15.1667,541.5 17.5,541.5C 18.5732,544.721 18.5732,547.888 17.5,551C 14.6439,551.88 11.8105,552.713 9,553.5C 6.96578,553.646 5.29911,552.98 4,551.5C 2.87099,553.141 1.37099,554.141 -0.5,554.5 Z M 117.5,396.5 C 116.28,398.282 115.614,400.282 115.5,402.5C 114.5,402.5 113.5,402.5 112.5,402.5C 112.5,404.833 112.5,407.167 112.5,409.5C 111.5,409.5 110.5,409.5 109.5,409.5C 109.662,411.527 109.495,413.527 109,415.5C 107.989,416.337 106.822,416.67 105.5,416.5C 105.5,418.5 105.5,420.5 105.5,422.5C 104.5,422.5 103.5,422.5 102.5,422.5C 102.66,424.199 102.494,425.866 102,427.5C 100.065,430.52 98.2321,433.52 96.5,436.5C 95.1869,440.981 93.5202,445.315 91.5,449.5C 88.9711,451.063 87.9711,453.396 88.5,456.5C 87.5,456.5 86.5,456.5 85.5,456.5C 85.6633,458.857 85.4966,461.19 85,463.5C 83.1388,466.175 82.1388,469.175 82,472.5C 80.9887,473.337 79.8221,473.67 78.5,473.5C 77.0209,479.025 76.0209,484.691 75.5,490.5C 81.5368,490.829 87.5368,490.496 93.5,489.5C 95.3077,485.749 96.3077,481.749 96.5,477.5C 97.5,477.5 98.5,477.5 99.5,477.5C 99.3343,473.154 99.501,468.821 100,464.5C 100.414,464.043 100.914,463.709 101.5,463.5C 102.368,455.241 103.868,447.241 106,439.5C 108.877,435.417 110.21,430.75 110,425.5C 110.667,424.833 111.333,424.167 112,423.5C 112.498,420.183 112.665,416.85 112.5,413.5C 113.5,413.5 114.5,413.5 115.5,413.5C 115.335,410.15 115.502,406.817 116,403.5C 116.816,401.375 117.983,399.541 119.5,398C 119.164,396.97 118.497,396.47 117.5,396.5 Z"/></g>
<g><path style="opacity:0.146" fill="#f4f4f4" d="M 123.5,383.5 C 124.622,385.288 124.789,387.288 124,389.5C 114.325,422.2 105.658,455.2 98,488.5C 97.5348,489.931 96.7014,491.097 95.5,492C 87.4914,492.668 79.4914,493.001 71.5,493C 70.9781,492.439 70.6448,491.772 70.5,491C 83.5282,452.778 101.195,416.945 123.5,383.5 Z M 117.5,396.5 C 116.28,398.282 115.614,400.282 115.5,402.5C 114.5,402.5 113.5,402.5 112.5,402.5C 112.5,404.833 112.5,407.167 112.5,409.5C 111.5,409.5 110.5,409.5 109.5,409.5C 109.662,411.527 109.495,413.527 109,415.5C 107.989,416.337 106.822,416.67 105.5,416.5C 105.5,418.5 105.5,420.5 105.5,422.5C 104.5,422.5 103.5,422.5 102.5,422.5C 102.66,424.199 102.494,425.866 102,427.5C 100.065,430.52 98.2321,433.52 96.5,436.5C 95.1869,440.981 93.5202,445.315 91.5,449.5C 88.9711,451.063 87.9711,453.396 88.5,456.5C 87.5,456.5 86.5,456.5 85.5,456.5C 85.6633,458.857 85.4966,461.19 85,463.5C 83.1388,466.175 82.1388,469.175 82,472.5C 80.9887,473.337 79.8221,473.67 78.5,473.5C 77.0209,479.025 76.0209,484.691 75.5,490.5C 81.5368,490.829 87.5368,490.496 93.5,489.5C 95.3077,485.749 96.3077,481.749 96.5,477.5C 97.5,477.5 98.5,477.5 99.5,477.5C 99.3343,473.154 99.501,468.821 100,464.5C 100.414,464.043 100.914,463.709 101.5,463.5C 102.368,455.241 103.868,447.241 106,439.5C 108.877,435.417 110.21,430.75 110,425.5C 110.667,424.833 111.333,424.167 112,423.5C 112.498,420.183 112.665,416.85 112.5,413.5C 113.5,413.5 114.5,413.5 115.5,413.5C 115.335,410.15 115.502,406.817 116,403.5C 116.816,401.375 117.983,399.541 119.5,398C 119.164,396.97 118.497,396.47 117.5,396.5 Z"/></g>
<g><path style="opacity:0.191" fill="#eeeeee" d="M 206.5,522.5 C 207.5,522.5 208.5,522.5 209.5,522.5C 209.667,538.503 209.5,554.503 209,570.5C 206.853,571.476 204.686,571.309 202.5,570C 196.852,565.778 194.518,560.111 195.5,553C 196.687,541.939 200.354,531.772 206.5,522.5 Z M 206.5,530.5 C 204.15,532.213 203.15,534.547 203.5,537.5C 202.5,537.5 201.5,537.5 200.5,537.5C 201.289,543.026 200.122,548.026 197,552.5C 196.505,554.473 196.338,556.473 196.5,558.5C 197.5,558.5 198.5,558.5 199.5,558.5C 199.833,560.5 200.167,562.5 200.5,564.5C 201.5,564.5 202.5,564.5 203.5,564.5C 202.945,568.584 203.945,569.251 206.5,566.5C 207.825,554.34 207.825,542.34 206.5,530.5 Z"/></g>
<g><path style="opacity:0.126" fill="#f7f7f7" d="M 939.5,558.5 C 942.833,558.5 946.167,558.5 949.5,558.5C 949.5,562.833 949.5,567.167 949.5,571.5C 945.089,571.979 940.922,571.312 937,569.5C 936.833,568.333 936.667,567.167 936.5,566C 937.575,563.49 938.575,560.99 939.5,558.5 Z"/></g>
<g><path style="opacity:0.812" fill="#131313" d="M 944.5,559.5 C 946.89,559.685 947.89,561.018 947.5,563.5C 947.275,568.082 945.108,569.749 941,568.5C 940.833,567.667 940.667,566.833 940.5,566C 941.205,563.458 942.539,561.292 944.5,559.5 Z"/></g>
<g><path style="opacity:0.004" fill="#fefffe" d="M 612.5,946.5 C 615.157,946.162 617.49,946.829 619.5,948.5C 621.291,952.547 621.291,956.38 619.5,960C 612.385,962.021 605.552,961.188 599,957.5C 598.333,956.833 598.333,956.167 599,955.5C 600.649,953.35 602.482,951.35 604.5,949.5C 607.384,948.791 610.051,947.791 612.5,946.5 Z"/></g>
<g><path style="opacity:0.004" fill="#fefffe" d="M 471.5,965.5 C 474.807,965.063 477.807,965.73 480.5,967.5C 476.202,970.257 471.535,971.09 466.5,970C 468.063,968.264 469.73,966.764 471.5,965.5 Z"/></g>
</svg>
