<?xml version="1.0" encoding="UTF-8"?>
<!DOCTYPE svg PUBLIC "-//W3C//DTD SVG 1.1//EN" "http://www.w3.org/Graphics/SVG/1.1/DTD/svg11.dtd">
<svg xmlns="http://www.w3.org/2000/svg" version="1.1" width="500px" height="500px" style="shape-rendering:geometricPrecision; text-rendering:geometricPrecision; image-rendering:optimizeQuality; fill-rule:evenodd; clip-rule:evenodd" xmlns:xlink="http://www.w3.org/1999/xlink">
<g><path style="opacity:0.991" fill="#ff8680" d="M 259.5,81.5 C 259.738,83.4044 260.738,84.7377 262.5,85.5C 263.222,85.9175 263.722,86.5842 264,87.5C 264.497,90.146 264.664,92.8127 264.5,95.5C 262.856,95.7135 261.356,95.3802 260,94.5C 259.236,90.6454 257.736,87.1454 255.5,84C 254.551,83.3828 253.718,83.5494 253,84.5C 252.51,85.7932 252.343,87.1266 252.5,88.5C 251.767,86.7056 250.767,85.0389 249.5,83.5C 251.67,82.2515 254.004,81.2515 256.5,80.5C 257.584,80.685 258.584,81.0183 259.5,81.5 Z"/></g>
<g><path style="opacity:0.992" fill="#ff706b" d="M 226.5,95.5 C 225.209,95.7373 224.209,95.404 223.5,94.5C 227.81,90.9167 227.477,87.9167 222.5,85.5C 220.506,88.1498 219.506,91.1498 219.5,94.5C 218.957,94.56 218.624,94.8933 218.5,95.5C 219.602,96.1757 220.602,96.8423 221.5,97.5C 219.631,100.454 220.297,103.287 223.5,106C 224.729,106.781 226.062,107.281 227.5,107.5C 229.765,106.568 231.765,105.235 233.5,103.5C 234.925,101.969 235.591,102.302 235.5,104.5C 233.066,116.216 226.4,119.716 215.5,115C 209.885,109.25 208.052,102.417 210,94.5C 211.393,90.7143 213.059,87.0477 215,83.5C 222.194,79.8438 227.694,81.5105 231.5,88.5C 230.968,91.6906 229.302,94.0239 226.5,95.5 Z M 223.5,94.5 C 221.965,95.3543 220.632,95.3543 219.5,94.5C 219.506,91.1498 220.506,88.1498 222.5,85.5C 227.477,87.9167 227.81,90.9167 223.5,94.5 Z"/></g>
<g><path style="opacity:0.631" fill="#ffbfbd" d="M 259.5,81.5 C 261.262,82.2623 262.262,83.5956 262.5,85.5C 260.738,84.7377 259.738,83.4044 259.5,81.5 Z"/></g>
<g><path style="opacity:0.997" fill="#ff6865" d="M 249.5,83.5 C 250.767,85.0389 251.767,86.7056 252.5,88.5C 253.633,96.4211 253.8,104.421 253,112.5C 252.722,113.416 252.222,114.082 251.5,114.5C 250.609,115.11 249.609,115.443 248.5,115.5C 246.549,115.773 245.049,115.107 244,113.5C 243.808,103.786 243.308,94.1195 242.5,84.5C 243.348,83.0089 244.681,82.3422 246.5,82.5C 247.726,82.5195 248.726,82.8529 249.5,83.5 Z"/></g>
<g><path style="opacity:0.994" fill="#ff6e6a" d="M 323.5,107.5 C 324.299,110.43 324.632,113.43 324.5,116.5C 324.634,118.292 324.301,119.958 323.5,121.5C 322.402,122.601 322.235,123.934 323,125.5C 323.717,124.956 324.217,124.289 324.5,123.5C 327.472,117.878 330.805,112.545 334.5,107.5C 336.048,107.821 336.715,108.821 336.5,110.5C 332.707,118.959 327.707,126.625 321.5,133.5C 319.435,133.483 317.435,133.15 315.5,132.5C 314.102,131.223 313.436,129.557 313.5,127.5C 313.84,125.488 314.173,123.488 314.5,121.5C 315.634,119.034 315.801,116.367 315,113.5C 314.283,114.044 313.783,114.711 313.5,115.5C 311.277,119.736 308.611,123.736 305.5,127.5C 304.675,128.386 303.675,128.719 302.5,128.5C 302.167,127.5 301.5,126.833 300.5,126.5C 298.286,125.608 297.286,123.942 297.5,121.5C 299.624,109.177 302.29,97.0101 305.5,85C 308.879,82.7222 311.712,83.2222 314,86.5C 314.667,89.8333 314.667,93.1667 314,96.5C 312.64,102.596 311.307,108.596 310,114.5C 312.463,111.035 315.296,107.869 318.5,105C 320.435,105.058 322.102,105.891 323.5,107.5 Z"/></g>
<g><path style="opacity:0.894" fill="#ffafab" d="M 190.5,92.5 C 187.482,92.7038 184.482,93.0371 181.5,93.5C 184.373,91.5185 187.373,91.1851 190.5,92.5 Z"/></g>
<g><path style="opacity:0.994" fill="#ff6f6b" d="M 190.5,92.5 C 195.254,93.6179 196.754,96.6179 195,101.5C 194.623,102.942 193.79,103.942 192.5,104.5C 191.167,104.5 190.5,103.833 190.5,102.5C 191.467,98.1486 189.8,95.8153 185.5,95.5C 185.5,99.1667 185.5,102.833 185.5,106.5C 185.792,107.874 186.125,109.207 186.5,110.5C 187.833,111.167 188.833,112.167 189.5,113.5C 189.821,115.048 190.821,115.715 192.5,115.5C 197.85,115.495 201.183,112.828 202.5,107.5C 203.404,108.209 203.737,109.209 203.5,110.5C 204.089,119.359 200.256,125.026 192,127.5C 189.889,127.299 188.055,126.633 186.5,125.5C 186.027,124.094 185.027,123.427 183.5,123.5C 183.5,121.5 182.5,120.5 180.5,120.5C 177.874,116.858 176.541,112.691 176.5,108C 176.837,104.477 177.337,100.977 178,97.5C 178.498,95.4556 179.665,94.1223 181.5,93.5C 184.482,93.0371 187.482,92.7038 190.5,92.5 Z"/></g>
<g><path style="opacity:0.918" fill="#ffa19d" d="M 219.5,94.5 C 220.632,95.3543 221.965,95.3543 223.5,94.5C 224.209,95.404 225.209,95.7373 226.5,95.5C 225.07,96.5375 223.403,97.2041 221.5,97.5C 220.602,96.8423 219.602,96.1757 218.5,95.5C 218.624,94.8933 218.957,94.56 219.5,94.5 Z"/></g>
<g><path style="opacity:0.957" fill="#ffaca7" d="M 235.5,104.5 C 235.591,102.302 234.925,101.969 233.5,103.5C 233.627,99.7541 235.294,98.4207 238.5,99.5C 237.725,101.396 236.725,103.063 235.5,104.5 Z"/></g>
<g><path style="opacity:0.914" fill="#ff9792" d="M 190.5,102.5 C 190.5,103.833 191.167,104.5 192.5,104.5C 190.5,106.5 188.5,108.5 186.5,110.5C 186.125,109.207 185.792,107.874 185.5,106.5C 187.389,105.396 189.055,104.063 190.5,102.5 Z"/></g>
<g><path style="opacity:0.663" fill="#ffaaa9" d="M 203.5,110.5 C 203.737,109.209 203.404,108.209 202.5,107.5C 203.294,104.848 203.96,105.015 204.5,108C 204.472,109.07 204.139,109.903 203.5,110.5 Z"/></g>
<g><path style="opacity:0.994" fill="#ff7974" d="M 169.5,114.5 C 169.427,116.027 170.094,117.027 171.5,117.5C 175.919,122.263 179.586,127.597 182.5,133.5C 181.754,134.736 181.421,136.07 181.5,137.5C 178.491,137.577 176.324,136.244 175,133.5C 169.67,125.345 164.17,117.345 158.5,109.5C 157.5,108.833 156.5,108.167 155.5,107.5C 161.517,106.507 166.184,108.84 169.5,114.5 Z"/></g>
<g><path style="opacity:0.953" fill="#ffa39d" d="M 336.5,110.5 C 336.715,108.821 336.048,107.821 334.5,107.5C 335.287,105.896 336.62,105.229 338.5,105.5C 338.598,107.553 337.931,109.22 336.5,110.5 Z"/></g>
<g><path style="opacity:0.827" fill="#ffb9b7" d="M 155.5,107.5 C 156.5,108.167 157.5,108.833 158.5,109.5C 154.2,109.815 152.533,112.149 153.5,116.5C 152.833,114.833 152.167,113.167 151.5,111.5C 151.833,109.167 153.167,107.833 155.5,107.5 Z"/></g>
<g><path style="opacity:0.995" fill="#ff7b76" d="M 267.5,108.5 C 274.145,107.977 275.811,110.477 272.5,116C 266.785,116.401 265.119,113.901 267.5,108.5 Z"/></g>
<g><path style="opacity:0.365" fill="#ffbcba" d="M 323.5,107.5 C 324.117,107.611 324.617,107.944 325,108.5C 325.801,111.367 325.634,114.034 324.5,116.5C 324.632,113.43 324.299,110.43 323.5,107.5 Z"/></g>
<g><path style="opacity:0.996" fill="#ff6a66" d="M 151.5,111.5 C 152.167,113.167 152.833,114.833 153.5,116.5C 160.361,122.55 165.028,130.05 167.5,139C 167.27,144.859 164.27,147.192 158.5,146C 151.365,136.864 145.032,127.197 139.5,117C 141.691,113.565 144.691,112.399 148.5,113.5C 149.209,114.404 150.209,114.737 151.5,114.5C 151.5,113.5 151.5,112.5 151.5,111.5 Z"/></g>
<g><path style="opacity:0.094" fill="#ffd9d9" d="M 151.5,111.5 C 151.5,112.5 151.5,113.5 151.5,114.5C 150.209,114.737 149.209,114.404 148.5,113.5C 149.778,113.218 150.778,112.551 151.5,111.5 Z"/></g>
<g><path style="opacity:0.827" fill="#ffb3af" d="M 189.5,113.5 C 190.71,113.932 191.71,114.599 192.5,115.5C 190.821,115.715 189.821,115.048 189.5,113.5 Z"/></g>
<g><path style="opacity:0.031" fill="#ffd7d7" d="M 251.5,114.5 C 250.947,116.552 249.947,116.885 248.5,115.5C 249.609,115.443 250.609,115.11 251.5,114.5 Z"/></g>
<g><path style="opacity:0.31" fill="#ffcbc9" d="M 169.5,114.5 C 170.906,114.973 171.573,115.973 171.5,117.5C 170.094,117.027 169.427,116.027 169.5,114.5 Z"/></g>
<g><path style="opacity:0.925" fill="#ff918d" d="M 358.5,119.5 C 354.192,118.35 349.859,118.35 345.5,119.5C 349.194,117.588 353.194,117.088 357.5,118C 358.056,118.383 358.389,118.883 358.5,119.5 Z"/></g>
<g><path style="opacity:0.992" fill="#ff706c" d="M 358.5,119.5 C 358.427,121.027 359.094,122.027 360.5,122.5C 363.109,125.959 363.109,129.459 360.5,133C 356.141,135.026 352.141,134.526 348.5,131.5C 349.209,130.596 350.209,130.263 351.5,130.5C 355.884,130.601 358.05,128.601 358,124.5C 357.439,123.978 356.772,123.645 356,123.5C 353.367,124.644 350.867,125.977 348.5,127.5C 346.878,128.122 345.545,129.122 344.5,130.5C 340.322,139.811 343.322,144.144 353.5,143.5C 354.338,143.842 354.672,144.508 354.5,145.5C 334.353,152.847 327.52,146.513 334,126.5C 337.173,123.001 341.006,120.667 345.5,119.5C 349.859,118.35 354.192,118.35 358.5,119.5 Z M 351.5,130.5 C 350.306,129.728 349.306,128.728 348.5,127.5C 350.867,125.977 353.367,124.644 356,123.5C 356.772,123.645 357.439,123.978 358,124.5C 358.05,128.601 355.884,130.601 351.5,130.5 Z"/></g>
<g><path style="opacity:0.702" fill="#ffc0bd" d="M 180.5,120.5 C 182.5,120.5 183.5,121.5 183.5,123.5C 182.167,122.833 181.167,121.833 180.5,120.5 Z"/></g>
<g><path style="opacity:0.718" fill="#ffa3a2" d="M 314.5,121.5 C 314.795,119.265 314.461,117.265 313.5,115.5C 313.783,114.711 314.283,114.044 315,113.5C 315.801,116.367 315.634,119.034 314.5,121.5 Z"/></g>
<g><path style="opacity:0.69" fill="#ffb4b1" d="M 358.5,119.5 C 359.906,119.973 360.573,120.973 360.5,122.5C 359.094,122.027 358.427,121.027 358.5,119.5 Z"/></g>
<g><path style="opacity:0.327" fill="#ffc5c5" d="M 323.5,121.5 C 323.328,122.492 323.662,123.158 324.5,123.5C 324.217,124.289 323.717,124.956 323,125.5C 322.235,123.934 322.402,122.601 323.5,121.5 Z"/></g>
<g><path style="opacity:0.392" fill="#ffc0be" d="M 183.5,123.5 C 185.027,123.427 186.027,124.094 186.5,125.5C 184.973,125.573 183.973,124.906 183.5,123.5 Z"/></g>
<g><path style="opacity:0.963" fill="#ff8e89" d="M 127.5,125.5 C 131.019,125.187 132.353,126.52 131.5,129.5C 127.803,130.47 126.47,129.137 127.5,125.5 Z"/></g>
<g><path style="opacity:0.004" fill="#ffd6d5" d="M 300.5,126.5 C 301.5,126.833 302.167,127.5 302.5,128.5C 301.167,128.5 300.5,127.833 300.5,126.5 Z"/></g>
<g><path style="opacity:0.867" fill="#ffa39e" d="M 348.5,127.5 C 349.306,128.728 350.306,129.728 351.5,130.5C 350.209,130.263 349.209,130.596 348.5,131.5C 347.167,131.167 345.833,130.833 344.5,130.5C 345.545,129.122 346.878,128.122 348.5,127.5 Z"/></g>
<g><path style="opacity:0.997" fill="#ff6f6a" d="M 348.5,158.5 C 350.167,157.5 351.5,156.167 352.5,154.5C 357.811,148.985 363.811,144.152 370.5,140C 375.833,136.667 381.167,133.333 386.5,130C 387.5,129.333 388.5,129.333 389.5,130C 390.61,132.737 390.777,135.571 390,138.5C 385.958,142.71 381.792,146.71 377.5,150.5C 383.941,160.68 381.607,168.18 370.5,173C 362.97,174.94 357.304,172.607 353.5,166C 348.897,164.975 347.23,162.475 348.5,158.5 Z M 377.5,159.5 C 376.094,159.973 375.427,160.973 375.5,162.5C 371.064,166.487 366.064,167.653 360.5,166C 359.549,165.282 359.383,164.449 360,163.5C 364.978,160.184 369.645,156.517 374,152.5C 376.238,154.309 377.405,156.642 377.5,159.5 Z"/></g>
<g><path style="opacity:0.997" fill="#ff746f" d="M 133.5,135.5 C 133.433,134.041 133.766,132.708 134.5,131.5C 134.56,130.957 134.893,130.624 135.5,130.5C 137.63,131.467 139.63,132.634 141.5,134C 145.578,138.749 150.245,142.749 155.5,146C 157.475,149.739 156.475,151.906 152.5,152.5C 149.972,152.237 147.639,151.404 145.5,150C 141.956,146.625 138.623,143.125 135.5,139.5C 134.37,138.378 133.703,137.044 133.5,135.5 Z"/></g>
<g><path style="opacity:0.941" fill="#ffa4a0" d="M 134.5,131.5 C 133.766,132.708 133.433,134.041 133.5,135.5C 130.782,133.577 131.116,132.244 134.5,131.5 Z"/></g>
<g><path style="opacity:0.247" fill="#ffc7c6" d="M 315.5,132.5 C 317.435,133.15 319.435,133.483 321.5,133.5C 320.903,134.139 320.07,134.472 319,134.5C 317.301,134.613 316.134,133.947 315.5,132.5 Z"/></g>
<g><path style="opacity:0.894" fill="#ffb0aa" d="M 353.5,143.5 C 354.849,142.203 356.182,142.37 357.5,144C 356.756,145.039 355.756,145.539 354.5,145.5C 354.672,144.508 354.338,143.842 353.5,143.5 Z"/></g>
<g><path style="opacity:0.992" fill="#ff716d" d="M 141.5,178.5 C 141.842,177.662 142.508,177.328 143.5,177.5C 145.833,177.5 148.167,177.5 150.5,177.5C 150.747,175.142 150.081,173.142 148.5,171.5C 148.027,170.094 147.027,169.427 145.5,169.5C 144.833,166.833 143.167,165.167 140.5,164.5C 136.508,165.497 132.508,166.497 128.5,167.5C 120.539,166.047 116.372,161.38 116,153.5C 116.383,152.944 116.883,152.611 117.5,152.5C 118.906,152.027 119.573,151.027 119.5,149.5C 120.343,147.827 121.676,146.66 123.5,146C 138.763,147.071 149.93,154.571 157,168.5C 156.798,179.518 151.632,182.851 141.5,178.5 Z M 122.5,152.5 C 126.432,152.26 129.266,153.927 131,157.5C 132.009,159.025 132.509,160.692 132.5,162.5C 128.239,163.685 124.739,162.352 122,158.5C 121.322,156.402 121.489,154.402 122.5,152.5 Z"/></g>
<g><path style="opacity:0.678" fill="#ffb5b3" d="M 119.5,149.5 C 119.573,151.027 118.906,152.027 117.5,152.5C 117.427,150.973 118.094,149.973 119.5,149.5 Z"/></g>
<g><path style="opacity:0.643" fill="#ffb5b3" d="M 352.5,154.5 C 351.5,156.167 350.167,157.5 348.5,158.5C 348.833,156.167 350.167,154.833 352.5,154.5 Z"/></g>
<g><path style="opacity:0.482" fill="#ffb9b7" d="M 377.5,159.5 C 377.573,161.027 376.906,162.027 375.5,162.5C 375.427,160.973 376.094,159.973 377.5,159.5 Z"/></g>
<g><path style="opacity:0.749" fill="#ffc0bd" d="M 140.5,164.5 C 143.167,165.167 144.833,166.833 145.5,169.5C 143.5,168.167 141.833,166.5 140.5,164.5 Z"/></g>
<g><path style="opacity:0.991" fill="#ff7873" d="M 129.5,182.5 C 129.027,181.094 128.027,180.427 126.5,180.5C 118.536,176.899 110.536,173.233 102.5,169.5C 101.817,169.863 101.15,170.196 100.5,170.5C 99.6618,170.158 99.3284,169.492 99.5,168.5C 100.392,166.286 102.058,165.286 104.5,165.5C 114.694,168.063 124.36,171.897 133.5,177C 135.113,179.228 135.78,181.728 135.5,184.5C 133.102,184.741 131.102,184.074 129.5,182.5 Z"/></g>
<g><path style="opacity:0.486" fill="#ffb5b3" d="M 145.5,169.5 C 147.027,169.427 148.027,170.094 148.5,171.5C 146.973,171.573 145.973,170.906 145.5,169.5 Z"/></g>
<g><path style="opacity:0.612" fill="#ffa09f" d="M 99.5,168.5 C 99.3284,169.492 99.6618,170.158 100.5,170.5C 99.962,172.117 99.6287,173.784 99.5,175.5C 98.8333,176.167 98.1667,176.833 97.5,177.5C 97.0679,174.123 97.7345,171.123 99.5,168.5 Z"/></g>
<g><path style="opacity:0.998" fill="#ff6966" d="M 99.5,175.5 C 107.873,178.521 115.54,182.855 122.5,188.5C 122.427,190.027 123.094,191.027 124.5,191.5C 125.905,193.225 126.405,195.225 126,197.5C 124.255,198.956 122.422,200.289 120.5,201.5C 109.8,196.735 99.6338,191.068 90,184.5C 90.35,179.986 92.85,177.653 97.5,177.5C 98.1667,176.833 98.8333,176.167 99.5,175.5 Z"/></g>
<g><path style="opacity:0.855" fill="#ff9d9a" d="M 143.5,177.5 C 142.508,177.328 141.842,177.662 141.5,178.5C 139.692,178.509 138.025,178.009 136.5,177C 138.941,175.309 141.274,175.475 143.5,177.5 Z"/></g>
<g><path style="opacity:0.408" fill="#ffc4c2" d="M 126.5,180.5 C 128.027,180.427 129.027,181.094 129.5,182.5C 127.973,182.573 126.973,181.906 126.5,180.5 Z"/></g>
<g><path style="opacity:0.694" fill="#ffb9b6" d="M 122.5,188.5 C 123.906,188.973 124.573,189.973 124.5,191.5C 123.094,191.027 122.427,190.027 122.5,188.5 Z"/></g>
<g><path style="opacity:0.998" fill="#ff6d69" d="M 389.5,190.5 C 388.9,191.9 387.9,192.9 386.5,193.5C 382.601,194.046 381.268,196.046 382.5,199.5C 383,199.833 383.5,200.167 384,200.5C 386.154,199.726 388.321,199.059 390.5,198.5C 392.322,198.169 393.989,197.502 395.5,196.5C 401.717,194.591 408.05,193.425 414.5,193C 416.994,195.423 416.994,197.756 414.5,200C 402.399,205.367 389.899,209.534 377,212.5C 373.681,212.212 370.515,211.379 367.5,210C 366.2,208.421 366.534,207.255 368.5,206.5C 370.38,206.771 371.713,206.104 372.5,204.5C 372.842,203.662 373.508,203.328 374.5,203.5C 376.369,201.365 377.036,198.698 376.5,195.5C 376.738,192.852 378.072,191.018 380.5,190C 383.696,189.195 386.696,189.362 389.5,190.5 Z M 386.5,193.5 C 389.084,193.569 391.084,194.735 392.5,197C 391.584,197.278 390.918,197.778 390.5,198.5C 388.321,199.059 386.154,199.726 384,200.5C 383.5,200.167 383,199.833 382.5,199.5C 381.268,196.046 382.601,194.046 386.5,193.5 Z"/></g>
<g><path style="opacity:0.904" fill="#ff8e89" d="M 389.5,190.5 C 391.833,192.167 393.833,194.167 395.5,196.5C 393.989,197.502 392.322,198.169 390.5,198.5C 390.918,197.778 391.584,197.278 392.5,197C 391.084,194.735 389.084,193.569 386.5,193.5C 387.9,192.9 388.9,191.9 389.5,190.5 Z"/></g>
<g><path style="opacity:0.529" fill="#ffc3c3" d="M 376.5,195.5 C 377.036,198.698 376.369,201.365 374.5,203.5C 375.078,200.72 375.745,198.053 376.5,195.5 Z"/></g>
<g><path style="opacity:0.995" fill="#ff716c" d="M 95.5,202.5 C 95.427,204.027 96.0937,205.027 97.5,205.5C 99.059,208.868 99.8923,212.535 100,216.5C 109.6,217.392 112.434,213.392 108.5,204.5C 108.842,203.662 109.508,203.328 110.5,203.5C 116.606,208.04 119.106,214.04 118,221.5C 112.089,228.672 104.922,230.339 96.5,226.5C 96.0269,225.094 95.0269,224.427 93.5,224.5C 86.4494,221.39 83.2828,216.057 84,208.5C 86.2346,203.134 90.068,201.134 95.5,202.5 Z M 96.5,210.5 C 96.8432,212.483 96.1765,213.817 94.5,214.5C 91.9108,213.581 89.9108,211.914 88.5,209.5C 91.5782,205.514 94.2449,205.848 96.5,210.5 Z"/></g>
<g><path style="opacity:0.841" fill="#ffa6a1" d="M 110.5,203.5 C 109.508,203.328 108.842,203.662 108.5,204.5C 105.915,203.535 105.415,202.201 107,200.5C 108.642,200.978 109.809,201.978 110.5,203.5 Z"/></g>
<g><path style="opacity:0.369" fill="#ffc1bf" d="M 95.5,202.5 C 96.9063,202.973 97.573,203.973 97.5,205.5C 96.0937,205.027 95.427,204.027 95.5,202.5 Z"/></g>
<g><path style="opacity:0.18" fill="#ffd3d2" d="M 372.5,204.5 C 371.713,206.104 370.38,206.771 368.5,206.5C 369.514,205.326 370.847,204.66 372.5,204.5 Z"/></g>
<g><path style="opacity:0.424" fill="#ffb7b6" d="M 96.5,210.5 C 97.4511,211.919 97.7845,213.585 97.5,215.5C 96.209,215.737 95.209,215.404 94.5,214.5C 96.1765,213.817 96.8432,212.483 96.5,210.5 Z"/></g>
<g><path style="opacity:0.996" fill="#ff706c" d="M 406.5,233.5 C 406.027,232.094 405.027,231.427 403.5,231.5C 403.5,231.167 403.5,230.833 403.5,230.5C 403.5,229.167 404.167,228.5 405.5,228.5C 408.258,230.048 410.758,229.715 413,227.5C 413.617,226.551 413.451,225.718 412.5,225C 410.942,224.79 409.609,224.29 408.5,223.5C 406.735,222.539 404.735,222.205 402.5,222.5C 402.768,224.099 402.434,225.432 401.5,226.5C 400.768,225.192 399.934,223.858 399,222.5C 394.673,224.082 391.84,227.082 390.5,231.5C 392.523,233.853 394.523,236.186 396.5,238.5C 396.158,239.338 395.492,239.672 394.5,239.5C 387.532,237.858 382.865,233.692 380.5,227C 382.339,217.504 388.172,212.671 398,212.5C 404.012,213.207 409.512,215.207 414.5,218.5C 416.957,222.996 417.123,227.663 415,232.5C 412.302,234.673 409.469,235.006 406.5,233.5 Z M 408.5,223.5 C 409.609,224.29 410.942,224.79 412.5,225C 413.451,225.718 413.617,226.551 413,227.5C 410.758,229.715 408.258,230.048 405.5,228.5C 404.058,227.18 403.392,225.514 403.5,223.5C 405.167,223.5 406.833,223.5 408.5,223.5 Z"/></g>
<g><path style="opacity:0.498" fill="#ffb5b3" d="M 93.5,224.5 C 95.0269,224.427 96.0269,225.094 96.5,226.5C 94.9731,226.573 93.9731,225.906 93.5,224.5 Z"/></g>
<g><path style="opacity:0.882" fill="#ffaaa7" d="M 408.5,223.5 C 406.833,223.5 405.167,223.5 403.5,223.5C 403.392,225.514 404.058,227.18 405.5,228.5C 404.167,228.5 403.5,229.167 403.5,230.5C 402.326,229.486 401.66,228.153 401.5,226.5C 402.434,225.432 402.768,224.099 402.5,222.5C 404.735,222.205 406.735,222.539 408.5,223.5 Z"/></g>
<g><path style="opacity:0.612" fill="#ffbdbb" d="M 403.5,231.5 C 405.027,231.427 406.027,232.094 406.5,233.5C 404.973,233.573 403.973,232.906 403.5,231.5 Z"/></g>
<g><path style="opacity:0.812" fill="#ffa9a6" d="M 396.5,238.5 C 398.973,238.604 399.639,239.604 398.5,241.5C 396.974,241.006 395.641,240.339 394.5,239.5C 395.492,239.672 396.158,239.338 396.5,238.5 Z"/></g>
<g><path style="opacity:0.997" fill="#ff6e6a" d="M 394.5,269.5 C 395.463,270.363 395.463,271.03 394.5,271.5C 392.929,270.691 391.262,270.357 389.5,270.5C 385.485,269.409 381.985,267.409 379,264.5C 378.257,262.559 378.424,260.726 379.5,259C 391.678,253.669 404.178,250.169 417,248.5C 419.223,252.388 418.723,255.888 415.5,259C 406.367,260.866 397.367,263.2 388.5,266C 390.727,266.941 392.727,268.108 394.5,269.5 Z"/></g>
<g><path style="opacity:0.992" fill="#ff9d98" d="M 105.5,251.5 C 104.209,251.263 103.209,251.596 102.5,252.5C 100.456,251.969 98.7893,250.802 97.5,249C 98.0253,248.308 98.6919,247.808 99.5,247.5C 101.813,248.5 103.813,249.834 105.5,251.5 Z"/></g>
<g><path style="opacity:0.996" fill="#ff6e6a" d="M 105.5,251.5 C 115.521,254.778 118.188,261.111 113.5,270.5C 111.203,273.471 108.203,275.138 104.5,275.5C 99.7971,275.563 95.1304,275.229 90.5,274.5C 78.4748,270.563 76.4748,263.73 84.5,254C 88.2464,252.778 90.9131,253.944 92.5,257.5C 92.5,258.833 91.8333,259.5 90.5,259.5C 88.5,259.5 86.5,259.5 84.5,259.5C 84.5,261.167 84.5,262.833 84.5,264.5C 86.6208,264.325 88.6208,264.659 90.5,265.5C 91.7082,266.782 93.0416,266.782 94.5,265.5C 94.3764,264.893 94.0431,264.56 93.5,264.5C 93.5,264.167 93.5,263.833 93.5,263.5C 93.1307,261.007 93.7973,260.34 95.5,261.5C 96.0114,263.195 96.6781,264.861 97.5,266.5C 106.233,263.781 107.9,259.114 102.5,252.5C 103.209,251.596 104.209,251.263 105.5,251.5 Z M 90.5,259.5 C 91.5116,260.872 92.5116,262.205 93.5,263.5C 93.5,263.833 93.5,264.167 93.5,264.5C 92.791,265.404 91.791,265.737 90.5,265.5C 88.6208,264.659 86.6208,264.325 84.5,264.5C 84.5,262.833 84.5,261.167 84.5,259.5C 86.5,259.5 88.5,259.5 90.5,259.5 Z"/></g>
<g><path style="opacity:0.91" fill="#ff9d97" d="M 92.5,257.5 C 94.2624,258.262 95.2624,259.596 95.5,261.5C 93.7973,260.34 93.1307,261.007 93.5,263.5C 92.5116,262.205 91.5116,260.872 90.5,259.5C 91.8333,259.5 92.5,258.833 92.5,257.5 Z"/></g>
<g><path style="opacity:0.055" fill="#ffd4d3" d="M 93.5,264.5 C 94.0431,264.56 94.3764,264.893 94.5,265.5C 93.0416,266.782 91.7082,266.782 90.5,265.5C 91.791,265.737 92.791,265.404 93.5,264.5 Z"/></g>
<g><path style="opacity:0.979" fill="#ff9691" d="M 394.5,269.5 C 400.742,271.772 406.742,274.439 412.5,277.5C 412.5,278.5 412.5,279.5 412.5,280.5C 404.689,277.426 397.023,274.093 389.5,270.5C 391.262,270.357 392.929,270.691 394.5,271.5C 395.463,271.03 395.463,270.363 394.5,269.5 Z"/></g>
<g><path style="opacity:0.761" fill="#ffa3a0" d="M 90.5,274.5 C 95.1304,275.229 99.7971,275.563 104.5,275.5C 102.866,276.161 101.033,276.494 99,276.5C 95.8502,276.64 93.0169,275.973 90.5,274.5 Z"/></g>
<g><path style="opacity:0.998" fill="#ff716d" d="M 386.5,307.5 C 386.158,308.338 385.492,308.672 384.5,308.5C 380.301,304.776 377.635,300.109 376.5,294.5C 377.15,292.565 377.483,290.565 377.5,288.5C 377.859,286.629 378.859,285.129 380.5,284C 395.406,279.62 405.739,284.62 411.5,299C 410.285,306.562 405.951,309.896 398.5,309C 394.626,304.46 393.626,299.293 395.5,293.5C 383.865,292.785 380.865,297.452 386.5,307.5 Z M 397.5,295.5 C 401.124,296.48 403.791,298.647 405.5,302C 403.05,305.292 400.55,305.125 398,301.5C 397.505,299.527 397.338,297.527 397.5,295.5 Z"/></g>
<g><path style="opacity:0.99" fill="#ff8781" d="M 94.5,296.5 C 93.1667,297.167 91.8333,297.833 90.5,298.5C 86.8308,296.562 85.6641,293.562 87,289.5C 89.5994,285.054 93.4328,283.054 98.5,283.5C 98.6567,284.873 98.49,286.207 98,287.5C 95.6667,289.167 93.3333,290.833 91,292.5C 90.51,293.793 90.3433,295.127 90.5,296.5C 91.8333,296.5 93.1667,296.5 94.5,296.5 Z"/></g>
<g><path style="opacity:0.997" fill="#ff6f6b" d="M 90.5,298.5 C 91.8333,297.833 93.1667,297.167 94.5,296.5C 102.885,290.82 112.218,288.153 122.5,288.5C 122.768,291.119 122.435,293.619 121.5,296C 112.49,299.893 103.323,303.393 94,306.5C 91.0596,304.737 89.8929,302.07 90.5,298.5 Z"/></g>
<g><path style="opacity:0.949" fill="#ffa6a1" d="M 377.5,288.5 C 377.483,290.565 377.15,292.565 376.5,294.5C 375.516,292.402 375.849,290.402 377.5,288.5 Z"/></g>
<g><path style="opacity:0.925" fill="#ffa8a4" d="M 130.5,299.5 C 127.833,299.833 125.167,300.167 122.5,300.5C 125.04,298.587 127.707,298.254 130.5,299.5 Z"/></g>
<g><path style="opacity:0.997" fill="#ff6a66" d="M 130.5,299.5 C 134.197,301.821 135.197,304.987 133.5,309C 127.846,309.914 127.346,311.747 132,314.5C 133.892,323.536 130.392,329.703 121.5,333C 116.799,334.683 112.133,334.683 107.5,333C 106.058,332.623 105.058,331.79 104.5,330.5C 103.766,329.292 103.433,327.959 103.5,326.5C 111.581,326.97 118.581,324.304 124.5,318.5C 123.33,316.745 121.663,315.745 119.5,315.5C 113.729,317.644 108.063,319.977 102.5,322.5C 101.391,322.557 100.391,322.89 99.5,323.5C 95.2034,322.712 94.37,320.379 97,316.5C 101.415,310.38 107.249,306.38 114.5,304.5C 116.967,304.245 118.967,303.245 120.5,301.5C 120.842,300.662 121.508,300.328 122.5,300.5C 125.167,300.167 127.833,299.833 130.5,299.5 Z"/></g>
<g><path style="opacity:0.831" fill="#ffa7a4" d="M 120.5,301.5 C 118.967,303.245 116.967,304.245 114.5,304.5C 116.033,302.755 118.033,301.755 120.5,301.5 Z"/></g>
<g><path style="opacity:0.376" fill="#ffbdbc" d="M 386.5,307.5 C 387.885,308.302 387.718,308.969 386,309.5C 385.235,309.43 384.735,309.097 384.5,308.5C 385.492,308.672 386.158,308.338 386.5,307.5 Z"/></g>
<g><path style="opacity:0.998" fill="#ff6a66" d="M 369.5,309.5 C 382.741,313.288 395.074,318.955 406.5,326.5C 407.195,330.325 405.362,332.325 401,332.5C 395.709,331.125 390.543,329.458 385.5,327.5C 385.027,326.094 384.027,325.427 382.5,325.5C 380.973,325.573 379.973,324.906 379.5,323.5C 378.313,321.025 376.313,320.025 373.5,320.5C 371.973,320.573 370.973,319.906 370.5,318.5C 370.027,317.094 369.027,316.427 367.5,316.5C 365.973,316.573 364.973,315.906 364.5,314.5C 364.5,312.833 364.5,311.167 364.5,309.5C 366.167,309.5 367.833,309.5 369.5,309.5 Z"/></g>
<g><path style="opacity:0.894" fill="#ffa19d" d="M 369.5,309.5 C 367.833,309.5 366.167,309.5 364.5,309.5C 364.5,311.167 364.5,312.833 364.5,314.5C 363.539,312.735 363.205,310.735 363.5,308.5C 365.735,308.205 367.735,308.539 369.5,309.5 Z"/></g>
<g><path style="opacity:0.392" fill="#ffbcba" d="M 367.5,316.5 C 369.027,316.427 370.027,317.094 370.5,318.5C 368.973,318.573 367.973,317.906 367.5,316.5 Z"/></g>
<g><path style="opacity:0.741" fill="#ffa7a4" d="M 373.5,320.5 C 376.313,320.025 378.313,321.025 379.5,323.5C 377.456,322.492 375.456,321.492 373.5,320.5 Z"/></g>
<g><path style="opacity:0.993" fill="#ff736f" d="M 362.5,323.5 C 373.073,322.773 379.74,327.44 382.5,337.5C 381.569,346.078 376.902,348.912 368.5,346C 363,343.167 358.833,339 356,333.5C 355.333,331.833 355.333,330.167 356,328.5C 358.352,326.97 360.519,325.303 362.5,323.5 Z M 364.5,331.5 C 370.229,332.732 373.729,336.066 375,341.5C 374,342.167 373,342.833 372,343.5C 369.165,342.084 366.498,340.417 364,338.5C 362.441,336.783 361.608,334.783 361.5,332.5C 362.791,332.737 363.791,332.404 364.5,331.5 Z"/></g>
<g><path style="opacity:0.955" fill="#ff9590" d="M 102.5,322.5 C 102.833,323.833 103.167,325.167 103.5,326.5C 103.433,327.959 103.766,329.292 104.5,330.5C 101.736,329.052 100.069,326.719 99.5,323.5C 100.391,322.89 101.391,322.557 102.5,322.5 Z"/></g>
<g><path style="opacity:0.094" fill="#ffd5d5" d="M 144.5,326.5 C 145.5,326.5 146.5,326.5 147.5,326.5C 147.5,327.5 147.5,328.5 147.5,329.5C 146.5,328.5 145.5,327.5 144.5,326.5 Z"/></g>
<g><path style="opacity:0.997" fill="#ff6d69" d="M 353.5,338.5 C 355.118,340.785 357.118,342.785 359.5,344.5C 361.5,345.833 363.167,347.5 364.5,349.5C 364.427,351.027 365.094,352.027 366.5,352.5C 370.113,353.949 371.113,356.449 369.5,360C 368.072,360.579 366.738,360.412 365.5,359.5C 364.609,358.89 363.609,358.557 362.5,358.5C 356.977,355.49 352.144,351.49 348,346.5C 347.245,355.901 351.412,360.567 360.5,360.5C 362.179,360.285 363.179,360.952 363.5,362.5C 354.58,366.63 347.413,364.63 342,356.5C 341.163,352.852 341.663,349.519 343.5,346.5C 345.552,345.947 345.885,344.947 344.5,343.5C 340.5,341.5 337.5,338.5 335.5,334.5C 334.612,331.946 334.279,329.279 334.5,326.5C 336.455,325.677 338.455,325.51 340.5,326C 345.41,329.746 349.743,333.913 353.5,338.5 Z M 362.5,358.5 C 361.833,359.167 361.167,359.833 360.5,360.5C 351.412,360.567 347.245,355.901 348,346.5C 352.144,351.49 356.977,355.49 362.5,358.5 Z"/></g>
<g><path style="opacity:0.298" fill="#ffcac8" d="M 382.5,325.5 C 384.027,325.427 385.027,326.094 385.5,327.5C 383.973,327.573 382.973,326.906 382.5,325.5 Z"/></g>
<g><path style="opacity:0.997" fill="#ff6c69" d="M 144.5,326.5 C 145.5,327.5 146.5,328.5 147.5,329.5C 148.598,330.601 148.765,331.934 148,333.5C 145.665,336.665 143.165,339.665 140.5,342.5C 139.833,342.5 139.5,342.167 139.5,341.5C 138.221,340.285 137.221,340.618 136.5,342.5C 129.825,347.669 122.992,352.669 116,357.5C 113.881,353.655 114.214,349.988 117,346.5C 121.726,341.566 126.893,337.233 132.5,333.5C 134.027,333.573 135.027,332.906 135.5,331.5C 137.756,328.595 140.756,326.928 144.5,326.5 Z"/></g>
<g><path style="opacity:0.38" fill="#ffd1d1" d="M 334.5,326.5 C 334.279,329.279 334.612,331.946 335.5,334.5C 334.252,333.666 333.585,332.333 333.5,330.5C 333.511,328.955 333.844,327.622 334.5,326.5 Z"/></g>
<g><path style="opacity:0.588" fill="#ffbab8" d="M 135.5,331.5 C 135.027,332.906 134.027,333.573 132.5,333.5C 132.973,332.094 133.973,331.427 135.5,331.5 Z"/></g>
<g><path style="opacity:0.953" fill="#ffafab" d="M 353.5,338.5 C 356.522,339.522 358.522,341.522 359.5,344.5C 357.118,342.785 355.118,340.785 353.5,338.5 Z"/></g>
<g><path style="opacity:0.004" fill="#ffe3e2" d="M 139.5,341.5 C 138.272,342.306 137.272,343.306 136.5,344.5C 136.5,343.833 136.5,343.167 136.5,342.5C 137.221,340.618 138.221,340.285 139.5,341.5 Z"/></g>
<g><path style="opacity:0.995" fill="#ff746f" d="M 140.5,374.5 C 139.167,374.167 137.833,373.833 136.5,373.5C 135.387,372.054 135.22,370.387 136,368.5C 139.035,361.751 142.535,355.418 146.5,349.5C 148.138,348.295 148.471,346.962 147.5,345.5C 147.5,345.167 147.5,344.833 147.5,344.5C 154.391,340.547 156.891,342.547 155,350.5C 150.392,358.73 145.559,366.73 140.5,374.5 Z"/></g>
<g><path style="opacity:0.663" fill="#ffc1be" d="M 344.5,343.5 C 345.885,344.947 345.552,345.947 343.5,346.5C 344.11,345.609 344.443,344.609 344.5,343.5 Z"/></g>
<g><path style="opacity:0.008" fill="#ffdbda" d="M 147.5,345.5 C 148.471,346.962 148.138,348.295 146.5,349.5C 146.672,348.508 146.338,347.842 145.5,347.5C 146.167,346.833 146.833,346.167 147.5,345.5 Z"/></g>
<g><path style="opacity:0.974" fill="#ff8883" d="M 139.5,341.5 C 139.5,342.167 139.833,342.5 140.5,342.5C 139.284,344.48 138.451,346.48 138,348.5C 140.735,346.189 143.901,344.855 147.5,344.5C 147.5,344.833 147.5,345.167 147.5,345.5C 146.833,346.167 146.167,346.833 145.5,347.5C 141.388,350.059 137.054,352.392 132.5,354.5C 131.569,350.349 132.902,347.016 136.5,344.5C 137.272,343.306 138.272,342.306 139.5,341.5 Z"/></g>
<g><path style="opacity:0.514" fill="#ffb5b3" d="M 364.5,349.5 C 365.906,349.973 366.573,350.973 366.5,352.5C 365.094,352.027 364.427,351.027 364.5,349.5 Z"/></g>
<g><path style="opacity:0.997" fill="#ff6f6b" d="M 167.5,388.5 C 166.512,389.795 165.512,391.128 164.5,392.5C 161.477,395.526 158.81,398.859 156.5,402.5C 154.741,403.754 153.241,403.421 152,401.5C 151.333,399.5 151.333,397.5 152,395.5C 153.322,392.035 154.822,388.702 156.5,385.5C 157.167,384.833 157.833,384.167 158.5,383.5C 164.395,374.725 170.062,365.725 175.5,356.5C 175,356.167 174.5,355.833 174,355.5C 170.734,356.75 167.568,358.084 164.5,359.5C 163.508,359.672 162.842,359.338 162.5,358.5C 165.888,350.869 171.055,349.203 178,353.5C 182.546,360.133 182.546,366.8 178,373.5C 174.478,378.566 170.978,383.566 167.5,388.5 Z"/></g>
<g><path style="opacity:0.698" fill="#ffaca9" d="M 162.5,358.5 C 162.842,359.338 163.508,359.672 164.5,359.5C 163.167,360.933 161.667,362.267 160,363.5C 159.5,363 159,362.5 158.5,362C 159.532,360.373 160.866,359.207 162.5,358.5 Z"/></g>
<g><path style="opacity:0.997" fill="#ff6f6b" d="M 341.5,364.5 C 341.427,366.027 342.094,367.027 343.5,367.5C 344.793,368.842 345.626,370.509 346,372.5C 346.667,377.5 346.667,382.5 346,387.5C 342.433,391.861 337.933,393.195 332.5,391.5C 332.027,390.094 331.027,389.427 329.5,389.5C 328.407,385.328 329.407,381.661 332.5,378.5C 333.492,378.328 334.158,378.662 334.5,379.5C 333.833,381.819 333.666,384.153 334,386.5C 335.444,388.155 337.278,388.822 339.5,388.5C 339.492,385.455 339.159,382.455 338.5,379.5C 337.492,377.456 336.492,375.456 335.5,373.5C 325.843,367.495 320.843,370.161 320.5,381.5C 319.517,377.702 319.183,373.702 319.5,369.5C 318.984,364.848 320.651,361.348 324.5,359C 331.559,357.076 337.225,358.91 341.5,364.5 Z M 338.5,379.5 C 339.159,382.455 339.492,385.455 339.5,388.5C 337.278,388.822 335.444,388.155 334,386.5C 333.666,384.153 333.833,381.819 334.5,379.5C 335.833,378.167 337.167,378.167 338.5,379.5 Z"/></g>
<g><path style="opacity:0.973" fill="#ffaca7" d="M 362.5,358.5 C 363.609,358.557 364.609,358.89 365.5,359.5C 365.573,361.027 364.906,362.027 363.5,362.5C 363.179,360.952 362.179,360.285 360.5,360.5C 361.167,359.833 361.833,359.167 362.5,358.5 Z"/></g>
<g><path style="opacity:0.995" fill="#ff716d" d="M 192.5,397.5 C 192.5,398.167 192.167,398.5 191.5,398.5C 190.624,398.369 189.957,398.702 189.5,399.5C 187.55,402.515 185.884,405.681 184.5,409C 181.241,410.728 177.908,410.894 174.5,409.5C 173.702,409.043 173.369,408.376 173.5,407.5C 173.523,405.073 174.023,402.74 175,400.5C 175.483,401.448 175.649,402.448 175.5,403.5C 175.461,404.756 175.961,405.756 177,406.5C 178.306,403.388 179.472,400.221 180.5,397C 179.87,395.69 178.87,394.856 177.5,394.5C 177.783,393.711 178.283,393.044 179,392.5C 180.183,393.731 181.349,393.731 182.5,392.5C 185.018,386.137 187.518,379.803 190,373.5C 191.269,369.946 193.269,366.946 196,364.5C 198.806,366.287 200.306,368.787 200.5,372C 198.723,380.667 195.39,388.667 190.5,396C 191.416,396.278 192.082,396.778 192.5,397.5 Z"/></g>
<g><path style="opacity:0.412" fill="#ffc1c0" d="M 341.5,364.5 C 342.906,364.973 343.573,365.973 343.5,367.5C 342.094,367.027 341.427,366.027 341.5,364.5 Z"/></g>
<g><path style="opacity:0.998" fill="#ff6e6a" d="M 313.5,401.5 C 312.075,403.031 311.409,402.698 311.5,400.5C 304.276,391.829 300.609,381.829 300.5,370.5C 303.119,370.232 305.619,370.565 308,371.5C 312.294,379.753 316.294,388.086 320,396.5C 320.684,397.784 320.517,398.951 319.5,400C 317.655,401.128 315.655,401.628 313.5,401.5 Z"/></g>
<g><path style="opacity:0.333" fill="#ffc9c8" d="M 136.5,373.5 C 137.833,373.833 139.167,374.167 140.5,374.5C 138.872,375.853 137.538,375.519 136.5,373.5 Z"/></g>
<g><path style="opacity:0.45" fill="#ffbfbe" d="M 319.5,369.5 C 319.183,373.702 319.517,377.702 320.5,381.5C 320.44,382.043 320.107,382.376 319.5,382.5C 318.189,378.016 318.189,373.683 319.5,369.5 Z"/></g>
<g><path style="opacity:0.729" fill="#ffa6a3" d="M 335.5,373.5 C 336.492,375.456 337.492,377.456 338.5,379.5C 337.167,378.167 335.833,378.167 334.5,379.5C 334.158,378.662 333.492,378.328 332.5,378.5C 334.279,377.33 335.279,375.664 335.5,373.5 Z"/></g>
<g><path style="opacity:0.991" fill="#ff736f" d="M 214.5,378.5 C 219.905,380.637 222.238,384.637 221.5,390.5C 221.805,398.913 217.972,404.246 210,406.5C 203.596,405.718 200.429,402.051 200.5,395.5C 201.213,391.957 202.213,388.623 203.5,385.5C 204.906,385.027 205.573,384.027 205.5,382.5C 206.962,381.542 208.295,380.376 209.5,379C 211.134,378.506 212.801,378.34 214.5,378.5 Z M 208.5,384.5 C 211.77,384.679 213.437,386.512 213.5,390C 212.353,393.815 210.353,396.982 207.5,399.5C 205.053,399.099 204.053,397.599 204.5,395C 205.137,391.228 206.47,387.728 208.5,384.5 Z"/></g>
<g><path style="opacity:0.659" fill="#ffb8b6" d="M 214.5,378.5 C 212.801,378.34 211.134,378.506 209.5,379C 208.295,380.376 206.962,381.542 205.5,382.5C 207.067,377.751 210.067,376.417 214.5,378.5 Z"/></g>
<g><path style="opacity:0.994" fill="#ff746f" d="M 244.5,384.5 C 244.427,386.027 245.094,387.027 246.5,387.5C 247.939,389.588 248.606,391.921 248.5,394.5C 248.843,396.483 248.176,397.817 246.5,398.5C 245.952,392.397 243.119,387.731 238,384.5C 236.739,384.759 235.739,385.426 235,386.5C 239.113,398.754 243.28,411.088 247.5,423.5C 247.045,428.952 244.045,431.618 238.5,431.5C 236.578,431.199 234.912,430.533 233.5,429.5C 233.842,428.662 234.508,428.328 235.5,428.5C 237.665,428.884 239.332,428.217 240.5,426.5C 234.915,414.008 229.915,401.341 225.5,388.5C 225.959,384.876 227.959,382.709 231.5,382C 236.038,381.717 240.371,382.551 244.5,384.5 Z"/></g>
<g><path style="opacity:0.997" fill="#ff817b" d="M 267.5,381.5 C 272.355,380.964 274.521,382.964 274,387.5C 272.097,390.955 269.763,391.288 267,388.5C 266.297,386.071 266.463,383.738 267.5,381.5 Z"/></g>
<g><path style="opacity:0.975" fill="#ff938f" d="M 158.5,383.5 C 157.833,384.167 157.167,384.833 156.5,385.5C 153.883,384.214 151.55,382.547 149.5,380.5C 150,380.167 150.5,379.833 151,379.5C 153.432,380.966 155.932,382.299 158.5,383.5 Z"/></g>
<g><path style="opacity:0.447" fill="#ffb6b4" d="M 205.5,382.5 C 205.573,384.027 204.906,385.027 203.5,385.5C 203.427,383.973 204.094,382.973 205.5,382.5 Z"/></g>
<g><path style="opacity:0.322" fill="#ffc9c8" d="M 244.5,384.5 C 245.906,384.973 246.573,385.973 246.5,387.5C 245.094,387.027 244.427,386.027 244.5,384.5 Z"/></g>
<g><path style="opacity:0.345" fill="#ffc5c3" d="M 329.5,389.5 C 331.027,389.427 332.027,390.094 332.5,391.5C 330.973,391.573 329.973,390.906 329.5,389.5 Z"/></g>
<g><path style="opacity:0.949" fill="#ff908b" d="M 167.5,388.5 C 169.5,390.167 171.5,391.833 173.5,393.5C 173.158,394.338 172.492,394.672 171.5,394.5C 169.254,393.545 166.921,392.878 164.5,392.5C 165.512,391.128 166.512,389.795 167.5,388.5 Z"/></g>
<g><path style="opacity:0.141" fill="#ffd8d7" d="M 173.5,393.5 C 174.885,394.302 174.718,394.969 173,395.5C 172.235,395.43 171.735,395.097 171.5,394.5C 172.492,394.672 173.158,394.338 173.5,393.5 Z"/></g>
<g><path style="opacity:0.997" fill="#ff7672" d="M 307.5,402.5 C 308.9,403.1 309.9,404.1 310.5,405.5C 305.969,407.325 302.136,406.325 299,402.5C 297.589,400.35 296.755,398.016 296.5,395.5C 298.199,395.34 299.866,395.506 301.5,396C 302.998,398.664 304.998,400.83 307.5,402.5 Z"/></g>
<g><path style="opacity:0.427" fill="#ffc6c6" d="M 248.5,394.5 C 249.451,395.919 249.784,397.585 249.5,399.5C 248.209,399.737 247.209,399.404 246.5,398.5C 248.176,397.817 248.843,396.483 248.5,394.5 Z"/></g>
<g><path style="opacity:0.08" fill="#ffe1e1" d="M 192.5,397.5 C 193.043,397.56 193.376,397.893 193.5,398.5C 192.743,399.773 192.077,399.773 191.5,398.5C 192.167,398.5 192.5,398.167 192.5,397.5 Z"/></g>
<g><path style="opacity:0.91" fill="#ffa9a5" d="M 177.5,394.5 C 177.785,397.829 177.118,400.829 175.5,403.5C 175.649,402.448 175.483,401.448 175,400.5C 174.023,402.74 173.523,405.073 173.5,407.5C 172.368,402.554 173.701,398.22 177.5,394.5 Z"/></g>
<g><path style="opacity:0.624" fill="#ffc7c5" d="M 311.5,400.5 C 311.409,402.698 312.075,403.031 313.5,401.5C 312.878,403.122 311.878,404.455 310.5,405.5C 309.9,404.1 308.9,403.1 307.5,402.5C 309.199,402.473 310.533,401.806 311.5,400.5 Z"/></g>
<g><path style="opacity:0.494" fill="#ffb2b1" d="M 230.5,420.5 C 229.566,421.568 229.232,422.901 229.5,424.5C 228.212,422.965 228.212,421.299 229.5,419.5C 230.107,419.624 230.44,419.957 230.5,420.5 Z"/></g>
<g><path style="opacity:0.847" fill="#ff9c97" d="M 230.5,420.5 C 231.182,423.881 232.849,426.548 235.5,428.5C 234.508,428.328 233.842,428.662 233.5,429.5C 230.703,429.033 229.369,427.367 229.5,424.5C 229.232,422.901 229.566,421.568 230.5,420.5 Z"/></g>
</svg>
